SplineFontDB: 3.2
FontName: Kinnari-BoldItalic
FullName: Kinnari Bold Italic
FamilyName: Kinnari
Weight: Bold
Copyright: KinnariBoldItalic by TLWG, based on Kinnari Bold and Norasi Bold Italic.\nCopyright (C) 1999 Db Type. All Rights Reserved.\nCopyright (C) 2007 National Electronics and Computer Technology Center. All Rights Reserved.
Version: 003.003
ItalicAngle: -15.3
UnderlinePosition: -70
UnderlineWidth: 25
Ascent: 800
Descent: 200
InvalidEm: 0
LayerCount: 3
Layer: 0 0 "Back" 1
Layer: 1 0 "Fore" 0
Layer: 2 1 "Quad" 0
FSType: 0
OS2Version: 4
OS2_WeightWidthSlopeOnly: 0
OS2_UseTypoMetrics: 1
CreationTime: 1136287438
ModificationTime: 1782060515
PfmFamily: 17
TTFWeight: 700
TTFWidth: 5
LineGap: 0
VLineGap: 0
Panose: 0 0 0 0 0 0 0 0 0 0
OS2TypoAscent: 1286
OS2TypoAOffset: 0
OS2TypoDescent: -496
OS2TypoDOffset: 0
OS2TypoLinegap: 0
OS2WinAscent: 1286
OS2WinAOffset: 0
OS2WinDescent: 496
OS2WinDOffset: 0
HheadAscent: 1286
HheadAOffset: 0
HheadDescent: -496
HheadDOffset: 0
OS2Vendor: 'PfEd'
Lookup: 4 0 1 "'liga' Standard Ligatures in Latin lookup 0" { "'liga' Standard Ligatures in Latin lookup 0 subtable"  } ['liga' ('latn' <'dflt' > ) ]
Lookup: 6 0 0 "'ccmp' Thai Tone Tilde Reordering" { "'ccmp' Thai Tone Tilde Reordering"  } ['ccmp' ('DFLT' <'dflt' > 'latn' <'dflt' > 'thai' <'KUY ' 'MLY ' 'PAL ' 'SAN ' 'THA ' 'dflt' > ) ]
Lookup: 6 0 0 "'ccmp' Thai Tone Macron Reordering" { "'ccmp' Thai Tone Macron Reordering"  } ['ccmp' ('DFLT' <'dflt' > 'latn' <'dflt' > 'thai' <'KUY ' 'MLY ' 'PAL ' 'SAN ' 'THA ' 'dflt' > ) ]
Lookup: 6 0 0 "'ccmp' Thai Below Vowel Macron Reordering" { "'ccmp' Thai Below Vowel Macron Reordering"  } ['ccmp' ('DFLT' <'dflt' > 'latn' <'dflt' > 'thai' <'KUY ' 'MLY ' 'PAL ' 'SAN ' 'THA ' 'dflt' > ) ]
Lookup: 4 0 0 "'ccmp' Patani Malay Ligatures" { "'ccmp' Patani Malay Ligatures"  } ['ccmp' ('DFLT' <'dflt' > 'thai' <'KUY ' 'MLY ' 'PAL ' 'SAN ' 'THA ' 'dflt' > ) ]

StartChar: .notdef
Encoding: 0 0 0
Width: 384
Flags: W
HStem: 0 23<28 366> 568 23<144 482>
DStem2: 0 0 28 23 0.208512 0.97802<28.3328 585.541> 366 23 384 0 0.208512 0.97802<0 557.208>
LayerCount: 3
Fore
SplineSet
144 568 m 1
 28 23 l 1
 366 23 l 1
 482 568 l 1
 144 568 l 1
384 0 m 1
 0 0 l 1
 126 591 l 1
 510 591 l 1
 384 0 l 1
EndSplineSet
Validated: 1
Layer: 2
SplineSet
144 568 m 1,0,-1
 28 23 l 1,1,-1
 366 23 l 1,2,-1
 482 568 l 1,3,-1
 144 568 l 1,0,-1
384 0 m 1,4,-1
 0 0 l 1,5,-1
 126 591 l 1,6,-1
 510 591 l 1,7,-1
 384 0 l 1,4,-1
EndSplineSet
EndChar

StartChar: exclam
Encoding: 33 33 2
Width: 388
Flags: W
HStem: -13 146<88.847 189.517> 664 20G<285 320.5>
VStem: 67 145<8 110.106> 167 29<210.069 239.173> 231 140<541.754 665.104>
LayerCount: 3
Fore
SplineSet
196 204 m 1xd8
 167 212 l 1
 196 368 215 486 220 565 c 0
 223 609 224 620 231 639 c 1
 246 666 270 684 300 684 c 0
 341 684 371 655 371 611 c 0
 371 584 365 568 338 521 c 1
 283 412 237 312 196 204 c 1xd8
141 133 m 0
 179 133 212 97 212 59 c 0
 212 19 180 -13 139 -13 c 0
 98 -13 67 18 67 59 c 0xe8
 67 100 100 133 141 133 c 0
EndSplineSet
Validated: 1
Layer: 2
SplineSet
196 204 m 1,0,-1
 167 212 l 1,1,2
 213 462 213 462 220 565 c 0,3,4
 224 619 224 619 231 639 c 0,5,6
 256 684 256 684 300 684 c 0,7,8
 331 684 331 684 351 664 c 128,-1,9
 371 644 371 644 371 611 c 128,-1,10
 371 578 371 578 338 521 c 0,11,12
 251 348 251 348 196 204 c 1,0,-1
141 133 m 0,13,14
 169 133 169 133 190.5 110.5 c 128,-1,15
 212 88 212 88 212 59 c 0,16,17
 212 29 212 29 191 8 c 128,-1,18
 170 -13 170 -13 139 -13 c 128,-1,19
 108 -13 108 -13 87.5 7.5 c 128,-1,20
 67 28 67 28 67 59 c 128,-1,21
 67 90 67 90 88.5 111.5 c 128,-1,22
 110 133 110 133 141 133 c 0,13,14
EndSplineSet
EndChar

StartChar: numbersign
Encoding: 35 35 4
Width: 499
Flags: W
HStem: 0 21G<-22 64.134 168 256.134> 209 74<-13 63 171 253 362 429> 417 74<70 146 253 338 445 513> 680 20G<255.579 340 445.77 532>
DStem2: -22 0 56 0 0.378221 0.925715<29.5012 225.623 334.974 449.564 558.537 756.172> 168 0 248 0 0.378221 0.925715<30.2577 225.623 335.352 450.321 559.293 756.172>
LayerCount: 3
Fore
SplineSet
450 283 m 1
 429 209 l 1
 333 209 l 1
 248 0 l 1
 168 0 l 1
 253 209 l 1
 141 209 l 1
 56 0 l 1
 -22 0 l 1
 63 209 l 1
 -34 209 l 1
 -13 283 l 1
 92 283 l 1
 146 417 l 1
 51 417 l 1
 70 491 l 1
 176 491 l 1
 264 700 l 1
 340 700 l 1
 253 491 l 1
 368 491 l 1
 454 700 l 1
 532 700 l 1
 445 491 l 1
 533 491 l 1
 513 417 l 1
 416 417 l 1
 362 283 l 1
 450 283 l 1
338 417 m 1
 226 417 l 1
 171 283 l 1
 284 283 l 1
 338 417 l 1
EndSplineSet
Validated: 1
Layer: 2
SplineSet
450 283 m 1,0,-1
 429 209 l 1,1,-1
 333 209 l 1,2,-1
 248 0 l 1,3,-1
 168 0 l 1,4,-1
 253 209 l 1,5,-1
 141 209 l 1,6,-1
 56 0 l 1,7,-1
 -22 0 l 1,8,-1
 63 209 l 1,9,-1
 -34 209 l 1,10,-1
 -13 283 l 1,11,-1
 92 283 l 1,12,-1
 146 417 l 1,13,-1
 51 417 l 1,14,-1
 70 491 l 1,15,-1
 176 491 l 1,16,-1
 264 700 l 1,17,-1
 340 700 l 1,18,-1
 253 491 l 1,19,-1
 368 491 l 1,20,-1
 454 700 l 1,21,-1
 532 700 l 1,22,-1
 445 491 l 1,23,-1
 533 491 l 1,24,-1
 513 417 l 1,25,-1
 416 417 l 1,26,-1
 362 283 l 1,27,-1
 450 283 l 1,0,-1
338 417 m 1,28,-1
 226 417 l 1,29,-1
 171 283 l 1,30,-1
 284 283 l 1,31,-1
 338 417 l 1,28,-1
EndSplineSet
EndChar

StartChar: dollar
Encoding: 36 36 5
Width: 499
Flags: W
HStem: 0 32<186 264.473> 637 32<225.191 303>
VStem: 22 22<205.721 223> 79 100<480.811 571.615> 324 108<114.749 225.934> 434 22<468.091 486.878>
DStem2: 98 -100 149 -100 0.263873 0.964557<13.4575 110.86 150.542 401.645 557.548 764.008 803.163 863.994>
LayerCount: 3
Fore
SplineSet
291 410 m 1
 366 346 432 290 432 201 c 0
 432 86 331 0 201 0 c 2
 179 0 l 1
 149 -100 l 1
 98 -100 l 1
 127 7 l 1
 64 22 34 40 -21 86 c 1
 22 229 l 1
 44 223 l 1
 47 114 67 75 138 42 c 1
 211 303 l 1
 105 384 79 420 79 488 c 0
 79 590 164 669 275 669 c 0
 283 669 291 669 313 668 c 1
 331 732 l 1
 381 732 l 1
 360 661 l 1
 394 655 441 636 479 612 c 1
 497 598 l 1
 456 464 l 1
 434 470 l 1
 435 480 435 494 435 499 c 0
 435 568 412 605 352 625 c 1
 291 410 l 1
248 437 m 1
 303 636 l 1
 297 637 294 637 289 637 c 0
 223 637 179 599 179 542 c 0
 179 502 195 476 248 437 c 1
253 274 m 1
 186 32 l 1
 221 32 230 34 248 40 c 0
 294 57 324 101 324 157 c 0
 324 204 308 230 253 274 c 1
EndSplineSet
Validated: 1
Layer: 2
SplineSet
291 410 m 1,0,1
 328 378 328 378 346 361 c 128,-1,2
 364 344 364 344 388 316 c 128,-1,3
 412 288 412 288 422 260.5 c 128,-1,4
 432 233 432 233 432 201 c 0,5,6
 432 115 432 115 365.5 57.5 c 128,-1,7
 299 0 299 0 201 0 c 2,8,-1
 179 0 l 1,9,-1
 149 -100 l 1,10,-1
 98 -100 l 1,11,-1
 127 7 l 1,12,13
 81 18 81 18 51.5 34 c 128,-1,14
 22 50 22 50 -21 86 c 1,15,-1
 22 229 l 1,16,-1
 44 223 l 1,17,18
 46 141 46 141 65.5 104 c 128,-1,19
 85 67 85 67 138 42 c 1,20,-1
 211 303 l 1,21,22
 131 364 131 364 105 400.5 c 128,-1,23
 79 437 79 437 79 488 c 0,24,25
 79 565 79 565 135.5 617 c 128,-1,26
 192 669 192 669 275 669 c 0,27,28
 291 669 291 669 313 668 c 1,29,-1
 331 732 l 1,30,-1
 381 732 l 1,31,-1
 360 661 l 1,32,33
 417 651 417 651 479 612 c 1,34,-1
 497 598 l 1,35,-1
 456 464 l 1,36,-1
 434 470 l 1,37,38
 435 480 435 480 435 499 c 0,39,40
 435 551 435 551 416 580.5 c 128,-1,41
 397 610 397 610 352 625 c 1,42,-1
 291 410 l 1,0,1
248 437 m 1,43,-1
 303 636 l 1,44,45
 297 637 297 637 289 637 c 0,46,47
 240 637 240 637 209.5 611 c 128,-1,48
 179 585 179 585 179 542 c 0,49,50
 179 512 179 512 194 489 c 128,-1,51
 209 466 209 466 248 437 c 1,43,-1
253 274 m 1,52,-1
 186 32 l 1,53,54
 224 32 224 32 248 40 c 0,55,56
 283 53 283 53 303.5 84 c 128,-1,57
 324 115 324 115 324 157 c 0,58,59
 324 192 324 192 309 216.5 c 128,-1,60
 294 241 294 241 253 274 c 1,52,-1
EndSplineSet
EndChar

StartChar: percent
Encoding: 37 37 6
Width: 832
Flags: W
HStem: -10 47<577.531 661.159> 294 46<163.13 250.375> 325 51<663.907 744.67> 584 39<381.38 518.487> 631 49<248.529 323.485>
VStem: 40 114<351.953 478.277> 347 34<481.613 589.066> 450 117<46.6855 174.79> 759 33<173.378 306.031>
DStem2: 193 -7 250 -7 0.492509 0.870307<28.073 711.098>
LayerCount: 3
Fore
SplineSet
450 127 m 0xbf80
 450 234 550 376 677 376 c 0
 746 376 792 330 792 261 c 0
 792 145 714 -10 583 -10 c 0
 502 -10 450 45 450 127 c 0xbf80
759 256 m 0
 759 296 737 325 704 325 c 0
 635 325 567 140 567 88 c 0
 567 60 588 37 617 37 c 0
 692 37 759 169 759 256 c 0
264 680 m 0
 338 680 329 623 437 623 c 0
 499 623 549 643 605 691 c 1
 645 691 l 1
 250 -7 l 1
 193 -7 l 1
 543 612 l 1
 499 595 461 584 423 584 c 0
 415 584 401 587 381 590 c 1
 379 501 363 444 319 382 c 1
 281 325 229 294 168 294 c 0xdf80
 92 294 40 352 40 431 c 0
 40 555 151 680 264 680 c 0
302 623 m 1
 289 631 288 631 285 631 c 0
 228 631 154 454 154 390 c 0
 154 361 174 340 202 340 c 0
 272 340 347 463 347 577 c 0
 347 616 333 596 302 623 c 1
EndSplineSet
Validated: 1
Layer: 2
SplineSet
450 127 m 0,0,1
 450 181 450 181 479.5 238.5 c 128,-1,2
 509 296 509 296 563 336 c 128,-1,3
 617 376 617 376 677 376 c 0,4,5
 729 376 729 376 760.5 344.5 c 128,-1,6
 792 313 792 313 792 261 c 0,7,8
 792 201 792 201 768 139.5 c 128,-1,9
 744 78 744 78 694.5 34 c 128,-1,10
 645 -10 645 -10 583 -10 c 0,11,12
 522 -10 522 -10 486 27.5 c 128,-1,13
 450 65 450 65 450 127 c 0,0,1
759 256 m 0,14,15
 759 286 759 286 744 305.5 c 128,-1,16
 729 325 729 325 704 325 c 0,17,18
 658 325 658 325 612.5 231.5 c 128,-1,19
 567 138 567 138 567 88 c 0,20,21
 567 67 567 67 581.5 52 c 128,-1,22
 596 37 596 37 617 37 c 0,23,24
 670 37 670 37 714.5 111.5 c 128,-1,25
 759 186 759 186 759 256 c 0,14,15
264 680 m 0,26,27
 294 680 294 680 315 666 c 128,-1,28
 336 652 336 652 363.5 637.5 c 128,-1,29
 391 623 391 623 437 623 c 0,30,31
 526 623 526 623 605 691 c 1,32,-1
 645 691 l 1,33,-1
 250 -7 l 1,34,-1
 193 -7 l 1,35,-1
 543 612 l 1,36,37
 471 584 471 584 423 584 c 0,38,39
 421 584 421 584 381 590 c 1,40,41
 379 523 379 523 365.5 475.5 c 128,-1,42
 352 428 352 428 319 382 c 0,43,44
 260 294 260 294 168 294 c 0,45,46
 111 294 111 294 75.5 332.5 c 128,-1,47
 40 371 40 371 40 431 c 0,48,49
 40 524 40 524 109.5 602 c 128,-1,50
 179 680 179 680 264 680 c 0,26,27
302 623 m 1,51,52
 289 631 289 631 285 631 c 0,53,54
 258 631 258 631 226.5 584 c 128,-1,55
 195 537 195 537 174.5 480 c 128,-1,56
 154 423 154 423 154 390 c 0,57,58
 154 368 154 368 167.5 354 c 128,-1,59
 181 340 181 340 202 340 c 0,60,61
 254 340 254 340 300.5 415.5 c 128,-1,62
 347 491 347 491 347 577 c 0,63,64
 347 595 347 595 343 599.5 c 128,-1,65
 339 604 339 604 326.5 608.5 c 128,-1,66
 314 613 314 613 302 623 c 1,51,52
EndSplineSet
EndChar

StartChar: ampersand
Encoding: 38 38 7
Width: 777
Flags: W
HStem: -19 72<139.363 313.693> -18 80<502.5 616.447> 335 25<479 521.914 647.551 691> 649 34<383.972 462.225>
VStem: 4 134<112.024 228.109> 234 120<435.301 579.363> 478 79<510.881 631.699>
LayerCount: 3
Fore
SplineSet
672 101 m 1x7e
 699 81 l 1
 639 7 595 -18 529 -18 c 0x7e
 476 -18 435 0 390 44 c 1
 324 -1 268 -19 198 -19 c 0xbe
 83 -19 4 48 4 148 c 0
 4 193 26 242 63 280 c 0
 97 316 129 334 245 384 c 1
 237 429 234 453 234 476 c 0
 234 598 309 683 419 683 c 0
 499 683 557 634 557 568 c 0
 557 501 499 445 375 395 c 1
 387 322 420 234 461 168 c 1
 519 242 535 270 535 297 c 0
 535 319 521 330 479 335 c 1
 479 360 l 1
 691 360 l 1
 691 335 l 1
 628 324 624 319 486 133 c 1
 524 82 557 62 596 62 c 0
 623 62 645 72 672 101 c 1x7e
253 343 m 1
 168 302 138 261 138 190 c 0
 138 111 193 53 265 53 c 0xbe
 296 53 322 60 362 81 c 1
 306 167 278 231 253 343 c 1
366 434 m 1
 403 456 403 456 415 464 c 1
 453 495 478 538 478 582 c 0
 478 624 458 649 425 649 c 0
 379 649 354 606 354 530 c 0
 354 505 357 488 366 434 c 1
EndSplineSet
Validated: 1
Layer: 2
SplineSet
672 101 m 1,0,-1
 699 81 l 1,1,2
 654 26 654 26 616.5 4 c 128,-1,3
 579 -18 579 -18 529 -18 c 0,4,5
 453 -18 453 -18 390 44 c 1,6,7
 298 -19 298 -19 198 -19 c 0,8,9
 112 -19 112 -19 58 27 c 128,-1,10
 4 73 4 73 4 148 c 0,11,12
 4 219 4 219 63 280 c 0,13,14
 88 307 88 307 123 326.5 c 128,-1,15
 158 346 158 346 245 384 c 1,16,17
 234 446 234 446 234 476 c 0,18,19
 234 568 234 568 285.5 625.5 c 128,-1,20
 337 683 337 683 419 683 c 0,21,22
 479 683 479 683 518 650.5 c 128,-1,23
 557 618 557 618 557 568 c 0,24,25
 557 468 557 468 375 395 c 1,26,27
 395 275 395 275 461 168 c 1,28,29
 504 223 504 223 519.5 250 c 128,-1,30
 535 277 535 277 535 297 c 0,31,32
 535 314 535 314 522.5 322.5 c 128,-1,33
 510 331 510 331 479 335 c 1,34,-1
 479 360 l 1,35,-1
 691 360 l 1,36,-1
 691 335 l 1,37,38
 644 327 644 327 617 300 c 128,-1,39
 590 273 590 273 486 133 c 1,40,41
 539 62 539 62 596 62 c 0,42,43
 636 62 636 62 672 101 c 1,0,-1
253 343 m 1,44,45
 190 312 190 312 164 277.5 c 128,-1,46
 138 243 138 243 138 190 c 0,47,48
 138 131 138 131 174.5 92 c 128,-1,49
 211 53 211 53 265 53 c 0,50,51
 309 53 309 53 362 81 c 1,52,53
 319 147 319 147 295 203.5 c 128,-1,54
 271 260 271 260 253 343 c 1,44,45
366 434 m 1,55,56
 403 456 403 456 415 464 c 0,57,58
 478 515 478 515 478 582 c 0,59,60
 478 613 478 613 464 631 c 128,-1,61
 450 649 450 649 425 649 c 0,62,63
 354 649 354 649 354 530 c 0,64,65
 354 506 354 506 366 434 c 1,55,56
EndSplineSet
EndChar

StartChar: quotesingle
Encoding: 39 39 8
Width: 276
Flags: W
HStem: 398 288
VStem: 144 124<575.281 658.696>
LayerCount: 3
Fore
SplineSet
168 398 m 1
 127 398 l 1
 144 612 l 1
 146 650 185 686 223 686 c 0
 252 686 268 658 268 637 c 0
 268 620 259 602 250 584 c 2
 168 398 l 1
EndSplineSet
Validated: 1
Layer: 2
SplineSet
168 398 m 1,0,-1
 127 398 l 1,1,-1
 144 612 l 2,2,3
 145 640 145 640 169.5 663 c 128,-1,4
 194 686 194 686 223 686 c 0,5,6
 243 686 243 686 255.5 670.5 c 128,-1,7
 268 655 268 655 268 637 c 0,8,9
 268 620 268 620 250 584 c 2,10,-1
 168 398 l 1,0,-1
EndSplineSet
EndChar

StartChar: parenleft
Encoding: 40 40 9
Width: 332
Flags: W
HStem: 666 20G<250 343.19>
VStem: 28 94<49.6509 313.37>
LayerCount: 3
Fore
SplineSet
327 686 m 1
 344 665 l 1
 264 590 226 543 190 461 c 1
 146 366 122 237 122 110 c 0
 122 -6 138 -67 193 -164 c 1
 170 -179 l 1
 69 -41 28 70 28 207 c 0
 28 450 173 572 327 686 c 1
EndSplineSet
Validated: 1
Layer: 2
SplineSet
327 686 m 1,0,-1
 344 665 l 1,1,2
 282 607 282 607 249 564 c 128,-1,3
 216 521 216 521 190 461 c 0,4,5
 122 314 122 314 122 110 c 0,6,7
 122 23 122 23 137 -34 c 128,-1,8
 152 -91 152 -91 193 -164 c 1,9,-1
 170 -179 l 1,10,11
 94 -75 94 -75 61 14.5 c 128,-1,12
 28 104 28 104 28 207 c 0,13,14
 28 277 28 277 45.5 339.5 c 128,-1,15
 63 402 63 402 88 447 c 128,-1,16
 113 492 113 492 156.5 538.5 c 128,-1,17
 200 585 200 585 236 615 c 128,-1,18
 272 645 272 645 327 686 c 1,0,-1
EndSplineSet
EndChar

StartChar: parenright
Encoding: 41 41 10
Width: 332
Flags: W
HStem: 666 20G<105 153.5>
VStem: 177 94<199.328 449.42>
LayerCount: 3
Fore
SplineSet
-26 -179 m 1
 -44 -160 l 1
 32 -89 63 -51 95 15 c 1
 145 114 177 267 177 398 c 0
 177 513 160 580 105 669 c 1
 127 686 l 1
 180 614 201 580 224 524 c 0
 255 450 271 372 271 299 c 0
 271 202 245 114 192 34 c 1
 141 -47 89 -95 -26 -179 c 1
EndSplineSet
Validated: 1
Layer: 2
SplineSet
-26 -179 m 1,0,-1
 -44 -160 l 1,1,2
 14 -106 14 -106 42.5 -70 c 128,-1,3
 71 -34 71 -34 95 15 c 0,4,5
 132 89 132 89 154.5 194 c 128,-1,6
 177 299 177 299 177 398 c 0,7,8
 177 485 177 485 161.5 544 c 128,-1,9
 146 603 146 603 105 669 c 1,10,-1
 127 686 l 1,11,12
 196 592 196 592 224 524 c 0,13,14
 271 412 271 412 271 299 c 0,15,16
 271 153 271 153 192 34 c 0,17,18
 155 -25 155 -25 109 -69.5 c 128,-1,19
 63 -114 63 -114 -26 -179 c 1,0,-1
EndSplineSet
EndChar

StartChar: asterisk
Encoding: 42 42 11
Width: 499
Flags: W
HStem: 334 105<91.5633 159.721 362.349 430.346> 497 106<77.9046 157.131 362.882 430.3> 666 20G<245.5 276>
VStem: 209 102<260.619 359.251 578.078 677.404> 253 15<394.304 454 482 543.416>
DStem2: 268 482 242 448 0.857493 0.514496<0 62.3737> 275 469 268 454 0.852323 -0.523016<1.87898 63.0679>
LayerCount: 3
Fore
SplineSet
253 482 m 1xe8
 253 494 l 2xe8
 253 527 246 552 227 584 c 0
 214 606 209 618 209 633 c 0
 209 664 230 686 261 686 c 0
 291 686 311 664 311 633 c 0xf0
 311 618 308 606 294 584 c 0
 275 552 268 527 268 494 c 2
 268 482 l 1
 278 488 l 2
 308 505 319 517 344 555 c 1
 365 590 382 603 407 603 c 0
 432 603 456 577 456 548 c 0
 456 533 447 519 431 508 c 1
 416 499 406 497 376 497 c 0
 333 497 319 494 287 475 c 1
 275 469 l 1
 287 461 l 1
 319 442 331 441 376 439 c 1
 406 439 417 437 431 429 c 0
 445 420 456 403 456 388 c 0
 456 359 434 334 406 334 c 0
 381 334 365 346 344 382 c 1
 322 417 312 428 278 448 c 2
 268 454 l 1
 268 442 l 2xe8
 268 410 275 387 294 353 c 0
 306 331 311 318 311 303 c 0
 311 272 291 252 261 252 c 0
 230 252 209 272 209 305 c 0xf0
 209 318 215 331 227 353 c 0
 246 387 253 410 253 442 c 2
 253 454 l 1
 242 448 l 1
 209 428 199 417 177 382 c 1
 157 346 141 334 116 334 c 0
 88 334 64 359 64 388 c 0
 64 403 75 420 91 429 c 1
 103 437 116 439 144 439 c 1
 190 441 201 442 234 461 c 1
 245 469 l 1
 234 475 l 2
 201 494 187 497 144 497 c 0
 116 497 105 499 91 508 c 0
 75 519 64 532 64 549 c 0
 64 577 89 603 114 603 c 0
 138 603 155 590 177 555 c 0
 201 517 212 505 242 488 c 2
 253 482 l 1xe8
EndSplineSet
Validated: 1
Layer: 2
SplineSet
253 482 m 1,0,-1
 253 494 l 2,1,2
 253 540 253 540 227 584 c 0,3,4
 209 614 209 614 209 633 c 0,5,6
 209 656 209 656 223.5 671 c 128,-1,7
 238 686 238 686 261 686 c 0,8,9
 283 686 283 686 297 671 c 128,-1,10
 311 656 311 656 311 633 c 0,11,12
 311 611 311 611 294 584 c 0,13,14
 268 540 268 540 268 494 c 2,15,-1
 268 482 l 1,16,-1
 278 488 l 2,17,18
 300 501 300 501 312.5 513.5 c 128,-1,19
 325 526 325 526 344 555 c 0,20,21
 373 603 373 603 407 603 c 0,22,23
 426 603 426 603 441 586.5 c 128,-1,24
 456 570 456 570 456 548 c 0,25,26
 456 525 456 525 431 508 c 0,27,28
 413 497 413 497 376 497 c 0,29,30
 343 497 343 497 327 493 c 128,-1,31
 311 489 311 489 287 475 c 2,32,-1
 275 469 l 1,33,-1
 287 461 l 2,34,35
 310 447 310 447 325 444 c 128,-1,36
 340 441 340 441 376 439 c 0,37,38
 414 439 414 439 431 429 c 0,39,40
 456 413 456 413 456 388 c 0,41,42
 456 366 456 366 441.5 350 c 128,-1,43
 427 334 427 334 406 334 c 0,44,45
 387 334 387 334 373.5 344.5 c 128,-1,46
 360 355 360 355 344 382 c 0,47,48
 327 409 327 409 315 421 c 128,-1,49
 303 433 303 433 278 448 c 2,50,-1
 268 454 l 1,51,-1
 268 442 l 2,52,53
 268 400 268 400 294 353 c 0,54,55
 311 322 311 322 311 303 c 0,56,57
 311 280 311 280 297.5 266 c 128,-1,58
 284 252 284 252 261 252 c 128,-1,59
 238 252 238 252 223.5 266 c 128,-1,60
 209 280 209 280 209 305 c 0,61,62
 209 320 209 320 227 353 c 0,63,64
 253 400 253 400 253 442 c 2,65,-1
 253 454 l 1,66,-1
 242 448 l 2,67,68
 218 433 218 433 206 421 c 128,-1,69
 194 409 194 409 177 382 c 0,70,71
 162 355 162 355 148.5 344.5 c 128,-1,72
 135 334 135 334 116 334 c 0,73,74
 95 334 95 334 79.5 350 c 128,-1,75
 64 366 64 366 64 388 c 0,76,77
 64 414 64 414 91 429 c 0,78,79
 106 439 106 439 144 439 c 0,80,81
 181 441 181 441 195.5 444 c 128,-1,82
 210 447 210 447 234 461 c 2,83,-1
 245 469 l 1,84,-1
 234 475 l 2,85,86
 210 489 210 489 193.5 493 c 128,-1,87
 177 497 177 497 144 497 c 0,88,89
 108 497 108 497 91 508 c 0,90,91
 64 527 64 527 64 549 c 0,92,93
 64 570 64 570 79.5 586.5 c 128,-1,94
 95 603 95 603 114 603 c 0,95,96
 147 603 147 603 177 555 c 0,97,98
 195 526 195 526 207.5 513.5 c 128,-1,99
 220 501 220 501 242 488 c 2,100,-1
 253 482 l 1,0,-1
EndSplineSet
EndChar

StartChar: plus
Encoding: 43 43 12
Width: 569
Flags: W
HStem: 0 21G<242 330> 209 88<34 242 330 538>
VStem: 242 88<0 209 297 505>
LayerCount: 3
Fore
SplineSet
242 297 m 1
 242 505 l 1
 330 505 l 1
 330 297 l 1
 538 297 l 1
 538 209 l 1
 330 209 l 1
 330 0 l 1
 242 0 l 1
 242 209 l 1
 34 209 l 1
 34 297 l 1
 242 297 l 1
EndSplineSet
Validated: 1
Layer: 2
SplineSet
242 297 m 1,0,-1
 242 505 l 1,1,-1
 330 505 l 1,2,-1
 330 297 l 1,3,-1
 538 297 l 1,4,-1
 538 209 l 1,5,-1
 330 209 l 1,6,-1
 330 0 l 1,7,-1
 242 0 l 1,8,-1
 242 209 l 1,9,-1
 34 209 l 1,10,-1
 34 297 l 1,11,-1
 242 297 l 1,0,-1
EndSplineSet
EndChar

StartChar: comma
Encoding: 44 44 13
Width: 249
Flags: W
HStem: -182 315
VStem: 59 85<-59.5 66>
LayerCount: 3
Fore
SplineSet
59 -41 m 0
 59 0 -12 -3 -12 62 c 0
 -12 103 18 133 59 133 c 0
 110 133 144 95 144 37 c 0
 144 -45 67 -130 -47 -182 c 1
 -60 -158 l 1
 18 -116 59 -78 59 -41 c 0
EndSplineSet
Validated: 1
Layer: 2
SplineSet
59 -41 m 0,0,1
 59 -28 59 -28 48 -17 c 128,-1,2
 37 -6 37 -6 23.5 1.5 c 128,-1,3
 10 9 10 9 -1 24.5 c 128,-1,4
 -12 40 -12 40 -12 62 c 0,5,6
 -12 93 -12 93 8 113 c 128,-1,7
 28 133 28 133 59 133 c 0,8,9
 97 133 97 133 120.5 106.5 c 128,-1,10
 144 80 144 80 144 37 c 0,11,12
 144 -24 144 -24 91.5 -83.5 c 128,-1,13
 39 -143 39 -143 -47 -182 c 1,14,-1
 -60 -158 l 1,15,16
 59 -94 59 -94 59 -41 c 0,0,1
EndSplineSet
EndChar

StartChar: hyphen
Encoding: 45 45 14
Width: 332
Flags: W
HStem: 166 117<26 248>
VStem: 1 270
LayerCount: 3
Fore
SplineSet
271 283 m 1
 248 166 l 1
 1 166 l 1
 26 283 l 1
 271 283 l 1
EndSplineSet
Validated: 1
Layer: 2
SplineSet
271 283 m 1,0,-1
 248 166 l 1,1,-1
 1 166 l 1,2,-1
 26 283 l 1,3,-1
 271 283 l 1,0,-1
EndSplineSet
EndChar

StartChar: period
Encoding: 46 46 15
Width: 249
Flags: W
HStem: -13 148<12.375 116.875>
VStem: -9 148<9.64457 112.355>
LayerCount: 3
Fore
SplineSet
66 135 m 0
 105 135 139 101 139 62 c 0
 139 19 105 -13 64 -13 c 0
 23 -13 -9 19 -9 60 c 0
 -9 103 23 135 66 135 c 0
EndSplineSet
Validated: 1
Layer: 2
SplineSet
66 135 m 0,0,1
 95 135 95 135 117 113 c 128,-1,2
 139 91 139 91 139 62 c 0,3,4
 139 30 139 30 117 8.5 c 128,-1,5
 95 -13 95 -13 64 -13 c 128,-1,6
 33 -13 33 -13 12 8 c 128,-1,7
 -9 29 -9 29 -9 60 c 0,8,9
 -9 92 -9 92 12.5 113.5 c 128,-1,10
 34 135 34 135 66 135 c 0,0,1
EndSplineSet
EndChar

StartChar: slash
Encoding: 47 47 16
Width: 276
Flags: W
HStem: -18 21G<-64 32.0341> 666 20G<245.938 341>
DStem2: -64 -18 23 -18 0.41273 0.910853<35.9075 772.902>
LayerCount: 3
Fore
SplineSet
255 686 m 1
 341 686 l 1
 23 -18 l 1
 -64 -18 l 1
 255 686 l 1
EndSplineSet
Validated: 1
Layer: 2
SplineSet
255 686 m 1,0,-1
 341 686 l 1,1,-1
 23 -18 l 1,2,-1
 -64 -18 l 1,3,-1
 255 686 l 1,0,-1
EndSplineSet
EndChar

StartChar: zero
Encoding: 48 48 17
Width: 499
Flags: W
HStem: -15 30<137.628 209.01> 653 30<292.006 356.626>
VStem: 18 102<61 217.261> 374 104<347 604.5>
LayerCount: 3
Fore
SplineSet
18 207 m 0
 18 419 148 683 327 683 c 0
 417 683 478 587 478 442 c 0
 478 252 353 -15 177 -15 c 0
 81 -15 18 73 18 207 c 0
325 653 m 0
 289 653 261 614 223 510 c 0
 176 379 120 145 120 81 c 0
 120 41 141 15 170 15 c 0
 211 15 240 53 272 149 c 1
 297 218 374 505 374 582 c 0
 374 627 356 653 325 653 c 0
EndSplineSet
Validated: 1
Layer: 2
SplineSet
18 207 m 0,0,1
 18 315 18 315 57 423.5 c 128,-1,2
 96 532 96 532 169 607.5 c 128,-1,3
 242 683 242 683 327 683 c 0,4,5
 395 683 395 683 436.5 617 c 128,-1,6
 478 551 478 551 478 442 c 0,7,8
 478 344 478 344 440.5 240 c 128,-1,9
 403 136 403 136 331.5 60.5 c 128,-1,10
 260 -15 260 -15 177 -15 c 0,11,12
 105 -15 105 -15 61.5 45.5 c 128,-1,13
 18 106 18 106 18 207 c 0,0,1
325 653 m 0,14,15
 298 653 298 653 274.5 620.5 c 128,-1,16
 251 588 251 588 223 510 c 0,17,18
 188 412 188 412 154 270.5 c 128,-1,19
 120 129 120 129 120 81 c 0,20,21
 120 51 120 51 134 33 c 128,-1,22
 148 15 148 15 170 15 c 0,23,24
 201 15 201 15 224.5 46 c 128,-1,25
 248 77 248 77 272 149 c 0,26,27
 295 213 295 213 334.5 371.5 c 128,-1,28
 374 530 374 530 374 582 c 0,29,30
 374 653 374 653 325 653 c 0,14,15
EndSplineSet
EndChar

StartChar: one
Encoding: 49 49 18
Width: 499
Flags: W
HStem: 0 23<4 76.182 268.088 350> 608 23<149 208.112> 663 20G<373.5 413.5>
DStem2: 98.4638 0 231.351 0 0.263873 0.964557<107.737 600.74>
LayerCount: 3
Fore
SplineSet
4 0 m 1
 4 23 l 1
 78 23 107 42 125 97 c 1
 252 557 l 2
 254 566 256 574 256 580 c 0
 256 602 242 612 209 612 c 0
 190 612 174 612 146 608 c 1
 149 631 l 1
 265 647 328 661 419 683 c 1
 265 123 l 2
 253 83 253 78 253 69 c 0
 253 32 271 23 350 23 c 1
 350 0 l 1
 4 0 l 1
EndSplineSet
Validated: 1
Layer: 2
SplineSet
4 0 m 1,0,-1
 4 23 l 1,1,2
 59 23 59 23 85 39 c 128,-1,3
 111 55 111 55 125 97 c 2,4,-1
 252 557 l 2,5,6
 256 575 256 575 256 580 c 0,7,8
 256 612 256 612 209 612 c 0,9,10
 174 612 174 612 146 608 c 1,11,-1
 149 631 l 1,12,13
 277 649 277 649 419 683 c 1,14,-1
 265 123 l 2,15,16
 253 83 253 83 253 69 c 0,17,18
 253 41 253 41 272 32 c 128,-1,19
 291 23 291 23 350 23 c 1,20,-1
 350 0 l 1,21,-1
 4 0 l 1,0,-1
EndSplineSet
EndChar

StartChar: two
Encoding: 50 50 19
Width: 499
Flags: W
HStem: 0 111<105 340> 593 90<191.218 327.5>
VStem: 312 133<427.359 559.114>
LayerCount: 3
Fore
SplineSet
419 190 m 1
 340 0 l 1
 -26 0 l 1
 -26 23 l 1
 63 114 l 1
 250 300 312 393 312 483 c 0
 312 552 277 593 220 593 c 0
 167 593 126 565 86 507 c 1
 64 519 l 1
 92 573 108 598 138 623 c 1
 182 664 229 683 281 683 c 0
 374 683 445 609 445 516 c 0
 445 439 395 357 302 278 c 2
 105 111 l 1
 255 111 l 2
 333 111 356 125 394 190 c 1
 419 190 l 1
EndSplineSet
Validated: 1
Layer: 2
SplineSet
419 190 m 1,0,-1
 340 0 l 1,1,-1
 -26 0 l 1,2,-1
 -26 23 l 1,3,-1
 63 114 l 2,4,5
 203 253 203 253 257.5 334 c 128,-1,6
 312 415 312 415 312 483 c 0,7,8
 312 535 312 535 287.5 564 c 128,-1,9
 263 593 263 593 220 593 c 0,10,11
 145 593 145 593 86 507 c 1,12,-1
 64 519 l 1,13,14
 103 594 103 594 138 623 c 0,15,16
 202 683 202 683 281 683 c 0,17,18
 350 683 350 683 397.5 634.5 c 128,-1,19
 445 586 445 586 445 516 c 0,20,21
 445 399 445 399 302 278 c 2,22,-1
 105 111 l 1,23,-1
 255 111 l 2,24,25
 313 111 313 111 339 126 c 128,-1,26
 365 141 365 141 394 190 c 1,27,-1
 419 190 l 1,0,-1
EndSplineSet
EndChar

StartChar: three
Encoding: 51 51 20
Width: 499
Flags: W
HStem: -13 39<78 224.954> 347 22<132 176.052> 612 71<210.154 343.5>
VStem: 286 123<152.881 279.301> 321 129<471.872 584.575>
LayerCount: 3
Fore
SplineSet
286 189 m 0xf0
 286 262 257 344 127 347 c 1
 132 369 l 1
 261 395 321 445 321 521 c 0
 321 577 287 612 234 612 c 0
 187 612 160 595 119 538 c 1
 97 549 l 1
 160 643 220 683 300 683 c 0
 387 683 450 625 450 546 c 0xe8
 450 486 415 438 343 403 c 2
 331 397 l 1
 388 354 409 316 409 250 c 0
 409 104 278 -13 119 -13 c 0
 37 -13 -15 18 -15 67 c 0
 -15 101 9 123 45 123 c 0
 98 123 125 46 135 41 c 1
 144 34 160 26 174 26 c 0
 236 26 286 100 286 189 c 0xf0
EndSplineSet
Validated: 1
Layer: 2
SplineSet
286 189 m 0,0,1
 286 343 286 343 127 347 c 1,2,-1
 132 369 l 1,3,4
 321 407 321 407 321 521 c 0,5,6
 321 563 321 563 297.5 587.5 c 128,-1,7
 274 612 274 612 234 612 c 0,8,9
 199 612 199 612 174.5 596.5 c 128,-1,10
 150 581 150 581 119 538 c 1,11,-1
 97 549 l 1,12,13
 144 620 144 620 192 651.5 c 128,-1,14
 240 683 240 683 300 683 c 0,15,16
 365 683 365 683 407.5 644 c 128,-1,17
 450 605 450 605 450 546 c 0,18,19
 450 455 450 455 343 403 c 2,20,-1
 331 397 l 1,21,22
 374 365 374 365 391.5 332 c 128,-1,23
 409 299 409 299 409 250 c 0,24,25
 409 141 409 141 324 64 c 128,-1,26
 239 -13 239 -13 119 -13 c 0,27,28
 57 -13 57 -13 21 8.5 c 128,-1,29
 -15 30 -15 30 -15 67 c 0,30,31
 -15 92 -15 92 1.5 107.5 c 128,-1,32
 18 123 18 123 45 123 c 0,33,34
 68 123 68 123 88 104 c 128,-1,35
 108 85 108 85 120.5 63.5 c 128,-1,36
 133 42 133 42 135 41 c 0,37,38
 154 26 154 26 174 26 c 0,39,40
 220 26 220 26 253 74 c 128,-1,41
 286 122 286 122 286 189 c 0,0,1
EndSplineSet
EndChar

StartChar: four
Encoding: 52 52 21
Width: 499
Flags: W
HStem: 0 21G<187 321.503> 149 99<53 229 384 426> 663 20G<419.093 502>
DStem2: 13 255 53 248 0.705449 0.708761<23.2566 419.938> 187 0 316 0 0.263873 0.964557<34.0396 154.802 291.193 547.375>
LayerCount: 3
Fore
SplineSet
453 248 m 1
 426 149 l 1
 357 149 l 1
 316 0 l 1
 187 0 l 1
 229 149 l 1
 -15 149 l 1
 13 255 l 1
 439 683 l 1
 502 683 l 1
 384 248 l 1
 453 248 l 1
53 248 m 1
 256 248 l 1
 335 527 l 1
 53 248 l 1
EndSplineSet
Validated: 1
Layer: 2
SplineSet
453 248 m 1,0,-1
 426 149 l 1,1,-1
 357 149 l 1,2,-1
 316 0 l 1,3,-1
 187 0 l 1,4,-1
 229 149 l 1,5,-1
 -15 149 l 1,6,-1
 13 255 l 1,7,-1
 439 683 l 1,8,-1
 502 683 l 1,9,-1
 384 248 l 1,10,-1
 453 248 l 1,0,-1
53 248 m 1,11,-1
 256 248 l 1,12,-1
 335 527 l 1,13,-1
 53 248 l 1,11,-1
EndSplineSet
EndChar

StartChar: five
Encoding: 53 53 22
Width: 499
Flags: W
HStem: -13 39<80.5 228.868> 560 109<204 451>
VStem: 308 104<151.392 269.148>
DStem2: 73 372 163 483 0.403564 0.914951<137.88 221.649>
LayerCount: 3
Fore
SplineSet
48 123 m 0
 120 123 117 26 173 26 c 0
 243 26 308 104 308 189 c 0
 308 253 271 311 209 341 c 1
 171 362 139 369 73 372 c 1
 204 669 l 1
 486 669 l 1
 451 560 l 1
 196 560 l 1
 163 483 l 1
 255 464 283 456 316 434 c 0
 378 393 412 328 412 250 c 0
 412 103 284 -13 120 -13 c 0
 41 -13 -12 19 -12 66 c 0
 -12 100 15 123 48 123 c 0
EndSplineSet
Validated: 1
Layer: 2
SplineSet
48 123 m 0,0,1
 72 123 72 123 90 108 c 128,-1,2
 108 93 108 93 116.5 74.5 c 128,-1,3
 125 56 125 56 139.5 41 c 128,-1,4
 154 26 154 26 173 26 c 0,5,6
 226 26 226 26 267 75.5 c 128,-1,7
 308 125 308 125 308 189 c 0,8,9
 308 237 308 237 281.5 278 c 128,-1,10
 255 319 255 319 209 341 c 0,11,12
 160 368 160 368 73 372 c 1,13,-1
 204 669 l 1,14,-1
 486 669 l 1,15,-1
 451 560 l 1,16,-1
 196 560 l 1,17,-1
 163 483 l 1,18,19
 234 468 234 468 263 459 c 128,-1,20
 292 450 292 450 316 434 c 0,21,22
 412 371 412 371 412 250 c 0,23,24
 412 140 412 140 327.5 63.5 c 128,-1,25
 243 -13 243 -13 120 -13 c 0,26,27
 61 -13 61 -13 24.5 9 c 128,-1,28
 -12 31 -12 31 -12 66 c 0,29,30
 -12 91 -12 91 5.5 107 c 128,-1,31
 23 123 23 123 48 123 c 0,0,1
EndSplineSet
EndChar

StartChar: six
Encoding: 54 54 23
Width: 499
Flags: W
HStem: -15 33<151.521 230.267> 382 40<232.035 303.434> 655 25<483.466 503.68>
VStem: 23 112<82.3255 221.752> 319 123<187.914 349.249>
LayerCount: 3
Fore
SplineSet
502 680 m 1
 508 655 l 1
 374 603 291 530 231 409 c 1
 261 419 272 422 293 422 c 0
 387 422 442 357 442 250 c 0
 442 103 334 -15 196 -15 c 0
 88 -15 23 64 23 195 c 0
 23 335 98 475 224 568 c 0
 305 628 369 653 502 680 c 1
250 382 m 0
 220 382 209 374 189 319 c 1
 157 237 135 148 135 95 c 0
 135 42 152 18 190 18 c 0
 215 18 237 32 250 56 c 0
 284 119 319 253 319 315 c 0
 319 360 297 382 250 382 c 0
EndSplineSet
Validated: 1
Layer: 2
SplineSet
502 680 m 1,0,-1
 508 655 l 1,1,2
 407 616 407 616 341.5 558 c 128,-1,3
 276 500 276 500 231 409 c 1,4,5
 270 422 270 422 293 422 c 0,6,7
 363 422 363 422 402.5 376.5 c 128,-1,8
 442 331 442 331 442 250 c 0,9,10
 442 139 442 139 370.5 62 c 128,-1,11
 299 -15 299 -15 196 -15 c 0,12,13
 115 -15 115 -15 69 41 c 128,-1,14
 23 97 23 97 23 195 c 0,15,16
 23 300 23 300 76.5 399 c 128,-1,17
 130 498 130 498 224 568 c 0,18,19
 284 613 284 613 342.5 636.5 c 128,-1,20
 401 660 401 660 502 680 c 1,0,-1
250 382 m 0,21,22
 227 382 227 382 215.5 370.5 c 128,-1,23
 204 359 204 359 189 319 c 0,24,25
 135 181 135 181 135 95 c 0,26,27
 135 18 135 18 190 18 c 0,28,29
 229 18 229 18 250 56 c 0,30,31
 275 103 275 103 297 185.5 c 128,-1,32
 319 268 319 268 319 315 c 0,33,34
 319 382 319 382 250 382 c 0,21,22
EndSplineSet
EndChar

StartChar: seven
Encoding: 55 55 24
Width: 499
Flags: W
HStem: 0 21G<53 155.36> 557 112<144 384>
DStem2: 53 0 144 0 0.493898 0.86952<44.9447 647.803>
LayerCount: 3
Fore
SplineSet
83 479 m 1
 57 479 l 1
 144 669 l 1
 524 669 l 1
 144 0 l 1
 53 0 l 1
 384 557 l 1
 250 557 l 2
 146 557 120 543 83 479 c 1
EndSplineSet
Validated: 1
Layer: 2
SplineSet
83 479 m 1,0,-1
 57 479 l 1,1,-1
 144 669 l 1,2,-1
 524 669 l 1,3,-1
 144 0 l 1,4,-1
 53 0 l 1,5,-1
 384 557 l 1,6,-1
 250 557 l 2,7,8
 173 557 173 557 142 542.5 c 128,-1,9
 111 528 111 528 83 479 c 1,0,-1
EndSplineSet
EndChar

StartChar: eight
Encoding: 56 56 25
Width: 499
Flags: W
HStem: -13 31<146.103 249.736> 650 33<254.963 346.635>
VStem: 3 97<70.4986 231.304> 108 112<482.76 586.248> 306 113<101.256 222.225> 382 94<465.077 611.109>
LayerCount: 3
Fore
SplineSet
300 683 m 0xf8
 379 683 476 638 476 541 c 0xf4
 476 469 437 425 333 381 c 1
 333 376 l 1
 394 309 419 256 419 193 c 0
 419 75 325 -13 196 -13 c 0
 82 -13 3 54 3 152 c 0
 3 237 59 296 183 340 c 1
 183 346 l 1
 127 404 108 441 108 499 c 0
 108 605 190 683 300 683 c 0xf8
209 321 m 1
 113 261 100 187 100 141 c 0
 100 64 138 18 199 18 c 0
 261 18 306 72 306 146 c 0xf8
 306 199 294 220 209 321 c 1
311 403 m 1
 368 463 382 494 382 543 c 0xf4
 382 608 352 650 302 650 c 0
 253 650 220 609 220 554 c 0
 220 504 242 469 311 403 c 1
EndSplineSet
Validated: 1
Layer: 2
SplineSet
300 683 m 0,0,1
 367 683 367 683 421.5 645.5 c 128,-1,2
 476 608 476 608 476 541 c 0,3,4
 476 487 476 487 443.5 450.5 c 128,-1,5
 411 414 411 414 333 381 c 1,6,-1
 333 376 l 1,7,8
 419 282 419 282 419 193 c 128,-1,9
 419 104 419 104 356 45.5 c 128,-1,10
 293 -13 293 -13 196 -13 c 0,11,12
 110 -13 110 -13 56.5 33 c 128,-1,13
 3 79 3 79 3 152 c 0,14,15
 3 216 3 216 46.5 261.5 c 128,-1,16
 90 307 90 307 183 340 c 1,17,-1
 183 346 l 1,18,19
 141 390 141 390 124.5 423 c 128,-1,20
 108 456 108 456 108 499 c 0,21,22
 108 578 108 578 162.5 630.5 c 128,-1,23
 217 683 217 683 300 683 c 0,0,1
209 321 m 1,24,25
 100 253 100 253 100 141 c 0,26,27
 100 83 100 83 126.5 50.5 c 128,-1,28
 153 18 153 18 199 18 c 128,-1,29
 245 18 245 18 275.5 54 c 128,-1,30
 306 90 306 90 306 146 c 0,31,32
 306 186 306 186 289.5 215.5 c 128,-1,33
 273 245 273 245 209 321 c 1,24,25
311 403 m 1,34,35
 353 447 353 447 367.5 476.5 c 128,-1,36
 382 506 382 506 382 543 c 0,37,38
 382 592 382 592 360.5 621 c 128,-1,39
 339 650 339 650 302 650 c 0,40,41
 266 650 266 650 243 623 c 128,-1,42
 220 596 220 596 220 554 c 0,43,44
 220 517 220 517 239.5 485 c 128,-1,45
 259 453 259 453 311 403 c 1,34,35
EndSplineSet
EndChar

StartChar: nine
Encoding: 57 57 26
Width: 499
Flags: W
HStem: -10 25<-7.68 18.5015> 245 44<190.451 263.84> 650 33<272.612 348.505>
VStem: 53 124<320.587 489.253> 363 112<441.542 583.069>
LayerCount: 3
Fore
SplineSet
299 683 m 0
 440 683 475 558 475 476 c 0
 475 334 398 190 272 100 c 1
 193 40 129 15 -6 -10 c 1
 -12 15 l 1
 110 53 204 135 265 259 c 1
 242 248 226 245 204 245 c 0
 114 245 53 312 53 412 c 0
 53 564 161 683 299 683 c 0
313 650 m 0
 204 650 177 380 177 352 c 0
 177 311 201 289 243 289 c 0
 286 289 293 297 319 376 c 0
 320 378 363 477 363 582 c 0
 363 628 347 650 313 650 c 0
EndSplineSet
Validated: 1
Layer: 2
SplineSet
299 683 m 0,0,1
 339 683 339 683 371 669 c 128,-1,2
 403 655 403 655 422 634 c 128,-1,3
 441 613 441 613 453.5 584.5 c 128,-1,4
 466 556 466 556 470.5 529.5 c 128,-1,5
 475 503 475 503 475 476 c 0,6,7
 475 369 475 369 420.5 268 c 128,-1,8
 366 167 366 167 272 100 c 0,9,10
 213 55 213 55 154.5 32 c 128,-1,11
 96 9 96 9 -6 -10 c 1,12,-1
 -12 15 l 1,13,14
 173 73 173 73 265 259 c 1,15,16
 236 245 236 245 204 245 c 0,17,18
 136 245 136 245 94.5 291 c 128,-1,19
 53 337 53 337 53 412 c 0,20,21
 53 526 53 526 124.5 604.5 c 128,-1,22
 196 683 196 683 299 683 c 0,0,1
313 650 m 0,23,24
 275 650 275 650 246 608.5 c 128,-1,25
 217 567 217 567 203.5 510.5 c 128,-1,26
 190 454 190 454 183.5 411.5 c 128,-1,27
 177 369 177 369 177 352 c 0,28,29
 177 289 177 289 243 289 c 0,30,31
 275 289 275 289 287.5 303 c 128,-1,32
 300 317 300 317 319 376 c 0,33,34
 323 383 323 383 331.5 406.5 c 128,-1,35
 340 430 340 430 351.5 482.5 c 128,-1,36
 363 535 363 535 363 582 c 0,37,38
 363 650 363 650 313 650 c 0,23,24
EndSplineSet
EndChar

StartChar: colon
Encoding: 58 58 27
Width: 332
Flags: W
HStem: -13 148<44.75 149.375> 311 147<137.625 242.25>
VStem: 23 148<8.375 112.63> 116 148<332.25 436.402>
LayerCount: 3
Fore
SplineSet
98 135 m 0xe0
 138 135 171 101 171 62 c 0
 171 19 138 -13 97 -13 c 0
 56 -13 23 19 23 62 c 0
 23 103 56 135 98 135 c 0xe0
190 458 m 0
 231 458 264 425 264 385 c 0
 264 343 231 311 189 311 c 0
 148 311 116 343 116 385 c 0xd0
 116 428 149 458 190 458 c 0
EndSplineSet
Validated: 1
Layer: 2
SplineSet
98 135 m 0,0,1
 128 135 128 135 149.5 113 c 128,-1,2
 171 91 171 91 171 62 c 0,3,4
 171 30 171 30 149.5 8.5 c 128,-1,5
 128 -13 128 -13 97 -13 c 128,-1,6
 66 -13 66 -13 44.5 8.5 c 128,-1,7
 23 30 23 30 23 62 c 0,8,9
 23 93 23 93 44.5 114 c 128,-1,10
 66 135 66 135 98 135 c 0,0,1
190 458 m 128,-1,12
 221 458 221 458 242.5 436.5 c 128,-1,13
 264 415 264 415 264 385 c 0,14,15
 264 354 264 354 242.5 332.5 c 128,-1,16
 221 311 221 311 189 311 c 0,17,18
 158 311 158 311 137 332.5 c 128,-1,19
 116 354 116 354 116 385 c 0,20,21
 116 417 116 417 137.5 437.5 c 128,-1,11
 159 458 159 458 190 458 c 128,-1,12
EndSplineSet
EndChar

StartChar: semicolon
Encoding: 59 59 28
Width: 332
Flags: W
HStem: 311 147<137.625 242.25>
VStem: 92 87<-60 64.5> 116 148<332.25 436.402>
LayerCount: 3
Fore
SplineSet
92 -42 m 0xc0
 92 -1 23 -1 23 60 c 0
 23 103 53 133 94 133 c 0
 145 133 179 94 179 35 c 0
 179 -45 104 -132 -12 -183 c 1
 -25 -160 l 1
 53 -117 92 -78 92 -42 c 0xc0
190 458 m 0
 231 458 264 425 264 385 c 0
 264 343 231 311 189 311 c 0
 148 311 116 343 116 385 c 0xa0
 116 428 149 458 190 458 c 0
EndSplineSet
Validated: 1
Layer: 2
SplineSet
92 -42 m 0,0,1
 92 -25 92 -25 75 -12.5 c 128,-1,2
 58 0 58 0 40.5 17 c 128,-1,3
 23 34 23 34 23 60 c 0,4,5
 23 92 23 92 43 112.5 c 128,-1,6
 63 133 63 133 94 133 c 0,7,8
 132 133 132 133 155.5 106 c 128,-1,9
 179 79 179 79 179 35 c 0,10,11
 179 -25 179 -25 127 -85 c 128,-1,12
 75 -145 75 -145 -12 -183 c 1,13,-1
 -25 -160 l 1,14,15
 92 -96 92 -96 92 -42 c 0,0,1
190 458 m 128,-1,17
 221 458 221 458 242.5 436.5 c 128,-1,18
 264 415 264 415 264 385 c 0,19,20
 264 354 264 354 242.5 332.5 c 128,-1,21
 221 311 221 311 189 311 c 0,22,23
 158 311 158 311 137 332.5 c 128,-1,24
 116 354 116 354 116 385 c 0,25,26
 116 417 116 417 137.5 437.5 c 128,-1,16
 159 458 159 458 190 458 c 128,-1,17
EndSplineSet
EndChar

StartChar: less
Encoding: 60 60 29
Width: 569
Flags: W
HStem: -12 21G<493.439 539>
DStem2: 31 294 154 253 0.91433 0.404969<95.8589 516.316> 154 253 31 211 0.91566 -0.401953<0 420.861>
LayerCount: 3
Fore
SplineSet
539 -12 m 1
 31 211 l 1
 31 294 l 1
 539 519 l 1
 539 422 l 1
 154 253 l 1
 539 83 l 1
 539 -12 l 1
EndSplineSet
Validated: 1
Layer: 2
SplineSet
539 -12 m 1,0,-1
 31 211 l 1,1,-1
 31 294 l 1,2,-1
 539 519 l 1,3,-1
 539 422 l 1,4,-1
 154 253 l 1,5,-1
 539 83 l 1,6,-1
 539 -12 l 1,0,-1
EndSplineSet
EndChar

StartChar: equal
Encoding: 61 61 30
Width: 569
Flags: W
HStem: 107 88<34 538> 311 87<34 538>
LayerCount: 3
Fore
SplineSet
538 398 m 1
 538 311 l 1
 34 311 l 1
 34 398 l 1
 538 398 l 1
538 195 m 1
 538 107 l 1
 34 107 l 1
 34 195 l 1
 538 195 l 1
EndSplineSet
Validated: 1
Layer: 2
SplineSet
538 398 m 1,0,-1
 538 311 l 1,1,-1
 34 311 l 1,2,-1
 34 398 l 1,3,-1
 538 398 l 1,0,-1
538 195 m 1,4,-1
 538 107 l 1,5,-1
 34 107 l 1,6,-1
 34 195 l 1,7,-1
 538 195 l 1,4,-1
EndSplineSet
EndChar

StartChar: greater
Encoding: 62 62 31
Width: 569
Flags: W
HStem: -12 21G<31 76.5605>
DStem2: 31 519 31 422 0.91433 -0.404969<39.282 459.739> 31 83 31 -12 0.91566 0.401953<0 420.861>
LayerCount: 3
Fore
SplineSet
31 -12 m 1
 31 83 l 1
 416 253 l 1
 31 422 l 1
 31 519 l 1
 539 294 l 1
 539 211 l 1
 31 -12 l 1
EndSplineSet
Validated: 1
Layer: 2
SplineSet
31 -12 m 1,0,-1
 31 83 l 1,1,-1
 416 253 l 1,2,-1
 31 422 l 1,3,-1
 31 519 l 1,4,-1
 539 294 l 1,5,-1
 539 211 l 1,6,-1
 31 -12 l 1,0,-1
EndSplineSet
EndChar

StartChar: question
Encoding: 63 63 32
Width: 499
Flags: W
HStem: -13 148<100.375 204.875> 653 31<226.977 318.008>
VStem: 79 148<9.64457 112.63> 119 93<529.501 619.241> 167 29<213.31 240.109> 343 127<488.971 613.758>
LayerCount: 3
Fore
SplineSet
212 615 m 0xd4
 212 596 242 583 242 546 c 0
 242 516 214 488 180 488 c 0
 146 488 119 517 119 555 c 0xd4
 119 630 193 684 294 684 c 0
 398 684 470 625 470 539 c 0
 470 478 434 428 344 369 c 1
 278 327 l 1
 240 300 224 278 196 208 c 1
 167 215 l 1xcc
 171 270 192 316 237 374 c 1
 278 425 l 1
 324 480 343 526 343 573 c 0
 343 623 316 653 274 653 c 0
 242 653 212 634 212 615 c 0xd4
154 135 m 0
 193 135 227 101 227 62 c 0
 227 19 193 -13 152 -13 c 0
 111 -13 79 19 79 62 c 0xe4
 79 103 111 135 154 135 c 0
EndSplineSet
Validated: 1
Layer: 2
SplineSet
212 615 m 0,0,1
 212 608 212 608 227 587.5 c 128,-1,2
 242 567 242 567 242 546 c 0,3,4
 242 523 242 523 223.5 505.5 c 128,-1,5
 205 488 205 488 180 488 c 0,6,7
 154 488 154 488 136.5 507.5 c 128,-1,8
 119 527 119 527 119 555 c 0,9,10
 119 611 119 611 168.5 647.5 c 128,-1,11
 218 684 218 684 294 684 c 0,12,13
 372 684 372 684 421 643.5 c 128,-1,14
 470 603 470 603 470 539 c 0,15,16
 470 493 470 493 440.5 453 c 128,-1,17
 411 413 411 413 344 369 c 2,18,-1
 278 327 l 2,19,20
 249 307 249 307 233 283.5 c 128,-1,21
 217 260 217 260 196 208 c 1,22,-1
 167 215 l 1,23,24
 173 291 173 291 237 374 c 2,25,-1
 278 425 l 2,26,27
 343 503 343 503 343 573 c 0,28,29
 343 610 343 610 324.5 631.5 c 128,-1,30
 306 653 306 653 274 653 c 0,31,32
 250 653 250 653 231 641 c 128,-1,33
 212 629 212 629 212 615 c 0,0,1
154 135 m 0,34,35
 183 135 183 135 205 113 c 128,-1,36
 227 91 227 91 227 62 c 0,37,38
 227 30 227 30 205 8.5 c 128,-1,39
 183 -13 183 -13 152 -13 c 128,-1,40
 121 -13 121 -13 100 8.5 c 128,-1,41
 79 30 79 30 79 62 c 0,42,43
 79 93 79 93 100.5 114 c 128,-1,44
 122 135 122 135 154 135 c 0,34,35
EndSplineSet
EndChar

StartChar: at
Encoding: 64 64 33
Width: 832
Flags: W
HStem: -18 46<333.002 568.903> 142 37<566.587 646.414> 144 46<339 434.553> 467 49<430.72 519.697> 646 40<335.155 543.513>
VStem: 63 91<213.078 444.133> 272 77<206.172 362.06> 724 46<276.916 476.433>
LayerCount: 3
Fore
SplineSet
272 256 m 0xbf
 272 360 345 516 473 516 c 0
 508 516 523 505 545 463 c 1
 557 501 l 1
 627 501 l 1
 562 245 l 2
 560 237 560 233 560 224 c 0
 560 195 574 179 598 179 c 0
 674 179 724 300 724 379 c 0
 724 524 595 646 437 646 c 0
 272 646 154 511 154 322 c 0
 154 151 277 28 450 28 c 0
 519 28 568 40 647 76 c 1
 661 41 l 1
 562 -4 511 -18 439 -18 c 0
 229 -18 63 133 63 328 c 0
 63 527 229 686 437 686 c 0
 624 686 770 555 770 387 c 0
 770 255 683 142 583 142 c 0xdf
 535 142 492 176 491 217 c 1
 456 171 409 144 365 144 c 0
 313 144 272 193 272 256 c 0xbf
527 411 m 0
 527 458 500 467 482 467 c 0
 437 467 349 399 349 275 c 0
 349 223 371 190 407 190 c 0xbf
 482 190 527 336 527 411 c 0
EndSplineSet
Validated: 1
Layer: 2
SplineSet
272 256 m 0,0,1
 272 311 272 311 294.5 369.5 c 128,-1,2
 317 428 317 428 365 472 c 128,-1,3
 413 516 413 516 473 516 c 0,4,5
 499 516 499 516 514 505 c 128,-1,6
 529 494 529 494 545 463 c 1,7,-1
 557 501 l 1,8,-1
 627 501 l 1,9,-1
 562 245 l 2,10,11
 560 237 560 237 560 224 c 0,12,13
 560 179 560 179 598 179 c 0,14,15
 651 179 651 179 687.5 245.5 c 128,-1,16
 724 312 724 312 724 379 c 0,17,18
 724 488 724 488 639.5 567 c 128,-1,19
 555 646 555 646 437 646 c 0,20,21
 313 646 313 646 233.5 555 c 128,-1,22
 154 464 154 464 154 322 c 0,23,24
 154 194 154 194 237 111 c 128,-1,25
 320 28 320 28 450 28 c 0,26,27
 542 28 542 28 647 76 c 1,28,-1
 661 41 l 1,29,30
 586 7 586 7 539.5 -5.5 c 128,-1,31
 493 -18 493 -18 439 -18 c 0,32,33
 281 -18 281 -18 172 82 c 128,-1,34
 63 182 63 182 63 328 c 0,35,36
 63 477 63 477 172 581.5 c 128,-1,37
 281 686 281 686 437 686 c 0,38,39
 577 686 577 686 673.5 599.5 c 128,-1,40
 770 513 770 513 770 387 c 0,41,42
 770 288 770 288 714 215 c 128,-1,43
 658 142 658 142 583 142 c 0,44,45
 547 142 547 142 519.5 164 c 128,-1,46
 492 186 492 186 491 217 c 1,47,48
 435 144 435 144 365 144 c 0,49,50
 326 144 326 144 299 176.5 c 128,-1,51
 272 209 272 209 272 256 c 0,0,1
527 411 m 0,52,53
 527 467 527 467 482 467 c 0,54,55
 441 467 441 467 395 413 c 128,-1,56
 349 359 349 359 349 275 c 0,57,58
 349 236 349 236 364.5 213 c 128,-1,59
 380 190 380 190 407 190 c 0,60,61
 442 190 442 190 471 230.5 c 128,-1,62
 500 271 500 271 513.5 320.5 c 128,-1,63
 527 370 527 370 527 411 c 0,52,53
EndSplineSet
EndChar

StartChar: A
Encoding: 65 65 34
Width: 666
Flags: W
HStem: 0 25<-67 -34.5603 73.9436 129 289 346.39 535.218 593> 208 40<161 346> 663 20G<375.347 416.322>
DStem2: 16 95 79 105 0.534642 0.845079<-3.39618 160.72 206.82 206.82> 413 683 309 491 0.16384 -0.986487<172.366 418.145 458.751 583.354>
LayerCount: 3
Fore
SplineSet
368 83 m 0
 368 108 361 145 353 208 c 1
 138 208 l 1
 79 105 l 2
 69 89 64 73 64 60 c 0
 64 37 83 25 129 25 c 1
 129 0 l 1
 -67 0 l 1
 -67 25 l 1
 -31 34 -16 45 16 95 c 2
 388 683 l 1
 413 683 l 1
 508 111 l 2
 521 35 527 29 593 25 c 1
 593 0 l 1
 289 0 l 1
 289 25 l 1
 353 31 368 42 368 83 c 0
161 248 m 1
 346 248 l 1
 309 491 l 1
 161 248 l 1
EndSplineSet
Validated: 1
Layer: 2
SplineSet
368 83 m 0,0,1
 368 90 368 90 353 208 c 1,2,-1
 138 208 l 1,3,-1
 79 105 l 2,4,5
 64 81 64 81 64 60 c 0,6,7
 64 25 64 25 129 25 c 1,8,-1
 129 0 l 1,9,-1
 -67 0 l 1,10,-1
 -67 25 l 1,11,12
 -39 32 -39 32 -23.5 45 c 128,-1,13
 -8 58 -8 58 16 95 c 2,14,-1
 388 683 l 1,15,-1
 413 683 l 1,16,-1
 508 111 l 2,17,18
 518 54 518 54 530.5 41 c 128,-1,19
 543 28 543 28 593 25 c 1,20,-1
 593 0 l 1,21,-1
 289 0 l 1,22,-1
 289 25 l 1,23,24
 337 30 337 30 352.5 41 c 128,-1,25
 368 52 368 52 368 83 c 0,0,1
161 248 m 1,26,-1
 346 248 l 1,27,-1
 309 491 l 1,28,-1
 161 248 l 1,26,-1
EndSplineSet
EndChar

StartChar: B
Encoding: 66 66 35
Width: 666
Flags: W
HStem: 0 32<203.024 318.588> 0 25<-23 19.3> 338 30<277 366.566> 637 32<349.997 442.643> 645 24<116 171.759>
VStem: 419 154<128.771 285.895> 478 146<447.248 597.037>
DStem2: 29.4638 0 178.285 0 0.263873 0.964557<106.567 394.309 420.275 623.264>
LayerCount: 3
Fore
SplineSet
189 603 m 0x64
 189 641 147 642 116 645 c 1
 116 669 l 1x6c
 388 669 l 2
 543 669 624 620 624 523 c 0x32
 624 409 514 375 435 354 c 1
 536 322 573 284 573 207 c 0
 573 78 460 0 277 0 c 2xb4
 -23 0 l 1
 -23 25 l 1
 23 31 40 45 56 97 c 1
 179 546 l 2
 185 571 189 593 189 603 c 0x64
255 32 m 0xa4
 388 32 419 168 419 229 c 0
 419 267 407 294 385 313 c 0
 365 330 335 335 270 338 c 1
 204 94 l 2
 201 81 198 72 198 64 c 0
 198 42 217 32 255 32 c 0xa4
277 368 m 1
 355 371 478 375 478 536 c 0
 478 603 448 637 390 637 c 0x32
 357 637 349 628 338 593 c 1
 277 368 l 1
EndSplineSet
Validated: 1
Layer: 2
SplineSet
189 603 m 0,0,1
 189 616 189 616 183.5 624.5 c 128,-1,2
 178 633 178 633 162.5 637.5 c 128,-1,3
 147 642 147 642 142 642.5 c 128,-1,4
 137 643 137 643 116 645 c 1,5,-1
 116 669 l 1,6,-1
 388 669 l 2,7,8
 624 669 624 669 624 523 c 0,9,10
 624 483 624 483 607 452.5 c 128,-1,11
 590 422 590 422 557.5 403 c 128,-1,12
 525 384 525 384 499.5 374 c 128,-1,13
 474 364 474 364 435 354 c 1,14,15
 511 330 511 330 542 297 c 128,-1,16
 573 264 573 264 573 207 c 0,17,18
 573 110 573 110 494 55 c 128,-1,19
 415 0 415 0 277 0 c 2,20,-1
 -23 0 l 1,21,-1
 -23 25 l 1,22,23
 12 30 12 30 28 44 c 128,-1,24
 44 58 44 58 56 97 c 2,25,-1
 179 546 l 2,26,27
 189 588 189 588 189 603 c 0,0,1
255 32 m 0,28,29
 302 32 302 32 336.5 53.5 c 128,-1,30
 371 75 371 75 387.5 108.5 c 128,-1,31
 404 142 404 142 411.5 172 c 128,-1,32
 419 202 419 202 419 229 c 0,33,34
 419 284 419 284 385 313 c 0,35,36
 361 334 361 334 270 338 c 1,37,-1
 204 94 l 2,38,39
 198 68 198 68 198 64 c 0,40,41
 198 32 198 32 255 32 c 0,28,29
277 368 m 1,42,43
 310 369 310 369 329 371 c 128,-1,44
 348 373 348 373 380.5 382.5 c 128,-1,45
 413 392 413 392 431 408 c 128,-1,46
 449 424 449 424 463.5 457 c 128,-1,47
 478 490 478 490 478 536 c 0,48,49
 478 637 478 637 390 637 c 0,50,51
 366 637 366 637 356 628.5 c 128,-1,52
 346 620 346 620 338 593 c 2,53,-1
 277 368 l 1,42,43
EndSplineSet
EndChar

StartChar: C
Encoding: 67 67 36
Width: 666
Flags: W
HStem: -18 53<258.222 421.029> 451 21G<595 629.426> 650 36<396.04 532.886>
VStem: 32 154<133.705 353.966> 595 30<455.6 482.635> 647 30<666.27 686>
LayerCount: 3
Fore
SplineSet
439 686 m 0
 520 686 584 656 609 656 c 0
 624 656 633 664 647 686 c 1
 677 686 l 1
 625 451 l 1
 595 457 l 1
 596 470 598 479 598 492 c 0
 598 590 546 650 466 650 c 0
 306 650 186 395 186 209 c 0
 186 100 242 35 335 35 c 0
 446 35 503 101 546 152 c 1
 576 130 l 1
 543 86 527 69 498 47 c 0
 441 4 375 -18 305 -18 c 0
 141 -18 32 86 32 242 c 0
 32 483 217 686 439 686 c 0
EndSplineSet
Validated: 1
Layer: 2
SplineSet
439 686 m 0,0,1
 486 686 486 686 545 671 c 128,-1,2
 604 656 604 656 609 656 c 0,3,4
 628 656 628 656 647 686 c 1,5,-1
 677 686 l 1,6,-1
 625 451 l 1,7,-1
 595 457 l 2,8,9
 595 460 595 460 596.5 472 c 128,-1,10
 598 484 598 484 598 492 c 0,11,12
 598 565 598 565 562 607.5 c 128,-1,13
 526 650 526 650 466 650 c 0,14,15
 390 650 390 650 323.5 578 c 128,-1,16
 257 506 257 506 221.5 405 c 128,-1,17
 186 304 186 304 186 209 c 0,18,19
 186 127 186 127 225.5 81 c 128,-1,20
 265 35 265 35 335 35 c 0,21,22
 374 35 374 35 407.5 45 c 128,-1,23
 441 55 441 55 467.5 75.5 c 128,-1,24
 494 96 494 96 509 111 c 128,-1,25
 524 126 524 126 546 152 c 1,26,-1
 576 130 l 1,27,28
 535 75 535 75 498 47 c 0,29,30
 412 -18 412 -18 305 -18 c 0,31,32
 182 -18 182 -18 107 53.5 c 128,-1,33
 32 125 32 125 32 242 c 0,34,35
 32 423 32 423 152.5 554.5 c 128,-1,36
 273 686 273 686 439 686 c 0,0,1
EndSplineSet
EndChar

StartChar: D
Encoding: 68 68 37
Width: 720
Flags: W
HStem: 0 34<181.387 321.209> 0 25<-45 -1.55069> 639 30<94 160.814 330.094 451.24>
VStem: 538 148<291.67 510.015>
DStem2: 7.4638 0 155.625 0 0.263873 0.964557<109.996 622.304>
LayerCount: 3
Fore
SplineSet
167 602 m 0x70
 167 637 144 634 94 645 c 1
 94 669 l 1
 384 669 l 2
 573 669 686 567 686 395 c 0
 686 168 495 0 240 0 c 2xb0
 -45 0 l 1
 -45 25 l 1
 3 31 19 45 34 97 c 2
 155 543 l 2
 163 576 167 592 167 602 c 0x70
318 601 m 2
 189 122 l 2
 182 96 177 81 177 67 c 0
 177 45 193 34 231 34 c 0
 451 34 538 261 538 457 c 0
 538 579 483 639 374 639 c 0
 341 639 325 627 318 601 c 2
EndSplineSet
Validated: 1
Layer: 2
SplineSet
167 602 m 0,0,1
 167 611 167 611 164.5 617 c 128,-1,2
 162 623 162 623 159.5 626.5 c 128,-1,3
 157 630 157 630 149 632.5 c 128,-1,4
 141 635 141 635 135.5 636.5 c 128,-1,5
 130 638 130 638 116.5 640.5 c 128,-1,6
 103 643 103 643 94 645 c 1,7,-1
 94 669 l 1,8,-1
 384 669 l 2,9,10
 526 669 526 669 606 596.5 c 128,-1,11
 686 524 686 524 686 395 c 0,12,13
 686 225 686 225 558.5 112.5 c 128,-1,14
 431 0 431 0 240 0 c 2,15,-1
 -45 0 l 1,16,-1
 -45 25 l 1,17,18
 -9 30 -9 30 7 44 c 128,-1,19
 23 58 23 58 34 97 c 2,20,-1
 155 543 l 2,21,22
 167 592 167 592 167 602 c 0,0,1
318 601 m 2,23,-1
 189 122 l 2,24,25
 177 77 177 77 177 67 c 0,26,27
 177 34 177 34 231 34 c 0,28,29
 310 34 310 34 371 72 c 128,-1,30
 432 110 432 110 467.5 172.5 c 128,-1,31
 503 235 503 235 520.5 307.5 c 128,-1,32
 538 380 538 380 538 457 c 0,33,34
 538 639 538 639 374 639 c 0,35,36
 328 639 328 639 318 601 c 2,23,-1
EndSplineSet
EndChar

StartChar: E
Encoding: 69 69 38
Width: 666
Flags: W
HStem: 0 32<200.286 372.899> 0 25<-26 15.8696> 338 33<275 370.755> 637 32<348.252 507.581> 645 24<113 169.727>
VStem: 406 28<202.75 224.824> 480 28<449.602 473> 561 25<179.129 194.68> 583 26<483 509.227>
DStem2: 26.4638 0 173.71 0 0.263873 0.964557<108.722 394.054 423.433 625.891>
LayerCount: 3
Fore
SplineSet
256 32 m 0xb680
 464 32 527 144 561 199 c 1
 586 193 l 1
 527 0 l 1
 -26 0 l 1
 -26 25 l 1
 25 34 37 44 53 97 c 1
 176 546 l 2
 182 568 186 590 186 606 c 0
 186 639 161 635 113 645 c 1
 113 669 l 1
 653 669 l 1x6f
 609 479 l 1
 583 483 l 1
 583 562 578 637 398 637 c 0
 357 637 346 628 335 593 c 1
 275 371 l 1
 297 371 l 2
 410 371 437 388 480 476 c 1
 508 472 l 1
 434 199 l 1
 406 204 l 1
 409 223 410 234 410 248 c 0
 410 316 379 335 267 338 c 1
 209 129 l 1
 203 91 195 79 195 66 c 0
 195 42 212 32 256 32 c 0xb680
EndSplineSet
Validated: 1
Layer: 2
SplineSet
256 32 m 0,0,1
 286 32 286 32 313.5 35 c 128,-1,2
 341 38 341 38 364.5 44.5 c 128,-1,3
 388 51 388 51 407 57 c 128,-1,4
 426 63 426 63 444 75.5 c 128,-1,5
 462 88 462 88 473.5 94.5 c 128,-1,6
 485 101 485 101 499 117 c 128,-1,7
 513 133 513 133 519 138.5 c 128,-1,8
 525 144 525 144 536.5 161 c 128,-1,9
 548 178 548 178 549.5 180.5 c 128,-1,10
 551 183 551 183 561 199 c 1,11,-1
 586 193 l 1,12,-1
 527 0 l 1,13,-1
 -26 0 l 1,14,-1
 -26 25 l 1,15,16
 13 32 13 32 27 45 c 128,-1,17
 41 58 41 58 53 97 c 2,18,-1
 176 546 l 2,19,20
 186 583 186 583 186 606 c 0,21,22
 186 616 186 616 183.5 622 c 128,-1,23
 181 628 181 628 173.5 631.5 c 128,-1,24
 166 635 166 635 160 636.5 c 128,-1,25
 154 638 154 638 138.5 640.5 c 128,-1,26
 123 643 123 643 113 645 c 1,27,-1
 113 669 l 1,28,-1
 653 669 l 1,29,-1
 609 479 l 1,30,-1
 583 483 l 1,31,32
 583 508 583 508 581.5 522.5 c 128,-1,33
 580 537 580 537 575 557.5 c 128,-1,34
 570 578 570 578 558 590 c 128,-1,35
 546 602 546 602 526 614 c 128,-1,36
 506 626 506 626 474 631.5 c 128,-1,37
 442 637 442 637 398 637 c 0,38,39
 368 637 368 637 355.5 628.5 c 128,-1,40
 343 620 343 620 335 593 c 2,41,-1
 275 371 l 1,42,-1
 297 371 l 2,43,44
 381 371 381 371 414.5 390.5 c 128,-1,45
 448 410 448 410 480 476 c 1,46,-1
 508 472 l 1,47,-1
 434 199 l 1,48,-1
 406 204 l 1,49,50
 410 229 410 229 410 248 c 0,51,52
 410 299 410 299 380.5 317.5 c 128,-1,53
 351 336 351 336 267 338 c 1,54,-1
 209 129 l 2,55,56
 206 109 206 109 200.5 90.5 c 128,-1,57
 195 72 195 72 195 66 c 0,58,59
 195 32 195 32 256 32 c 0,0,1
EndSplineSet
EndChar

StartChar: F
Encoding: 70 70 39
Width: 666
Flags: W
HStem: 0 25<-13 30.0491 225.625 283> 338 33<289 379.722> 637 32<363.306 518.609> 645 24<127 183.517>
VStem: 413 28<202.75 224.48> 486 30<448.041 472.933> 590 27<483 509.227>
DStem2: 40.4638 0 188.247 0 0.263873 0.964557<112.822 393.555 423.433 626.242>
LayerCount: 3
Fore
SplineSet
590 483 m 1xde
 590 553 587 637 413 637 c 0xee
 374 637 360 628 350 593 c 2
 289 371 l 1
 420 371 439 382 486 476 c 1
 516 472 l 1
 441 199 l 1
 413 204 l 1
 416 223 417 234 417 248 c 0
 417 316 387 335 280 338 c 1
 226 138 l 2
 222 124 211 97 211 69 c 0
 211 38 226 29 283 25 c 1
 283 0 l 1
 -13 0 l 1
 -13 25 l 1
 40 34 51 44 67 97 c 1
 190 546 l 2
 196 568 201 592 201 606 c 0
 201 639 176 634 127 645 c 1
 127 669 l 1
 661 669 l 1
 617 479 l 1
 590 483 l 1xde
EndSplineSet
Validated: 1
Layer: 2
SplineSet
590 483 m 1,0,1
 590 510 590 510 588.5 526.5 c 128,-1,2
 587 543 587 543 577.5 567 c 128,-1,3
 568 591 568 591 550.5 604 c 128,-1,4
 533 617 533 617 498 627 c 128,-1,5
 463 637 463 637 413 637 c 0,6,7
 384 637 384 637 370.5 628 c 128,-1,8
 357 619 357 619 350 593 c 2,9,-1
 289 371 l 1,10,11
 387 371 387 371 419 388 c 128,-1,12
 451 405 451 405 486 476 c 1,13,-1
 516 472 l 1,14,-1
 441 199 l 1,15,-1
 413 204 l 1,16,17
 417 229 417 229 417 248 c 0,18,19
 417 299 417 299 388.5 317.5 c 128,-1,20
 360 336 360 336 280 338 c 1,21,-1
 226 138 l 2,22,23
 211 85 211 85 211 69 c 0,24,25
 211 46 211 46 225.5 37 c 128,-1,26
 240 28 240 28 283 25 c 1,27,-1
 283 0 l 1,28,-1
 -13 0 l 1,29,-1
 -13 25 l 1,30,31
 27 32 27 32 41 44.5 c 128,-1,32
 55 57 55 57 67 97 c 2,33,-1
 190 546 l 2,34,35
 201 586 201 586 201 606 c 0,36,37
 201 616 201 616 198.5 621.5 c 128,-1,38
 196 627 196 627 188.5 630.5 c 128,-1,39
 181 634 181 634 174.5 635.5 c 128,-1,40
 168 637 168 637 153 640 c 128,-1,41
 138 643 138 643 127 645 c 1,42,-1
 127 669 l 1,43,-1
 661 669 l 1,44,-1
 617 479 l 1,45,-1
 590 483 l 1,0,1
EndSplineSet
EndChar

StartChar: G
Encoding: 71 71 40
Width: 720
Flags: W
HStem: -18 39<258.223 421.656> 305 25<419 476.037 660.293 706> 649 37<385.881 533.401>
VStem: 21 156<141.124 360.27> 601 29<469 494.471> 650 31<664.255 686>
LayerCount: 3
Fore
SplineSet
494 268 m 0
 494 298 450 301 419 305 c 1
 419 330 l 1
 706 330 l 1
 706 305 l 1
 653 300 646 291 627 223 c 1
 579 41 l 1
 551 28 l 2
 494 1 394 -18 316 -18 c 0
 142 -18 21 92 21 250 c 0
 21 467 193 686 448 686 c 0
 544 686 580 655 608 655 c 0
 628 655 639 664 650 686 c 1
 681 686 l 1
 630 464 l 1
 601 469 l 1
 599 536 592 565 570 598 c 0
 548 630 508 649 461 649 c 0
 280 649 177 382 177 208 c 0
 177 86 234 21 341 21 c 0
 379 21 420 34 435 50 c 1
 439 56 439 56 461 133 c 1
 489 226 494 242 494 268 c 0
EndSplineSet
Validated: 1
Layer: 2
SplineSet
494 268 m 0,0,1
 494 281 494 281 481.5 289 c 128,-1,2
 469 297 469 297 458.5 299 c 128,-1,3
 448 301 448 301 426.090883157 304.114819797 c 0,4,5
 421 305 421 305 419 305 c 2,6,-1
 419 330 l 1,7,-1
 706 330 l 1,8,-1
 706 305 l 1,9,10
 667 301 667 301 654 288 c 128,-1,11
 641 275 641 275 627 223 c 2,12,-1
 579 41 l 1,13,-1
 551 28 l 2,14,15
 509 8 509 8 442 -5 c 128,-1,16
 375 -18 375 -18 316 -18 c 0,17,18
 186 -18 186 -18 103.5 56.5 c 128,-1,19
 21 131 21 131 21 250 c 0,20,21
 21 360 21 360 73.5 459 c 128,-1,22
 126 558 126 558 225.5 622 c 128,-1,23
 325 686 325 686 448 686 c 0,24,25
 504 686 504 686 553 670.5 c 128,-1,26
 602 655 602 655 608 655 c 0,27,28
 634 655 634 655 650 686 c 1,29,-1
 681 686 l 1,30,-1
 630 464 l 1,31,-1
 601 469 l 1,32,33
 600 519 600 519 593.5 546 c 128,-1,34
 587 573 587 573 570 598 c 0,35,36
 535 649 535 649 461 649 c 0,37,38
 396 649 396 649 340.5 605 c 128,-1,39
 285 561 285 561 250.5 493.5 c 128,-1,40
 216 426 216 426 196.5 350.5 c 128,-1,41
 177 275 177 275 177 208 c 0,42,43
 177 116 177 116 219 68.5 c 128,-1,44
 261 21 261 21 341 21 c 0,45,46
 369 21 369 21 396.5 29.5 c 128,-1,47
 424 38 424 38 435 50 c 0,48,49
 439 56 439 56 461 133 c 0,50,51
 494 243 494 243 494 268 c 0,0,1
EndSplineSet
EndChar

StartChar: H
Encoding: 72 72 41
Width: 777
Flags: W
HStem: 0 25<-23 19.3105 210.021 272 340 403.089 596.948 658> 330 44<278 505> 645 24<116 170.875 373.883 434 501 557.375 756.721 798>
DStem2: 29.4638 0 175.889 0 0.263873 0.964557<110.043 380.983 426.326 623.265> 414.464 0 561.417 0 0.263873 0.964557<109.081 342.194 387.801 626.107>
LayerCount: 3
Fore
SplineSet
574 606 m 0
 574 638 554 634 501 645 c 1
 501 669 l 1
 798 669 l 1
 798 645 l 1
 749 637 734 625 718 573 c 1
 603 152 l 2
 589 103 584 81 584 66 c 0
 584 37 602 26 658 25 c 1
 658 0 l 1
 340 0 l 1
 340 25 l 1
 407 29 428 42 441 97 c 1
 505 330 l 1
 267 330 l 1
 212 132 l 2
 203 100 199 82 199 67 c 0
 199 37 209 29 272 25 c 1
 272 0 l 1
 -23 0 l 1
 -23 25 l 1
 26 32 40 45 56 97 c 1
 179 546 l 1
 185 573 189 593 189 603 c 0
 189 639 165 634 116 645 c 1
 116 669 l 1
 434 669 l 1
 434 645 l 1
 368 642 349 627 333 573 c 1
 278 374 l 1
 517 374 l 1
 564 546 l 2
 568 564 574 595 574 606 c 0
EndSplineSet
Validated: 1
Layer: 2
SplineSet
574 606 m 0,0,1
 574 614 574 614 572 619.5 c 128,-1,2
 570 625 570 625 567.5 628 c 128,-1,3
 565 631 565 631 557.5 633.5 c 128,-1,4
 550 636 550 636 544 637 c 128,-1,5
 538 638 538 638 524.5 640.5 c 128,-1,6
 511 643 511 643 501 645 c 1,7,-1
 501 669 l 1,8,-1
 798 669 l 1,9,-1
 798 645 l 1,10,11
 761 639 761 639 745.5 625.5 c 128,-1,12
 730 612 730 612 718 573 c 2,13,-1
 603 152 l 2,14,15
 584 86 584 86 584 66 c 0,16,17
 584 44 584 44 600 35 c 128,-1,18
 616 26 616 26 658 25 c 1,19,-1
 658 0 l 1,20,-1
 340 0 l 1,21,-1
 340 25 l 1,22,23
 391 28 391 28 411 42 c 128,-1,24
 431 56 431 56 441 97 c 2,25,-1
 505 330 l 1,26,-1
 267 330 l 1,27,-1
 212 132 l 2,28,29
 199 86 199 86 199 67 c 0,30,31
 199 44 199 44 212.5 36 c 128,-1,32
 226 28 226 28 272 25 c 1,33,-1
 272 0 l 1,34,-1
 -23 0 l 1,35,-1
 -23 25 l 1,36,37
 14 30 14 30 29 44 c 128,-1,38
 44 58 44 58 56 97 c 2,39,-1
 179 546 l 2,40,41
 189 591 189 591 189 603 c 0,42,43
 189 614 189 614 186.5 620 c 128,-1,44
 184 626 184 626 176.5 630 c 128,-1,45
 169 634 169 634 163.5 635.5 c 128,-1,46
 158 637 158 637 142 640 c 128,-1,47
 126 643 126 643 116 645 c 1,48,-1
 116 669 l 1,49,-1
 434 669 l 1,50,-1
 434 645 l 1,51,52
 385 643 385 643 365 628.5 c 128,-1,53
 345 614 345 614 333 573 c 2,54,-1
 278 374 l 1,55,-1
 517 374 l 1,56,-1
 564 546 l 2,57,58
 574 591 574 591 574 606 c 0,0,1
EndSplineSet
EndChar

StartChar: I
Encoding: 73 73 42
Width: 388
Flags: W
HStem: 0 25<-32 12.3792 203.751 264> 645 24<108 166.357 361.422 406>
DStem2: 21.4638 0 167.417 0 0.263873 0.964557<107.505 626.37>
LayerCount: 3
Fore
SplineSet
182 606 m 0
 182 640 156 635 108 645 c 1
 108 669 l 1
 406 669 l 1
 406 645 l 1
 354 639 340 625 324 573 c 1
 209 152 l 2
 196 103 192 81 192 64 c 0
 192 37 207 28 264 25 c 1
 264 0 l 1
 -32 0 l 1
 -32 25 l 1
 18 31 32 45 48 97 c 1
 171 546 l 2
 176 564 182 595 182 606 c 0
EndSplineSet
Validated: 1
Layer: 2
SplineSet
182 606 m 0,0,1
 182 616 182 616 179.5 622 c 128,-1,2
 177 628 177 628 169.5 631.5 c 128,-1,3
 162 635 162 635 155.5 636.5 c 128,-1,4
 149 638 149 638 133.5 640.5 c 128,-1,5
 118 643 118 643 108 645 c 1,6,-1
 108 669 l 1,7,-1
 406 669 l 1,8,-1
 406 645 l 1,9,10
 367 641 367 641 351.5 627 c 128,-1,11
 336 613 336 613 324 573 c 2,12,-1
 209 152 l 2,13,14
 192 88 192 88 192 64 c 0,15,16
 192 44 192 44 207 35.5 c 128,-1,17
 222 27 222 27 264 25 c 1,18,-1
 264 0 l 1,19,-1
 -32 0 l 1,20,-1
 -32 25 l 1,21,22
 5 29 5 29 20.5 43.5 c 128,-1,23
 36 58 36 58 48 97 c 2,24,-1
 171 546 l 2,25,26
 182 586 182 586 182 606 c 0,0,1
EndSplineSet
EndChar

StartChar: J
Encoding: 74 74 43
Width: 499
Flags: W
HStem: -100 37<60.7357 120.339> 645 24<227 258 481.268 524>
VStem: -45 104<-52.6031 31.2613>
DStem2: 115.456 -100 262.475 -100 0.263873 0.964557<106.655 729.168>
LayerCount: 3
Fore
SplineSet
81 9 m 0
 81 -22 59 -20 59 -45 c 0
 59 -57 67 -63 85 -63 c 0
 122 -63 136 -35 174 114 c 1
 289 546 l 2
 296 573 300 595 300 606 c 0
 300 625 287 636 258 639 c 1
 227 645 l 1
 227 669 l 1
 524 669 l 1
 524 645 l 1
 475 639 460 625 442 573 c 1
 315 92 l 2
 280 -38 214 -100 105 -100 c 0
 18 -100 -45 -56 -45 1 c 0
 -45 41 -18 72 18 72 c 0
 53 72 81 44 81 9 c 0
EndSplineSet
Validated: 1
Layer: 2
SplineSet
81 9 m 0,0,1
 81 -7 81 -7 70 -20 c 128,-1,2
 59 -33 59 -33 59 -45 c 0,3,4
 59 -63 59 -63 85 -63 c 0,5,6
 113 -63 113 -63 129 -30.5 c 128,-1,7
 145 2 145 2 174 114 c 2,8,-1
 289 546 l 2,9,10
 300 588 300 588 300 606 c 0,11,12
 300 635 300 635 258 639 c 1,13,-1
 227 645 l 1,14,-1
 227 669 l 1,15,-1
 524 669 l 1,16,-1
 524 645 l 1,17,18
 487 641 487 641 471.5 626.5 c 128,-1,19
 456 612 456 612 442 573 c 2,20,-1
 315 92 l 2,21,22
 289 -6 289 -6 237.5 -53 c 128,-1,23
 186 -100 186 -100 105 -100 c 0,24,25
 40 -100 40 -100 -2.5 -71 c 128,-1,26
 -45 -42 -45 -42 -45 1 c 0,27,28
 -45 31 -45 31 -27 51.5 c 128,-1,29
 -9 72 -9 72 18 72 c 0,30,31
 44 72 44 72 62.5 53.5 c 128,-1,32
 81 35 81 35 81 9 c 0,0,1
EndSplineSet
EndChar

StartChar: K
Encoding: 75 75 44
Width: 666
Flags: W
HStem: 0 25<-21 22.6651 215.125 268 333 390.492 567.755 612> 645 24<119 173.875 378.252 429 491 539.346 654.625 702>
DStem2: 32.4638 0 179.926 0 0.263873 0.964557<112.615 387.999 395.015 623.265> 393 398 271 337 0.419058 -0.907959<4.26043 314.494>
LayerCount: 3
Fore
SplineSet
192 603 m 0
 192 639 168 634 119 645 c 1
 119 669 l 1
 429 669 l 1
 429 645 l 1
 371 639 352 624 335 573 c 1
 272 344 l 1
 479 520 546 587 546 617 c 0
 546 631 538 639 513 642 c 0
 508 642 499 643 491 645 c 1
 491 669 l 1
 702 669 l 1
 702 645 l 1
 659 639 650 636 608 596 c 2
 393 398 l 1
 549 60 l 2
 560 37 574 29 612 25 c 1
 612 0 l 1
 333 0 l 1
 333 25 l 1
 371 28 397 29 397 53 c 0
 397 63 393 75 384 95 c 2
 271 337 l 1
 204 88 l 2
 203 83 202 78 202 70 c 0
 202 38 215 29 268 25 c 1
 268 0 l 1
 -21 0 l 1
 -21 25 l 1
 28 31 42 44 59 97 c 1
 182 546 l 1
 187 573 192 593 192 603 c 0
EndSplineSet
Validated: 1
Layer: 2
SplineSet
192 603 m 0,0,1
 192 614 192 614 189.5 620 c 128,-1,2
 187 626 187 626 179.5 630 c 128,-1,3
 172 634 172 634 166.5 635.5 c 128,-1,4
 161 637 161 637 145 640 c 128,-1,5
 129 643 129 643 119 645 c 1,6,-1
 119 669 l 1,7,-1
 429 669 l 1,8,-1
 429 645 l 1,9,10
 386 641 386 641 367 626 c 128,-1,11
 348 611 348 611 335 573 c 2,12,-1
 272 344 l 1,13,14
 427 476 427 476 486.5 535 c 128,-1,15
 546 594 546 594 546 617 c 0,16,17
 546 638 546 638 513 642 c 0,18,19
 503 642 503 642 491 645 c 1,20,-1
 491 669 l 1,21,-1
 702 669 l 1,22,-1
 702 645 l 1,23,24
 669 640 669 640 654 632.5 c 128,-1,25
 639 625 639 625 608 596 c 2,26,-1
 393 398 l 1,27,-1
 549 60 l 2,28,29
 557 43 557 43 570.5 35.5 c 128,-1,30
 584 28 584 28 612 25 c 1,31,-1
 612 0 l 1,32,-1
 333 0 l 1,33,-1
 333 25 l 1,34,35
 353 27 353 27 360 27.5 c 128,-1,36
 367 28 367 28 378.5 31 c 128,-1,37
 390 34 390 34 393.5 39 c 128,-1,38
 397 44 397 44 397 53 c 0,39,40
 397 66 397 66 384 95 c 2,41,-1
 271 337 l 1,42,-1
 204 88 l 2,43,44
 202 78 202 78 202 70 c 0,45,46
 202 46 202 46 215 37 c 128,-1,47
 228 28 228 28 268 25 c 1,48,-1
 268 0 l 1,49,-1
 -21 0 l 1,50,-1
 -21 25 l 1,51,52
 16 29 16 29 31 43 c 128,-1,53
 46 57 46 57 59 97 c 2,54,-1
 182 546 l 1,55,56
 192 600 192 600 192 603 c 0,0,1
EndSplineSet
EndChar

StartChar: L
Encoding: 76 76 45
Width: 610
Flags: W
HStem: 0 32<205.134 389.064> 0 25<-22 21.0312> 645 24<119 175.984 376.27 435>
VStem: 565 25<179.713 194.68>
DStem2: 32.4638 0 179.285 0 0.263873 0.964557<104.64 625.579>
LayerCount: 3
Fore
SplineSet
190 606 m 0x70
 190 641 168 634 119 645 c 1
 119 669 l 1
 435 669 l 1
 435 645 l 1
 369 640 349 627 334 573 c 2
 205 94 l 2
 202 83 201 70 201 62 c 0
 201 41 220 32 264 32 c 0xb0
 346 32 420 48 472 89 c 0
 510 119 532 144 565 199 c 1
 590 193 l 1
 532 0 l 1
 -22 0 l 1
 -22 25 l 1
 26 32 45 44 59 97 c 2
 182 546 l 2
 186 564 190 595 190 606 c 0x70
EndSplineSet
Validated: 1
Layer: 2
SplineSet
190 606 m 0,0,1
 190 616 190 616 188 622 c 128,-1,2
 186 628 186 628 179 631.5 c 128,-1,3
 172 635 172 635 166 636.5 c 128,-1,4
 160 638 160 638 145 640.5 c 128,-1,5
 130 643 130 643 119 645 c 1,6,-1
 119 669 l 1,7,-1
 435 669 l 1,8,-1
 435 645 l 1,9,10
 385 641 385 641 365 627 c 128,-1,11
 345 613 345 613 334 573 c 2,12,-1
 205 94 l 2,13,14
 201 79 201 79 201 62 c 0,15,16
 201 32 201 32 264 32 c 0,17,18
 400 32 400 32 472 89 c 0,19,20
 501 112 501 112 521 135 c 128,-1,21
 541 158 541 158 565 199 c 1,22,-1
 590 193 l 1,23,-1
 532 0 l 1,24,-1
 -22 0 l 1,25,-1
 -22 25 l 1,26,27
 15 30 15 30 32 44.5 c 128,-1,28
 49 59 49 59 59 97 c 2,29,-1
 182 546 l 2,30,31
 190 582 190 582 190 606 c 0,0,1
EndSplineSet
EndChar

StartChar: M
Encoding: 77 77 46
Width: 887
Flags: W
HStem: -12 21G<283.563 326.089> 0 25<-29 5.58209 124.807 179 463 523.126 714.968 775> 645 24<120 184.527 872.914 917>
DStem2: 19.7483 -12 64.7483 -12 0.263873 0.964557<115.952 589.404> 341 669 218 546 0.120969 -0.992656<107.218 483.007> 395 189 313 -12 0.547603 0.836738<0 471.714> 532.181 -12 676.068 -12 0.263873 0.964557<122.407 593.808>
LayerCount: 3
Fore
SplineSet
917 669 m 1x60
 917 645 l 1
 866 639 851 624 836 573 c 1
 713 123 l 2
 712 118 703 92 703 67 c 0
 703 37 716 28 775 25 c 1
 775 0 l 1
 463 0 l 1
 463 25 l 1x60
 527 29 546 42 562 97 c 1
 688 561 l 1
 313 -12 l 1
 286 -12 l 1xa0
 218 546 l 1
 117 179 l 2
 104 130 98 103 98 86 c 0
 98 45 114 34 179 25 c 1
 179 0 l 1
 -29 0 l 1
 -29 25 l 1
 25 37 32 48 72 179 c 1
 182 551 l 1
 187 576 192 596 192 609 c 0
 192 637 183 642 120 645 c 1
 120 669 l 1
 341 669 l 1
 395 189 l 1
 705 669 l 1
 917 669 l 1x60
EndSplineSet
Validated: 1
Layer: 2
SplineSet
917 669 m 1,0,-1
 917 645 l 1,1,2
 879 641 879 641 863 626.5 c 128,-1,3
 847 612 847 612 836 573 c 2,4,-1
 713 123 l 2,5,6
 713 122 713 122 711 115.5 c 128,-1,7
 709 109 709 109 707.5 102.5 c 128,-1,8
 706 96 706 96 704.5 86 c 128,-1,9
 703 76 703 76 703 67 c 0,10,11
 703 44 703 44 717 35.5 c 128,-1,12
 731 27 731 27 775 25 c 1,13,-1
 775 0 l 1,14,-1
 463 0 l 1,15,-1
 463 25 l 1,16,17
 511 28 511 28 530.5 42 c 128,-1,18
 550 56 550 56 562 97 c 2,19,-1
 688 561 l 1,20,-1
 313 -12 l 1,21,-1
 286 -12 l 1,22,-1
 218 546 l 1,23,-1
 117 179 l 2,24,25
 98 107 98 107 98 86 c 0,26,27
 98 55 98 55 114 43.5 c 128,-1,28
 130 32 130 32 179 25 c 1,29,-1
 179 0 l 1,30,-1
 -29 0 l 1,31,-1
 -29 25 l 1,32,33
 11 34 11 34 26.5 57.5 c 128,-1,34
 42 81 42 81 72 179 c 2,35,-1
 182 551 l 1,36,37
 192 601 192 601 192 609 c 0,38,39
 192 630 192 630 179.5 636.5 c 128,-1,40
 167 643 167 643 120 645 c 1,41,-1
 120 669 l 1,42,-1
 341 669 l 1,43,-1
 395 189 l 1,44,-1
 705 669 l 1,45,-1
 917 669 l 1,0,-1
EndSplineSet
EndChar

StartChar: N
Encoding: 78 78 47
Width: 720
Flags: W
HStem: -15 21G<465.655 507.692> 0 25<-26 10.189 125.534 182> 645 24<111 162.211 539 590.557 713.641 749>
DStem2: 21.9276 -15 65.9276 -15 0.263873 0.964557<116.308 582.245> 306 669 193 589 0.42305 -0.906106<0 24.6839 84.1899 512.295> 461.088 -15 502 -15 0.263873 0.964557<227.047 618.92>
LayerCount: 3
Fore
SplineSet
306 669 m 1x60
 521 204 l 1
 601 491 l 2
 612 532 620 567 620 584 c 0
 620 623 598 639 539 645 c 1
 539 669 l 1
 749 669 l 1
 749 645 l 1
 690 631 686 623 646 491 c 1
 502 -15 l 1
 475 -15 l 1xa0
 218 535 l 1
 119 179 l 2
 108 138 101 103 101 83 c 0
 101 45 122 29 182 25 c 1
 182 0 l 1
 -26 0 l 1
 -26 25 l 1
 28 37 35 47 75 179 c 1
 193 589 l 1
 174 633 166 639 111 645 c 1
 111 669 l 1
 306 669 l 1x60
EndSplineSet
Validated: 1
Layer: 2
SplineSet
306 669 m 1,0,-1
 521 204 l 1,1,-1
 601 491 l 2,2,3
 620 562 620 562 620 584 c 0,4,5
 620 613 620 613 601.5 626.5 c 128,-1,6
 583 640 583 640 539 645 c 1,7,-1
 539 669 l 1,8,-1
 749 669 l 1,9,-1
 749 645 l 1,10,11
 705 635 705 635 690.5 613 c 128,-1,12
 676 591 676 591 646 491 c 2,13,-1
 502 -15 l 1,14,-1
 475 -15 l 1,15,-1
 218 535 l 1,16,-1
 119 179 l 2,17,18
 101 112 101 112 101 83 c 128,-1,19
 101 54 101 54 119 41 c 128,-1,20
 137 28 137 28 182 25 c 1,21,-1
 182 0 l 1,22,-1
 -26 0 l 1,23,-1
 -26 25 l 1,24,25
 15 34 15 34 30 57 c 128,-1,26
 45 80 45 80 75 179 c 2,27,-1
 193 589 l 1,28,29
 179 622 179 622 165.5 631.5 c 128,-1,30
 152 641 152 641 111 645 c 1,31,-1
 111 669 l 1,32,-1
 306 669 l 1,0,-1
EndSplineSet
EndChar

StartChar: O
Encoding: 79 79 48
Width: 720
Flags: W
HStem: -18 34<217.772 333.622> 650 36<381.548 500.497>
VStem: 26 145<113.504 282.265> 546 145<380.539 552.987>
LayerCount: 3
Fore
SplineSet
26 221 m 0
 26 428 218 686 450 686 c 0
 587 686 691 587 691 454 c 0
 691 235 505 -18 264 -18 c 0
 122 -18 26 78 26 221 c 0
445 650 m 0
 381 650 328 609 277 520 c 1
 223 423 171 239 171 138 c 0
 171 63 209 16 272 16 c 0
 327 16 372 45 417 113 c 1
 485 211 546 412 546 532 c 0
 546 603 505 650 445 650 c 0
EndSplineSet
Validated: 1
Layer: 2
SplineSet
26 221 m 0,0,1
 26 298 26 298 60 381 c 128,-1,2
 94 464 94 464 150.5 531.5 c 128,-1,3
 207 599 207 599 286.5 642.5 c 128,-1,4
 366 686 366 686 450 686 c 0,5,6
 553 686 553 686 622 620 c 128,-1,7
 691 554 691 554 691 454 c 0,8,9
 691 344 691 344 635.5 235.5 c 128,-1,10
 580 127 580 127 480 54.5 c 128,-1,11
 380 -18 380 -18 264 -18 c 0,12,13
 157 -18 157 -18 91.5 48 c 128,-1,14
 26 114 26 114 26 221 c 0,0,1
445 650 m 0,15,16
 351 650 351 650 277 520 c 0,17,18
 236 447 236 447 203.5 330 c 128,-1,19
 171 213 171 213 171 138 c 0,20,21
 171 82 171 82 198 49 c 128,-1,22
 225 16 225 16 272 16 c 0,23,24
 353 16 353 16 417 113 c 0,25,26
 468 186 468 186 507 314 c 128,-1,27
 546 442 546 442 546 532 c 0,28,29
 546 585 546 585 518 617.5 c 128,-1,30
 490 650 490 650 445 650 c 0,15,16
EndSplineSet
EndChar

StartChar: P
Encoding: 80 80 49
Width: 610
Flags: W
HStem: 0 25<-26 15.8696 207.088 267> 316 36<270 391.812> 637 32<343.23 431.366> 645 24<113 169.727>
VStem: 467 145<436.936 594.498>
DStem2: 26.4638 0 171.351 0 0.263873 0.964557<106.717 375.432 405.716 625.978>
LayerCount: 3
Fore
SplineSet
186 606 m 0xe8
 186 639 161 635 113 645 c 1
 113 669 l 1xd8
 400 669 l 2
 539 669 612 615 612 514 c 0
 612 394 505 316 340 316 c 0
 313 316 294 318 259 322 c 1
 205 123 l 2
 201 107 195 75 195 64 c 0
 195 37 211 28 267 25 c 1
 267 0 l 1
 -26 0 l 1
 -26 25 l 1
 25 34 37 44 53 97 c 1
 176 546 l 2
 182 568 186 592 186 606 c 0xe8
382 637 m 0xe8
 341 637 339 614 333 593 c 2
 270 354 l 1
 286 353 297 352 311 352 c 0
 381 352 417 375 444 434 c 0
 458 464 467 511 467 546 c 0
 467 603 437 637 382 637 c 0xe8
EndSplineSet
Validated: 1
Layer: 2
SplineSet
186 606 m 0,0,1
 186 616 186 616 183.5 622 c 128,-1,2
 181 628 181 628 173.5 631.5 c 128,-1,3
 166 635 166 635 160 636.5 c 128,-1,4
 154 638 154 638 138.5 640.5 c 128,-1,5
 123 643 123 643 113 645 c 1,6,-1
 113 669 l 1,7,-1
 400 669 l 2,8,9
 504 669 504 669 558 629.5 c 128,-1,10
 612 590 612 590 612 514 c 0,11,12
 612 424 612 424 538 370 c 128,-1,13
 464 316 464 316 340 316 c 0,14,15
 311 316 311 316 259 322 c 1,16,-1
 205 123 l 2,17,18
 195 83 195 83 195 64 c 0,19,20
 195 44 195 44 210 35.5 c 128,-1,21
 225 27 225 27 267 25 c 1,22,-1
 267 0 l 1,23,-1
 -26 0 l 1,24,-1
 -26 25 l 1,25,26
 13 32 13 32 27 45 c 128,-1,27
 41 58 41 58 53 97 c 2,28,-1
 176 546 l 2,29,30
 186 583 186 583 186 606 c 0,0,1
382 637 m 0,31,32
 374 637 374 637 368 636 c 128,-1,33
 362 635 362 635 358 633.5 c 128,-1,34
 354 632 354 632 350 628.5 c 128,-1,35
 346 625 346 625 344.5 623 c 128,-1,36
 343 621 343 621 340.5 616 c 128,-1,37
 338 611 338 611 337.5 609 c 128,-1,38
 337 607 337 607 335 600.5 c 128,-1,39
 333 594 333 594 333 593 c 2,40,-1
 270 354 l 1,41,42
 302 352 302 352 311 352 c 0,43,44
 363 352 363 352 393.5 371 c 128,-1,45
 424 390 424 390 444 434 c 0,46,47
 467 483 467 483 467 546 c 0,48,49
 467 589 467 589 445 613 c 128,-1,50
 423 637 423 637 382 637 c 0,31,32
EndSplineSet
EndChar

StartChar: Q
Encoding: 81 81 50
Width: 720
Flags: W
HStem: -208 89<379.574 511.465> 650 36<378.29 500.784>
VStem: 26 145<113.331 281.32> 546 145<378.692 552.789>
LayerCount: 3
Fore
SplineSet
395 -208 m 0
 297 -208 234 -161 157 -161 c 0
 125 -161 97 -168 42 -189 c 1
 28 -166 l 1
 185 -35 l 1
 204 -16 l 1
 193 -1 147 -4 97 44 c 0
 53 86 26 146 26 211 c 0
 26 454 233 686 450 686 c 0
 589 686 691 587 691 453 c 0
 691 319 624 179 514 81 c 0
 437 12 382 -9 252 -18 c 1
 231 -37 207 -62 207 -64 c 0
 207 -74 290 -70 354 -89 c 1
 395 -103 l 1
 432 -114 453 -119 479 -119 c 0
 539 -119 576 -100 634 -40 c 1
 655 -59 l 1
 574 -168 505 -208 395 -208 c 0
445 650 m 0
 381 650 328 609 277 520 c 1
 223 423 171 239 171 136 c 0
 171 63 209 18 272 18 c 0
 327 18 372 47 417 114 c 1
 485 212 546 412 546 532 c 0
 546 603 505 650 445 650 c 0
EndSplineSet
Validated: 1
Layer: 2
SplineSet
395 -208 m 0,0,1
 343 -208 343 -208 268 -184.5 c 128,-1,2
 193 -161 193 -161 157 -161 c 0,3,4
 115 -161 115 -161 42 -189 c 1,5,-1
 28 -166 l 1,6,-1
 185 -35 l 1,7,-1
 204 -16 l 1,8,9
 201 -12 201 -12 163.5 2 c 128,-1,10
 126 16 126 16 97 44 c 0,11,12
 26 112 26 112 26 211 c 0,13,14
 26 330 26 330 86 440.5 c 128,-1,15
 146 551 146 551 245 618.5 c 128,-1,16
 344 686 344 686 450 686 c 0,17,18
 554 686 554 686 622.5 620 c 128,-1,19
 691 554 691 554 691 453 c 0,20,21
 691 353 691 353 644 254 c 128,-1,22
 597 155 597 155 514 81 c 0,23,24
 456 29 456 29 402.5 9 c 128,-1,25
 349 -11 349 -11 252 -18 c 1,26,27
 207 -59 207 -59 207 -64 c 0,28,29
 207 -68 207 -68 229 -70 c 128,-1,30
 251 -72 251 -72 289 -76.5 c 128,-1,31
 327 -81 327 -81 354 -89 c 2,32,-1
 395 -103 l 2,33,34
 449 -119 449 -119 479 -119 c 0,35,36
 524 -119 524 -119 557 -102 c 128,-1,37
 590 -85 590 -85 634 -40 c 1,38,-1
 655 -59 l 1,39,40
 594 -141 594 -141 535.5 -174.5 c 128,-1,41
 477 -208 477 -208 395 -208 c 0,0,1
445 650 m 0,42,43
 351 650 351 650 277 520 c 0,44,45
 236 447 236 447 203.5 330 c 128,-1,46
 171 213 171 213 171 136 c 0,47,48
 171 81 171 81 198 49.5 c 128,-1,49
 225 18 225 18 272 18 c 0,50,51
 353 18 353 18 417 114 c 0,52,53
 468 187 468 187 507 314.5 c 128,-1,54
 546 442 546 442 546 532 c 0,55,56
 546 585 546 585 518 617.5 c 128,-1,57
 490 650 490 650 445 650 c 0,42,43
EndSplineSet
EndChar

StartChar: R
Encoding: 82 82 51
Width: 666
Flags: W
HStem: 0 25<-29 15.3792 207.318 267 550.057 602> 331 32<272 293> 637 32<343.53 435.975> 645 24<111 169.357>
VStem: 472 151<448.587 599.655>
DStem2: 24.4638 0 171.247 0 0.263873 0.964557<110.268 382.476 415.452 626.369> 431 343 293 331 0.307591 -0.951519<0 316.836>
LayerCount: 3
Fore
SplineSet
185 606 m 0xe8
 185 640 159 635 111 645 c 1
 111 669 l 1xd8
 387 669 l 2
 545 669 623 623 623 526 c 0
 623 478 602 377 431 343 c 1
 514 97 l 1
 536 38 546 29 602 25 c 1
 602 0 l 1
 400 0 l 1
 293 331 l 1
 264 331 l 1
 209 138 l 2
 201 107 195 81 195 67 c 0
 195 37 209 29 267 25 c 1
 267 0 l 1
 -29 0 l 1
 -29 25 l 1
 21 31 35 45 51 97 c 1
 174 546 l 2
 179 562 185 595 185 606 c 0xe8
333 593 m 1
 272 363 l 1
 335 365 374 371 400 388 c 0
 442 415 472 476 472 542 c 0
 472 602 439 637 382 637 c 0xe8
 352 637 341 628 333 593 c 1
EndSplineSet
Validated: 1
Layer: 2
SplineSet
185 606 m 0,0,1
 185 616 185 616 182.5 622 c 128,-1,2
 180 628 180 628 172.5 631.5 c 128,-1,3
 165 635 165 635 158.5 636.5 c 128,-1,4
 152 638 152 638 136.5 640.5 c 128,-1,5
 121 643 121 643 111 645 c 1,6,-1
 111 669 l 1,7,-1
 387 669 l 2,8,9
 623 669 623 669 623 526 c 0,10,11
 623 503 623 503 616.5 481 c 128,-1,12
 610 459 610 459 592 430.5 c 128,-1,13
 574 402 574 402 532.5 378.5 c 128,-1,14
 491 355 491 355 431 343 c 1,15,-1
 514 97 l 2,16,17
 531 52 531 52 545.5 40 c 128,-1,18
 560 28 560 28 602 25 c 1,19,-1
 602 0 l 1,20,-1
 400 0 l 1,21,-1
 293 331 l 1,22,-1
 264 331 l 1,23,-1
 209 138 l 2,24,25
 195 84 195 84 195 67 c 0,26,27
 195 45 195 45 209 36.5 c 128,-1,28
 223 28 223 28 267 25 c 1,29,-1
 267 0 l 1,30,-1
 -29 0 l 1,31,-1
 -29 25 l 1,32,33
 8 29 8 29 23.5 43.5 c 128,-1,34
 39 58 39 58 51 97 c 2,35,-1
 174 546 l 2,36,37
 185 581 185 581 185 606 c 0,0,1
333 593 m 2,38,-1
 272 363 l 1,39,40
 366 366 366 366 400 388 c 0,41,42
 432 408 432 408 452 450.5 c 128,-1,43
 472 493 472 493 472 542 c 0,44,45
 472 587 472 587 448.5 612 c 128,-1,46
 425 637 425 637 382 637 c 0,47,48
 359 637 359 637 349 628 c 128,-1,49
 339 619 339 619 333 593 c 2,38,-1
EndSplineSet
EndChar

StartChar: S
Encoding: 83 83 52
Width: 555
Flags: W
HStem: -18 34<151.759 285.582> 650 5<327 453>
VStem: 38 29<164.432 204> 103 120<481.842 580.896> 347 122<91.4823 203.434> 458 28<483 515.175>
LayerCount: 3
Fore
SplineSet
347 142 m 0xf8
 347 269 103 324 103 491 c 0
 103 601 189 686 303 686 c 0
 363 686 416 655 453 655 c 0
 473 655 486 664 497 681 c 1
 526 681 l 1
 486 480 l 1
 458 483 l 1xf4
 445 601 407 650 327 650 c 0
 264 650 223 609 223 545 c 0
 223 499 237 478 300 431 c 0
 422 338 469 271 469 185 c 0
 469 62 379 -18 239 -18 c 0
 150 -18 104 18 70 18 c 0
 51 18 44 12 32 -18 c 1
 1 -18 l 1
 38 207 l 1
 67 204 l 1
 70 144 79 114 98 83 c 0
 123 41 168 16 221 16 c 0
 326 16 347 110 347 142 c 0xf8
EndSplineSet
Validated: 1
Layer: 2
SplineSet
347 142 m 0,0,1
 347 172 347 172 329 200.5 c 128,-1,2
 311 229 311 229 284 251.5 c 128,-1,3
 257 274 257 274 225 301.5 c 128,-1,4
 193 329 193 329 166 354.5 c 128,-1,5
 139 380 139 380 121 416 c 128,-1,6
 103 452 103 452 103 491 c 0,7,8
 103 574 103 574 160.5 630 c 128,-1,9
 218 686 218 686 303 686 c 0,10,11
 336 686 336 686 386.5 670.5 c 128,-1,12
 437 655 437 655 453 655 c 0,13,14
 480 655 480 655 497 681 c 1,15,-1
 526 681 l 1,16,-1
 486 480 l 1,17,-1
 458 483 l 1,18,19
 448 572 448 572 417.5 611 c 128,-1,20
 387 650 387 650 327 650 c 0,21,22
 280 650 280 650 251.5 621.5 c 128,-1,23
 223 593 223 593 223 545 c 0,24,25
 223 510 223 510 238 488 c 128,-1,26
 253 466 253 466 300 431 c 0,27,28
 392 361 392 361 430.5 305 c 128,-1,29
 469 249 469 249 469 185 c 0,30,31
 469 93 469 93 406.5 37.5 c 128,-1,32
 344 -18 344 -18 239 -18 c 0,33,34
 188 -18 188 -18 134 0 c 128,-1,35
 80 18 80 18 70 18 c 0,36,37
 56 18 56 18 48.5 11 c 128,-1,38
 41 4 41 4 32 -18 c 1,39,-1
 1 -18 l 1,40,-1
 38 207 l 1,41,-1
 67 204 l 1,42,43
 71 127 71 127 98 83 c 0,44,45
 138 16 138 16 221 16 c 0,46,47
 258 16 258 16 284.5 30.5 c 128,-1,48
 311 45 311 45 323.5 67.5 c 128,-1,49
 336 90 336 90 341.5 108.5 c 128,-1,50
 347 127 347 127 347 142 c 0,0,1
EndSplineSet
EndChar

StartChar: T
Encoding: 84 84 53
Width: 610
Flags: W
HStem: 0 25<50 118.086 308.556 381> 634 35<210.5 303 450 527.576>
VStem: 62 24<495.958 508.888> 587 27<479 515.139>
DStem2: 128.464 0 274.257 0 0.263873 0.964557<108.817 657.585>
LayerCount: 3
Fore
SplineSet
650 669 m 1
 614 478 l 1
 587 479 l 1
 582 590 543 633 450 634 c 1
 309 127 l 2
 302 103 297 81 297 66 c 0
 297 34 311 28 381 25 c 1
 381 0 l 1
 50 0 l 1
 50 25 l 1
 64 25 l 2
 116 25 141 45 155 97 c 2
 303 634 l 1
 201 631 138 590 86 491 c 1
 62 498 l 1
 100 669 l 1
 650 669 l 1
EndSplineSet
Validated: 1
Layer: 2
SplineSet
650 669 m 1,0,-1
 614 478 l 1,1,-1
 587 479 l 1,2,3
 583 562 583 562 551.5 597.5 c 128,-1,4
 520 633 520 633 450 634 c 1,5,-1
 309 127 l 2,6,7
 297 86 297 86 297 66 c 0,8,9
 297 42 297 42 312.5 34.5 c 128,-1,10
 328 27 328 27 381 25 c 1,11,-1
 381 0 l 1,12,-1
 50 0 l 1,13,-1
 50 25 l 1,14,-1
 64 25 l 2,15,16
 103 25 103 25 123.5 41.5 c 128,-1,17
 144 58 144 58 155 97 c 2,18,-1
 303 634 l 1,19,20
 226 632 226 632 175.5 598.5 c 128,-1,21
 125 565 125 565 86 491 c 1,22,-1
 62 498 l 1,23,-1
 100 669 l 1,24,-1
 650 669 l 1,0,-1
EndSplineSet
EndChar

StartChar: U
Encoding: 85 85 54
Width: 720
Flags: W
HStem: -18 56<247.073 405.321> 645 24<98 155.533 352.256 409 536 586.678 708.54 744>
VStem: 67 138<76.2184 248.206>
DStem2: 6.43937 -18 153.665 -18 0.263873 0.964557<205.044 643.786> 456.656 -18 498.854 -18 0.263873 0.964557<131.82 625.126>
LayerCount: 3
Fore
SplineSet
744 669 m 1
 744 645 l 1
 688 633 683 623 642 491 c 1
 576 264 l 2
 533 113 484 -18 290 -18 c 0
 160 -18 67 50 67 148 c 0
 67 182 79 243 100 324 c 1
 157 529 l 2
 166 562 171 593 171 605 c 0
 171 627 161 636 129 640 c 0
 125 640 111 642 98 645 c 1
 98 669 l 1
 409 669 l 1
 409 645 l 1
 347 642 333 628 315 573 c 1
 233 272 l 2
 208 182 205 166 205 139 c 0
 205 76 250 38 327 38 c 0
 459 38 503 148 539 283 c 1
 598 491 l 1
 608 532 617 571 617 587 c 0
 617 623 593 639 536 645 c 1
 536 669 l 1
 744 669 l 1
EndSplineSet
Validated: 1
Layer: 2
SplineSet
744 669 m 1,0,-1
 744 645 l 1,1,2
 702 636 702 636 687.5 613.5 c 128,-1,3
 673 591 673 591 642 491 c 2,4,-1
 576 264 l 2,5,6
 561 210 561 210 548.5 175.5 c 128,-1,7
 536 141 536 141 513 100.5 c 128,-1,8
 490 60 490 60 462 37 c 128,-1,9
 434 14 434 14 390 -2 c 128,-1,10
 346 -18 346 -18 290 -18 c 0,11,12
 192 -18 192 -18 129.5 28.5 c 128,-1,13
 67 75 67 75 67 148 c 0,14,15
 67 197 67 197 100 324 c 2,16,-1
 157 529 l 2,17,18
 171 580 171 580 171 605 c 0,19,20
 171 622 171 622 162 629.5 c 128,-1,21
 153 637 153 637 129 640 c 0,22,23
 120 640 120 640 98 645 c 1,24,-1
 98 669 l 1,25,-1
 409 669 l 1,26,-1
 409 645 l 1,27,28
 363 643 363 643 346 629 c 128,-1,29
 329 615 329 615 315 573 c 2,30,-1
 233 272 l 2,31,32
 205 171 205 171 205 139 c 0,33,34
 205 92 205 92 237 65 c 128,-1,35
 269 38 269 38 327 38 c 0,36,37
 365 38 365 38 396 51 c 128,-1,38
 427 64 427 64 448 84.5 c 128,-1,39
 469 105 469 105 487 139 c 128,-1,40
 505 173 505 173 516 205 c 128,-1,41
 527 237 527 237 539 283 c 2,42,-1
 598 491 l 2,43,44
 617 569 617 569 617 587 c 0,45,46
 617 614 617 614 598 627 c 128,-1,47
 579 640 579 640 536 645 c 1,48,-1
 536 669 l 1,49,-1
 744 669 l 1,0,-1
EndSplineSet
EndChar

StartChar: V
Encoding: 86 86 55
Width: 666
Flags: W
HStem: -18 21G<228.014 276.625> 645 24<64 114.678 300.896 363 523 576.787 687.455 715>
DStem2: 289 583 155 491 0.147675 -0.989036<-15.8431 403.839> 338 182 264 -18 0.533788 0.845618<0 494.79>
LayerCount: 3
Fore
SplineSet
715 669 m 1
 715 645 l 1
 687 636 669 623 656 603 c 2
 264 -18 l 1
 231 -18 l 1
 155 491 l 2
 133 634 127 645 64 645 c 1
 64 669 l 1
 363 669 l 1
 363 645 l 1
 296 639 287 633 287 599 c 0
 287 593 288 589 289 583 c 2
 338 182 l 1
 529 483 l 2
 568 545 587 589 587 611 c 0
 587 630 576 639 548 642 c 0
 543 642 535 643 523 645 c 1
 523 669 l 1
 715 669 l 1
EndSplineSet
Validated: 1
Layer: 2
SplineSet
715 669 m 1,0,-1
 715 645 l 1,1,2
 675 632 675 632 656 603 c 2,3,-1
 264 -18 l 1,4,-1
 231 -18 l 1,5,-1
 155 491 l 2,6,7
 148 539 148 539 143 562.5 c 128,-1,8
 138 586 138 586 132 606 c 128,-1,9
 126 626 126 626 116.5 632.5 c 128,-1,10
 107 639 107 639 96 642 c 128,-1,11
 85 645 85 645 64 645 c 1,12,-1
 64 669 l 1,13,-1
 363 669 l 1,14,-1
 363 645 l 1,15,16
 313 641 313 641 300 633 c 128,-1,17
 287 625 287 625 287 599 c 0,18,19
 287 595 287 595 289 583 c 2,20,-1
 338 182 l 1,21,-1
 529 483 l 2,22,23
 587 575 587 575 587 611 c 0,24,25
 587 638 587 638 548 642 c 0,26,27
 541 642 541 642 523 645 c 1,28,-1
 523 669 l 1,29,-1
 715 669 l 1,0,-1
EndSplineSet
EndChar

StartChar: W
Encoding: 87 87 56
Width: 887
Flags: W
HStem: -18 21G<217.306 258.51 538.592 579.645> 645 24<64 112.3 299.145 341 400 442.883 622.826 669 753 806.3 901.315 940>
VStem: 472 134<538 627.921>
DStem2: 283 576 142 561 0.133509 -0.991048<-13.9992 351.94> 321 226 249 -18 0.429433 0.903099<0 291.301> 612 521 482 472 0.119545 -0.992829<33.1078 296.829> 645 226 570 -18 0.434365 0.900737<0 409.746>
LayerCount: 3
Fore
SplineSet
940 669 m 1
 940 645 l 1
 898 639 885 627 855 573 c 1
 570 -18 l 1
 541 -18 l 1
 482 472 l 1
 249 -18 l 1
 220 -18 l 1
 142 561 l 2
 132 631 130 634 64 645 c 1
 64 669 l 1
 341 669 l 1
 341 645 l 1
 294 639 281 627 281 590 c 0
 281 587 283 580 283 576 c 2
 321 226 l 1
 472 538 l 1
 470 623 460 637 400 645 c 1
 400 669 l 1
 669 669 l 1
 669 645 l 1
 617 639 606 630 606 586 c 0
 606 576 606 573 612 521 c 2
 645 226 l 1
 801 554 l 2
 813 579 816 587 816 599 c 0
 816 636 809 640 753 645 c 1
 753 669 l 1
 940 669 l 1
EndSplineSet
Validated: 1
Layer: 2
SplineSet
940 669 m 1,0,-1
 940 645 l 1,1,2
 909 641 909 641 893.5 627.5 c 128,-1,3
 878 614 878 614 855 573 c 2,4,-1
 570 -18 l 1,5,-1
 541 -18 l 1,6,-1
 482 472 l 1,7,-1
 249 -18 l 1,8,-1
 220 -18 l 1,9,-1
 142 561 l 2,10,11
 134 614 134 614 123.5 625.5 c 128,-1,12
 113 637 113 637 64 645 c 1,13,-1
 64 669 l 1,14,-1
 341 669 l 1,15,-1
 341 645 l 1,16,17
 306 641 306 641 293.5 629.5 c 128,-1,18
 281 618 281 618 281 590 c 0,19,20
 281 589 281 589 282 583.5 c 128,-1,21
 283 578 283 578 283 576 c 2,22,-1
 321 226 l 1,23,-1
 472 538 l 1,24,25
 471 602 471 602 458 620.5 c 128,-1,26
 445 639 445 639 400 645 c 1,27,-1
 400 669 l 1,28,-1
 669 669 l 1,29,-1
 669 645 l 1,30,31
 630 640 630 640 618 629.5 c 128,-1,32
 606 619 606 619 606 586 c 0,33,34
 606 573 606 573 612 521 c 2,35,-1
 645 226 l 1,36,-1
 801 554 l 2,37,38
 816 585 816 585 816 599 c 0,39,40
 816 626 816 626 805.5 633.5 c 128,-1,41
 795 641 795 641 753 645 c 1,42,-1
 753 669 l 1,43,-1
 940 669 l 1,0,-1
EndSplineSet
EndChar

StartChar: X
Encoding: 88 88 57
Width: 666
Flags: W
HStem: 0 25<-23 7.875 141.638 190 278 334.444 533.032 586> 645 24<100 152.116 344.507 404 491 540.007 657.091 694>
DStem2: 207 234 155 116 0.685754 0.727834<-179.482 78.0668 255.384 511.364> 371 458 275 309 0.297249 -0.9548<-150.889 39.5521 83.518 113.729 160.857 367.836>
LayerCount: 3
Fore
SplineSet
586 25 m 1
 586 0 l 1
 278 0 l 1
 278 25 l 1
 333 29 346 38 346 63 c 0
 346 104 308 197 289 264 c 1
 155 116 l 2
 133 92 125 78 125 64 c 0
 125 42 145 29 190 25 c 1
 190 0 l 1
 -23 0 l 1
 -23 25 l 1
 18 34 48 62 207 234 c 1
 275 309 l 1
 190 582 l 1
 174 627 160 639 100 645 c 1
 100 669 l 1
 404 669 l 1
 404 645 l 1
 391 642 379 642 375 642 c 0
 341 637 331 628 331 605 c 0
 331 576 366 473 371 458 c 2
 382 420 l 1
 476 520 l 2
 527 574 546 601 546 618 c 0
 546 633 536 640 513 642 c 0
 508 642 501 643 491 645 c 1
 491 669 l 1
 694 669 l 1
 694 645 l 1
 658 639 639 627 595 583 c 2
 395 378 l 1
 470 141 l 2
 499 47 514 34 586 25 c 1
EndSplineSet
Validated: 1
Layer: 2
SplineSet
586 25 m 1,0,-1
 586 0 l 1,1,-1
 278 0 l 1,2,-1
 278 25 l 1,3,4
 319 28 319 28 332.5 36 c 128,-1,5
 346 44 346 44 346 63 c 0,6,7
 346 81 346 81 336.5 114.5 c 128,-1,8
 327 148 327 148 311 195 c 128,-1,9
 295 242 295 242 289 264 c 1,10,-1
 155 116 l 2,11,12
 125 83 125 83 125 64 c 0,13,14
 125 31 125 31 190 25 c 1,15,-1
 190 0 l 1,16,-1
 -23 0 l 1,17,-1
 -23 25 l 1,18,19
 8 32 8 32 47.5 68 c 128,-1,20
 87 104 87 104 207 234 c 2,21,-1
 275 309 l 1,22,-1
 190 582 l 2,23,24
 178 616 178 616 161 628.5 c 128,-1,25
 144 641 144 641 100 645 c 1,26,-1
 100 669 l 1,27,-1
 404 669 l 1,28,-1
 404 645 l 1,29,30
 391 642 391 642 375 642 c 0,31,32
 350 638 350 638 340.5 630 c 128,-1,33
 331 622 331 622 331 605 c 0,34,35
 331 578 331 578 371 458 c 1,36,-1
 382 420 l 1,37,-1
 476 520 l 2,38,39
 546 594 546 594 546 618 c 0,40,41
 546 639 546 639 513 642 c 0,42,43
 506 642 506 642 491 645 c 1,44,-1
 491 669 l 1,45,-1
 694 669 l 1,46,-1
 694 645 l 1,47,48
 667 641 667 641 647.5 628.5 c 128,-1,49
 628 616 628 616 595 583 c 2,50,-1
 395 378 l 1,51,-1
 470 141 l 2,52,53
 492 71 492 71 511.5 51.5 c 128,-1,54
 531 32 531 32 586 25 c 1,0,-1
EndSplineSet
EndChar

StartChar: Y
Encoding: 89 89 58
Width: 610
Flags: W
HStem: 0 25<73 135.7 330.133 395> 645 24<73 117.146 295.577 356 451 504.875 626.53 659>
DStem2: 147.464 0 294.992 0 0.263873 0.964557<114.946 324.741> 363 352 378 308 0.578355 0.815785<0 290.219>
LayerCount: 3
Fore
SplineSet
234 313 m 1
 146 582 l 1
 127 634 125 637 73 645 c 1
 73 669 l 1
 356 669 l 1
 356 645 l 1
 300 643 286 636 286 606 c 0
 286 581 303 540 363 352 c 1
 492 538 l 2
 513 567 519 580 519 598 c 0
 519 633 504 642 451 645 c 1
 451 669 l 1
 659 669 l 1
 659 645 l 1
 621 636 602 621 568 576 c 1
 378 308 l 1
 327 117 l 1
 319 94 318 83 318 72 c 0
 318 35 330 28 395 25 c 1
 395 0 l 1
 73 0 l 1
 73 25 l 1
 142 29 157 40 174 97 c 1
 234 313 l 1
EndSplineSet
Validated: 1
Layer: 2
SplineSet
234 313 m 1,0,-1
 146 582 l 2,1,2
 132 621 132 621 122 630 c 128,-1,3
 112 639 112 639 73 645 c 1,4,-1
 73 669 l 1,5,-1
 356 669 l 1,6,-1
 356 645 l 1,7,8
 314 643 314 643 300 635.5 c 128,-1,9
 286 628 286 628 286 606 c 0,10,11
 286 599 286 599 288 589.5 c 128,-1,12
 290 580 290 580 296.5 559 c 128,-1,13
 303 538 303 538 310 516.5 c 128,-1,14
 317 495 317 495 332.5 447 c 128,-1,15
 348 399 348 399 363 352 c 1,16,-1
 492 538 l 2,17,18
 519 575 519 575 519 598 c 0,19,20
 519 624 519 624 505 633.5 c 128,-1,21
 491 643 491 643 451 645 c 1,22,-1
 451 669 l 1,23,-1
 659 669 l 1,24,-1
 659 645 l 1,25,26
 631 638 631 638 612.5 624 c 128,-1,27
 594 610 594 610 568 576 c 2,28,-1
 378 308 l 1,29,-1
 327 117 l 2,30,31
 318 91 318 91 318 72 c 0,32,33
 318 44 318 44 332 35.5 c 128,-1,34
 346 27 346 27 395 25 c 1,35,-1
 395 0 l 1,36,-1
 73 0 l 1,37,-1
 73 25 l 1,38,39
 125 28 125 28 143 41 c 128,-1,40
 161 54 161 54 174 97 c 2,41,-1
 234 313 l 1,0,-1
EndSplineSet
EndChar

StartChar: Z
Encoding: 90 90 59
Width: 610
Flags: W
HStem: 0 35<157 360.609> 634 35<237.244 423>
VStem: 64 28<489.75 501.253> 527 27<178.403 194.556>
DStem2: -12 29 157 35 0.583774 0.811916<103.529 745.151>
LayerCount: 3
Fore
SplineSet
554 193 m 1
 495 0 l 1
 -12 0 l 1
 -12 29 l 1
 423 634 l 1
 346 634 l 2
 234 634 171 598 92 486 c 1
 64 491 l 1
 122 669 l 1
 590 669 l 1
 590 640 l 1
 157 35 l 1
 226 35 l 2
 313 35 374 48 417 81 c 1
 458 107 497 149 527 199 c 1
 554 193 l 1
EndSplineSet
Validated: 1
Layer: 2
SplineSet
554 193 m 1,0,-1
 495 0 l 1,1,-1
 -12 0 l 1,2,-1
 -12 29 l 1,3,-1
 423 634 l 1,4,-1
 346 634 l 2,5,6
 262 634 262 634 206.5 602 c 128,-1,7
 151 570 151 570 92 486 c 1,8,-1
 64 491 l 1,9,-1
 122 669 l 1,10,-1
 590 669 l 1,11,-1
 590 640 l 1,12,-1
 157 35 l 1,13,-1
 226 35 l 2,14,15
 357 35 357 35 417 81 c 1,16,17
 480 121 480 121 527 199 c 1,18,-1
 554 193 l 1,0,-1
EndSplineSet
EndChar

StartChar: bracketleft
Encoding: 91 91 60
Width: 332
Flags: W
HStem: -160 35<77.2365 182> 639 35<247.113 354>
DStem2: -37 -160 76 -100 0.233197 0.97243<66.9319 849.636>
LayerCount: 3
Fore
SplineSet
354 639 m 1
 286 639 l 2
 250 639 248 636 234 576 c 2
 76 -100 l 2
 76 -103 76 -125 111 -125 c 2
 189 -125 l 1
 182 -160 l 1
 -37 -160 l 1
 163 674 l 1
 362 674 l 1
 354 639 l 1
EndSplineSet
Validated: 1
Layer: 2
SplineSet
354 639 m 1,0,-1
 286 639 l 2,1,2
 259 639 259 639 252 630 c 128,-1,3
 245 621 245 621 234 576 c 2,4,-1
 76 -100 l 1,5,6
 76 -125 76 -125 111 -125 c 2,7,-1
 189 -125 l 1,8,-1
 182 -160 l 1,9,-1
 -37 -160 l 1,10,-1
 163 674 l 1,11,-1
 362 674 l 1,12,-1
 354 639 l 1,0,-1
EndSplineSet
EndChar

StartChar: backslash
Encoding: 92 92 61
Width: 276
Flags: W
HStem: -18 21G<189.432 278> 666 20G<-1 88.5398>
VStem: -1 279
DStem2: 83 686 -1 686 0.268208 -0.963361<0 708.245>
LayerCount: 3
Fore
SplineSet
-1 686 m 1
 83 686 l 1
 278 -18 l 1
 195 -18 l 1
 -1 686 l 1
EndSplineSet
Validated: 1
Layer: 2
SplineSet
-1 686 m 1,0,-1
 83 686 l 1,1,-1
 278 -18 l 1,2,-1
 195 -18 l 1,3,-1
 -1 686 l 1,0,-1
EndSplineSet
EndChar

StartChar: bracketright
Encoding: 93 93 62
Width: 332
Flags: W
HStem: -157 35<-48 58.4059> 639 35<123 228.186>
DStem2: 70 -62 144 -157 0.232886 0.972504<-66.3568 711.179>
LayerCount: 3
Fore
SplineSet
-48 -122 m 1
 19 -122 l 2
 56 -122 57 -119 70 -62 c 2
 229 617 l 1
 229 628 215 639 193 639 c 2
 116 639 l 1
 123 674 l 1
 343 674 l 1
 144 -157 l 1
 -56 -157 l 1
 -48 -122 l 1
EndSplineSet
Validated: 1
Layer: 2
SplineSet
-48 -122 m 1,0,-1
 19 -122 l 2,1,2
 46 -122 46 -122 53 -113.5 c 128,-1,3
 60 -105 60 -105 70 -62 c 2,4,-1
 229 617 l 2,5,6
 229 626 229 626 219 632.5 c 128,-1,7
 209 639 209 639 193 639 c 2,8,-1
 116 639 l 1,9,-1
 123 674 l 1,10,-1
 343 674 l 1,11,-1
 144 -157 l 1,12,-1
 -56 -157 l 1,13,-1
 -48 -122 l 1,0,-1
EndSplineSet
EndChar

StartChar: asciicircum
Encoding: 94 94 63
Width: 569
Flags: W
HStem: 649 20G<235.22 334.725>
DStem2: 67 305 157 305 0.439299 0.898341<39.5369 339.657> 325 669 286 576 0.437304 -0.899314<66.5813 366.708>
LayerCount: 3
Fore
SplineSet
157 305 m 1
 67 305 l 1
 245 669 l 1
 325 669 l 1
 502 305 l 1
 415 305 l 1
 286 576 l 1
 157 305 l 1
EndSplineSet
Validated: 1
Layer: 2
SplineSet
157 305 m 1,0,-1
 67 305 l 1,1,-1
 245 669 l 1,2,-1
 325 669 l 1,3,-1
 502 305 l 1,4,-1
 415 305 l 1,5,-1
 286 576 l 1,6,-1
 157 305 l 1,0,-1
EndSplineSet
EndChar

StartChar: underscore
Encoding: 95 95 64
Width: 499
Flags: W
HStem: -125 50<0 499>
LayerCount: 3
Fore
SplineSet
499 -125 m 1
 0 -125 l 1
 0 -75 l 1
 499 -75 l 1
 499 -125 l 1
EndSplineSet
Validated: 1
Layer: 2
SplineSet
499 -125 m 1,0,-1
 0 -125 l 1,1,-1
 0 -75 l 1,2,-1
 499 -75 l 1,3,-1
 499 -125 l 1,0,-1
EndSplineSet
EndChar

StartChar: grave
Encoding: 96 96 65
Width: 332
Flags: W
HStem: 516 181
VStem: 85 212
LayerCount: 3
Fore
SplineSet
297 516 m 1
 252 516 l 1
 119 605 l 2
 97 620 85 637 85 652 c 0
 85 677 105 697 130 697 c 0
 149 697 170 684 186 664 c 2
 297 516 l 1
EndSplineSet
Validated: 1
Layer: 2
SplineSet
297 516 m 1,0,-1
 252 516 l 1,1,-1
 119 605 l 2,2,3
 85 628 85 628 85 652 c 0,4,5
 85 671 85 671 98 684 c 128,-1,6
 111 697 111 697 130 697 c 0,7,8
 160 697 160 697 186 664 c 2,9,-1
 297 516 l 1,0,-1
EndSplineSet
EndChar

StartChar: a
Encoding: 97 97 66
Width: 499
Flags: W
HStem: -15 72<54 154.817 286 363.497> 420 41<223.627 296.513>
VStem: -21 124<66.7987 212.069> 237 113<28.3078 147.821>
LayerCount: 3
Fore
SplineSet
434 127 m 1
 456 111 l 1
 398 25 352 -15 305 -15 c 0
 267 -15 237 15 237 53 c 0
 237 66 240 81 250 119 c 1
 193 23 148 -13 86 -13 c 0
 22 -13 -21 38 -21 114 c 0
 -21 270 129 461 252 461 c 0
 294 461 316 441 327 390 c 1
 344 450 l 1
 456 456 l 1
 384 220 l 2
 360 139 350 97 350 72 c 0
 350 63 354 57 362 57 c 0
 378 57 393 72 434 127 c 1
303 374 m 0
 303 407 280 420 264 420 c 0
 188 420 103 193 103 111 c 0
 103 81 122 59 146 59 c 0
 238 59 303 307 303 374 c 0
EndSplineSet
Validated: 1
Layer: 2
SplineSet
434 127 m 1,0,-1
 456 111 l 1,1,2
 371 -15 371 -15 305 -15 c 0,3,4
 276 -15 276 -15 256.5 4.5 c 128,-1,5
 237 24 237 24 237 53 c 0,6,7
 237 70 237 70 250 119 c 1,8,9
 207 47 207 47 170 17 c 128,-1,10
 133 -13 133 -13 86 -13 c 0,11,12
 38 -13 38 -13 8.5 22 c 128,-1,13
 -21 57 -21 57 -21 114 c 0,14,15
 -21 190 -21 190 21 272 c 128,-1,16
 63 354 63 354 127.5 407.5 c 128,-1,17
 192 461 192 461 252 461 c 0,18,19
 284 461 284 461 301.5 444.5 c 128,-1,20
 319 428 319 428 327 390 c 1,21,-1
 344 450 l 1,22,-1
 456 456 l 1,23,-1
 384 220 l 2,24,25
 350 105 350 105 350 72 c 0,26,27
 350 57 350 57 362 57 c 128,-1,28
 374 57 374 57 388.5 71 c 128,-1,29
 403 85 403 85 434 127 c 1,0,-1
303 374 m 0,30,31
 303 397 303 397 290.5 408.5 c 128,-1,32
 278 420 278 420 264 420 c 0,33,34
 229 420 229 420 189.5 359.5 c 128,-1,35
 150 299 150 299 126.5 226.5 c 128,-1,36
 103 154 103 154 103 111 c 0,37,38
 103 89 103 89 115.5 74 c 128,-1,39
 128 59 128 59 146 59 c 0,40,41
 188 59 188 59 226.5 125 c 128,-1,42
 265 191 265 191 284 263 c 128,-1,43
 303 335 303 335 303 374 c 0,30,31
EndSplineSet
EndChar

StartChar: b
Encoding: 98 98 67
Width: 499
Flags: W
HStem: -13 34<111.233 191.339> 394 67<261.02 365.5> 642 27<76 133.184> 679 20G<249 278.451>
VStem: -15 123<22.8663 126.549> 319 125<224.044 386.761>
DStem2: -28.3039 -13 87.9495 -13 0.263873 0.964557<428.786 646.377>
LayerCount: 3
Fore
SplineSet
76 642 m 1
 76 669 l 1
 166 680 214 686 284 699 c 1
 193 371 l 1
 245 438 281 461 333 461 c 0
 398 461 444 412 444 338 c 0
 444 160 287 -13 125 -13 c 0
 59 -13 -15 19 -15 47 c 0
 -15 53 -3 97 6 127 c 2
 100 456 l 2
 126 546 139 599 139 612 c 0
 139 636 125 642 76 642 c 1
141 21 m 0
 253 21 319 243 319 325 c 0
 319 371 305 394 275 394 c 0
 242 394 209 365 185 308 c 1
 132 195 108 48 108 47 c 0
 108 32 122 21 141 21 c 0
EndSplineSet
Validated: 1
Layer: 2
SplineSet
76 642 m 1,0,-1
 76 669 l 1,1,2
 212 686 212 686 284 699 c 1,3,-1
 193 371 l 1,4,5
 232 421 232 421 263 441 c 128,-1,6
 294 461 294 461 333 461 c 0,7,8
 382 461 382 461 413 427 c 128,-1,9
 444 393 444 393 444 338 c 0,10,11
 444 204 444 204 345 95.5 c 128,-1,12
 246 -13 246 -13 125 -13 c 0,13,14
 76 -13 76 -13 30.5 6.5 c 128,-1,15
 -15 26 -15 26 -15 47 c 0,16,17
 -15 57 -15 57 6 127 c 2,18,-1
 100 456 l 2,19,20
 139 591 139 591 139 612 c 0,21,22
 139 630 139 630 126 636 c 128,-1,23
 113 642 113 642 76 642 c 1,0,-1
141 21 m 0,24,25
 180 21 180 21 215.5 56.5 c 128,-1,26
 251 92 251 92 272.5 142.5 c 128,-1,27
 294 193 294 193 306.5 242.5 c 128,-1,28
 319 292 319 292 319 325 c 0,29,30
 319 394 319 394 275 394 c 0,31,32
 221 394 221 394 185 308 c 0,33,34
 161 258 161 258 142 192 c 128,-1,35
 123 126 123 126 115.5 88.5 c 128,-1,36
 108 51 108 51 108 47 c 0,37,38
 108 36 108 36 117.5 28.5 c 128,-1,39
 127 21 127 21 141 21 c 0,24,25
EndSplineSet
EndChar

StartChar: c
Encoding: 99 99 68
Width: 443
Flags: W
HStem: -13 64<102.227 233.172> 429 32<232.652 292.54>
VStem: -4 127<75.1839 247.057> 293 100<336.792 427.165>
LayerCount: 3
Fore
SplineSet
271 429 m 0
 192 429 123 240 123 141 c 0
 123 86 152 51 196 51 c 0
 239 51 270 75 318 141 c 1
 346 123 l 1
 315 79 258 -13 148 -13 c 0
 59 -13 -4 48 -4 138 c 0
 -4 297 139 461 280 461 c 0
 346 461 393 425 393 372 c 0
 393 331 366 302 330 302 c 0
 297 302 272 324 272 354 c 0
 272 382 293 397 293 412 c 0
 293 422 283 429 271 429 c 0
EndSplineSet
Validated: 1
Layer: 2
SplineSet
271 429 m 0,0,1
 234 429 234 429 198.5 377 c 128,-1,2
 163 325 163 325 143 258.5 c 128,-1,3
 123 192 123 192 123 141 c 0,4,5
 123 100 123 100 143 75.5 c 128,-1,6
 163 51 163 51 196 51 c 0,7,8
 228 51 228 51 255 71 c 128,-1,9
 282 91 282 91 318 141 c 1,10,-1
 346 123 l 1,11,12
 300.898144161 58.9844626798 300.898144161 58.9844626798 271.719453488 34.2261601836 c 0,13,14
 216.061456747 -13 216.061456747 -13 148 -13 c 0,15,16
 81 -13 81 -13 38.5 29 c 128,-1,17
 -4 71 -4 71 -4 138 c 0,18,19
 -4 257 -4 257 85 359 c 128,-1,20
 174 461 174 461 280 461 c 0,21,22
 330 461 330 461 361.5 436.5 c 128,-1,23
 393 412 393 412 393 372 c 0,24,25
 393 341 393 341 375 321.5 c 128,-1,26
 357 302 357 302 330 302 c 0,27,28
 305 302 305 302 288.5 317 c 128,-1,29
 272 332 272 332 272 354 c 0,30,31
 272 370 272 370 282.5 388 c 128,-1,32
 293 406 293 406 293 412 c 0,33,34
 293 429 293 429 271 429 c 0,0,1
EndSplineSet
EndChar

StartChar: d
Encoding: 100 100 69
Width: 499
Flags: W
HStem: -12 71<67.163 160.085> 420 41<226.89 300.671> 643 26<308 363.531> 679 20G<487 511.519>
VStem: -21 124<66.168 216.823> 240 109<25.5693 139.517>
DStem2: 203.082 -13 322.014 -13 0.263873 0.964557<458.241 649.632>
LayerCount: 3
Fore
SplineSet
428 130 m 1
 450 116 l 1
 394 26 349 -12 300 -12 c 0
 262 -12 240 12 240 51 c 0
 240 66 243 81 250 119 c 1
 193 23 148 -13 85 -13 c 0
 23 -13 -21 40 -21 111 c 0
 -21 270 129 461 250 461 c 0
 280 461 299 453 324 429 c 1
 341 497 l 1
 365 582 371 606 371 615 c 0
 371 633 354 643 330 643 c 2
 308 643 l 1
 308 669 l 1
 409 678 457 686 517 699 c 1
 406 294 l 2
 371 167 349 81 349 70 c 0
 349 64 354 59 360 59 c 0
 375 59 400 86 428 130 c 1
308 371 m 0
 308 398 292 420 268 420 c 0
 188 420 103 196 103 117 c 0
 103 83 120 59 144 59 c 0
 173 59 202 83 230 133 c 0
 264 196 308 328 308 371 c 0
EndSplineSet
Validated: 1
Layer: 2
SplineSet
428 130 m 1,0,-1
 450 116 l 1,1,2
 408 49 408 49 372.5 18.5 c 128,-1,3
 337 -12 337 -12 300 -12 c 0,4,5
 272 -12 272 -12 256 5 c 128,-1,6
 240 22 240 22 240 51 c 0,7,8
 240 65 240 65 250 119 c 1,9,10
 207 47 207 47 169.5 17 c 128,-1,11
 132 -13 132 -13 85 -13 c 0,12,13
 39 -13 39 -13 9 22 c 128,-1,14
 -21 57 -21 57 -21 111 c 0,15,16
 -21 188 -21 188 21 270.5 c 128,-1,17
 63 353 63 353 127 407 c 128,-1,18
 191 461 191 461 250 461 c 0,19,20
 291 461 291 461 324 429 c 1,21,-1
 341 497 l 2,22,23
 371 603 371 603 371 615 c 0,24,25
 371 643 371 643 330 643 c 2,26,-1
 308 643 l 1,27,-1
 308 669 l 1,28,29
 428 680 428 680 517 699 c 1,30,-1
 406 294 l 2,31,32
 349 87 349 87 349 70 c 0,33,34
 349 59 349 59 360 59 c 0,35,36
 383 59 383 59 428 130 c 1,0,-1
308 371 m 0,37,38
 308 392 308 392 297 406 c 128,-1,39
 286 420 286 420 268 420 c 0,40,41
 231 420 231 420 191 360 c 128,-1,42
 151 300 151 300 127 229.5 c 128,-1,43
 103 159 103 159 103 117 c 0,44,45
 103 92 103 92 114.5 75.5 c 128,-1,46
 126 59 126 59 144 59 c 0,47,48
 189 59 189 59 230 133 c 0,49,50
 256 181 256 181 282 260 c 128,-1,51
 308 339 308 339 308 371 c 0,37,38
EndSplineSet
EndChar

StartChar: e
Encoding: 101 101 70
Width: 443
Flags: W
HStem: -13 64<152.196 240.497> 429 32<243.192 302.26>
VStem: 4 131<67.7911 180.282> 306 92<311.805 428.201>
LayerCount: 3
Fore
SplineSet
316 142 m 1
 346 125 l 1
 286 26 231 -13 157 -13 c 0
 69 -13 4 50 4 133 c 0
 4 299 149 461 293 461 c 0
 354 461 398 426 398 375 c 0
 398 340 379 302 344 270 c 0
 294 224 245 202 141 182 c 1
 138 163 135 149 135 133 c 0
 135 79 157 51 201 51 c 0
 242 51 270 73 316 142 c 1
148 214 m 1
 160 218 174 223 182 226 c 0
 258 253 306 319 306 395 c 0
 306 417 297 429 278 429 c 0
 230 429 185 352 148 214 c 1
EndSplineSet
Validated: 1
Layer: 2
SplineSet
316 142 m 1,0,-1
 346 125 l 1,1,2
 301 51 301 51 257 19 c 128,-1,3
 213 -13 213 -13 157 -13 c 0,4,5
 91 -13 91 -13 47.5 29 c 128,-1,6
 4 71 4 71 4 133 c 0,7,8
 4 257 4 257 94.5 359 c 128,-1,9
 185 461 185 461 293 461 c 0,10,11
 339 461 339 461 368.5 437 c 128,-1,12
 398 413 398 413 398 375 c 0,13,14
 398 319 398 319 344 270 c 0,15,16
 306 235 306 235 262 216 c 128,-1,17
 218 197 218 197 141 182 c 1,18,19
 135 144 135 144 135 133 c 0,20,21
 135 51 135 51 201 51 c 0,22,23
 232 51 232 51 257 70.5 c 128,-1,24
 282 90 282 90 316 142 c 1,0,-1
148 214 m 1,25,26
 166 220 166 220 182 226 c 0,27,28
 239 246 239 246 272.5 292 c 128,-1,29
 306 338 306 338 306 395 c 0,30,31
 306 429 306 429 278 429 c 0,32,33
 206 429 206 429 148 214 c 1,25,26
EndSplineSet
EndChar

StartChar: f
Encoding: 102 102 71
Width: 332
Flags: W
HStem: -205 31<-81.9916 -35.8602> 407 43<48 111 236 319> 669 30<314.771 361.323>
VStem: -168 85<-173.815 -101.629> 362 83<593.927 668.431>
DStem2: 23 15 229 407 0.221912 0.975067<153.651 401.754 471.421 596.363>
LayerCount: 3
Fore
SplineSet
346 614 m 0
 346 634 362 648 362 656 c 0
 362 664 354 669 346 669 c 0
 311 669 278 620 253 520 c 2
 236 450 l 1
 328 450 l 1
 319 407 l 1
 229 407 l 1
 147 32 109 -205 -70 -205 c 0
 -130 -205 -168 -174 -168 -126 c 0
 -168 -97 -145 -72 -117 -72 c 0
 -92 -72 -67 -97 -67 -120 c 0
 -67 -143 -83 -150 -83 -163 c 0
 -83 -168 -76 -174 -66 -174 c 0
 -26 -174 -7 -133 23 15 c 0
 29 44 59 168 111 407 c 1
 40 407 l 1
 48 450 l 1
 122 450 l 1
 149 549 168 590 211 637 c 0
 248 677 294 699 347 699 c 0
 407 699 445 666 445 618 c 0
 445 587 425 565 395 565 c 0
 368 565 346 587 346 614 c 0
EndSplineSet
Validated: 1
Layer: 2
SplineSet
346 614 m 0,0,1
 346 626 346 626 354 640 c 128,-1,2
 362 654 362 654 362 656 c 0,3,4
 362 669 362 669 346 669 c 0,5,6
 290 669 290 669 253 520 c 2,7,-1
 236 450 l 1,8,-1
 328 450 l 1,9,-1
 319 407 l 1,10,-1
 229 407 l 1,11,12
 165.579874788 116.968939581 165.579874788 116.968939581 145.004595117 46.673653869 c 0,13,14
 93.666971211 -128.720945762 93.666971211 -128.720945762 20.1661559669 -178.587197695 c 0,15,16
 -18.765234043 -205 -18.765234043 -205 -70 -205 c 0,17,18
 -115 -205 -115 -205 -141.5 -183.5 c 128,-1,19
 -168 -162 -168 -162 -168 -126 c 0,20,21
 -168 -104 -168 -104 -153 -88 c 128,-1,22
 -138 -72 -138 -72 -117 -72 c 0,23,24
 -98 -72 -98 -72 -82.5 -87.5 c 128,-1,25
 -67 -103 -67 -103 -67 -120 c 0,26,27
 -67 -133 -67 -133 -75 -145.5 c 128,-1,28
 -83 -158 -83 -158 -83 -163 c 0,29,30
 -83 -174 -83 -174 -66 -174 c 0,31,32
 -36 -174 -36 -174 -18 -135 c 128,-1,33
 0 -96 0 -96 23 15 c 0,34,35
 25 24 25 24 36 71.5 c 128,-1,36
 47 119 47 119 67.5 211 c 128,-1,37
 88 303 88 303 111 407 c 1,38,-1
 40 407 l 1,39,-1
 48 450 l 1,40,-1
 122 450 l 1,41,42
 142 525 142 525 160.5 563.5 c 128,-1,43
 179 602 179 602 211 637 c 0,44,45
 268 699 268 699 347 699 c 0,46,47
 392 699 392 699 418.5 676.5 c 128,-1,48
 445 654 445 654 445 618 c 0,49,50
 445 595 445 595 431 580 c 128,-1,51
 417 565 417 565 395 565 c 0,52,53
 375 565 375 565 360.5 579.5 c 128,-1,54
 346 594 346 594 346 614 c 0,0,1
EndSplineSet
EndChar

StartChar: g
Encoding: 103 103 72
Width: 499
Flags: W
HStem: -204 36<71.5647 233.68> 152 33<160.999 233.217> 374 55<412 478> 431 30<217.278 285.229>
VStem: -53 88<-139.037 -43.6138> 19 103<57.5 133> 35 116<212.754 346.229> 267 108<-118.133 -23> 300 117<270.558 373.398>
LayerCount: 3
Fore
SplineSet
-53 -97 m 0xf9
 -53 -14 64 3 81 7 c 1
 37 22 19 42 19 73 c 0xf4
 19 110 34 125 116 170 c 1
 62 193 35 229 35 280 c 0xf2
 35 381 133 461 256 461 c 0
 303 461 334 453 368 429 c 1
 478 429 l 1
 478 374 l 1
 412 374 l 1
 416 357 417 347 417 331 c 0
 417 202 279 152 201 152 c 0
 179 152 165 161 149 161 c 0
 138 161 122 141 122 125 c 0xf480
 122 110 141 97 173 86 c 1
 226 72 l 1
 335 41 375 7 375 -53 c 0
 375 -141 275 -204 136 -204 c 0
 21 -204 -53 -163 -53 -97 c 0xf9
115 -6 m 0
 105 -6 35 -40 35 -91 c 0
 35 -138 81 -168 146 -168 c 0
 223 -168 267 -144 267 -100 c 0xf9
 267 -75 253 -56 226 -42 c 1
 214 -37 125 -6 115 -6 c 0
193 185 m 0
 262 185 300 309 300 372 c 0
 300 406 281 431 255 431 c 0
 181 431 151 287 151 243 c 0xf280
 151 205 166 185 193 185 c 0
EndSplineSet
Validated: 1
Layer: 2
SplineSet
-53 -97 m 0,0,1
 -53 -84 -53 -84 -49 -72 c 128,-1,2
 -45 -60 -45 -60 -38 -51 c 128,-1,3
 -31 -42 -31 -42 -22.5 -34 c 128,-1,4
 -14 -26 -14 -26 -2.5 -20.5 c 128,-1,5
 9 -15 9 -15 18 -11 c 128,-1,6
 27 -7 27 -7 38.5 -3.5 c 128,-1,7
 50 0 50 0 57 1.5 c 128,-1,8
 64 3 64 3 72 5 c 128,-1,9
 80 7 80 7 81 7 c 1,10,11
 19 28 19 28 19 73 c 0,12,13
 19 101 19 101 37 118.5 c 128,-1,14
 55 136 55 136 116 170 c 1,15,16
 35 204 35 204 35 280 c 128,-1,17
 35 356 35 356 99.5 408.5 c 128,-1,18
 164 461 164 461 256 461 c 0,19,20
 323 461 323 461 368 429 c 1,21,-1
 478 429 l 1,22,-1
 478 374 l 1,23,-1
 412 374 l 1,24,25
 417 353 417 353 417 331 c 0,26,27
 417 285 417 285 394.5 249 c 128,-1,28
 372 213 372 213 337.5 193 c 128,-1,29
 303 173 303 173 268 162.5 c 128,-1,30
 233 152 233 152 201 152 c 0,31,32
 189 152 189 152 172.5 156.5 c 128,-1,33
 156 161 156 161 149 161 c 0,34,35
 141 161 141 161 131.5 149 c 128,-1,36
 122 137 122 137 122 125 c 0,37,38
 122 104 122 104 173 86 c 1,39,-1
 226 72 l 2,40,41
 308 49 308 49 341.5 20.5 c 128,-1,42
 375 -8 375 -8 375 -53 c 0,43,44
 375 -119 375 -119 307.5 -161.5 c 128,-1,45
 240 -204 240 -204 136 -204 c 0,46,47
 49 -204 49 -204 -2 -175 c 128,-1,48
 -53 -146 -53 -146 -53 -97 c 0,0,1
115 -6 m 0,49,50
 101 -6 101 -6 68 -32 c 128,-1,51
 35 -58 35 -58 35 -91 c 0,52,53
 35 -126 35 -126 66 -147 c 128,-1,54
 97 -168 97 -168 146 -168 c 0,55,56
 267 -168 267 -168 267 -100 c 0,57,58
 267 -63 267 -63 226 -42 c 0,59,60
 213 -37 213 -37 167.5 -21.5 c 128,-1,61
 122 -6 122 -6 115 -6 c 0,49,50
193 185 m 0,62,63
 225 185 225 185 250.5 219.5 c 128,-1,64
 276 254 276 254 288 296 c 128,-1,65
 300 338 300 338 300 372 c 0,66,67
 300 398 300 398 287 414.5 c 128,-1,68
 274 431 274 431 255 431 c 0,69,70
 221 431 221 431 196 392 c 128,-1,71
 171 353 171 353 161 312 c 128,-1,72
 151 271 151 271 151 243 c 0,73,74
 151 185 151 185 193 185 c 0,62,63
EndSplineSet
EndChar

StartChar: h
Encoding: 104 104 73
Width: 555
Flags: W
HStem: -9 68<311 402.344> 0 21G<-13 134> 390 71<325.022 421.5> 642 27<86 107.763> 679 20G<255.5 288.856>
VStem: 265 119<26.1938 142.336> 353 122<293.837 389.59>
DStem2: -15.4621 -9 105.538 -9 0.263873 0.964557<41.2593 307.959 335.075 639.126>
LayerCount: 3
Fore
SplineSet
265 48 m 0xbc
 265 139 353 329 353 369 c 0
 353 379 343 390 331 390 c 0
 305 390 272 360 230 300 c 0
 180 229 160 179 108 0 c 1
 -13 0 l 1
 141 567 l 2
 146 586 149 601 149 609 c 0
 149 631 135 643 108 643 c 0
 103 643 94 643 86 642 c 1
 86 669 l 1
 167 677 217 684 294 699 c 1
 187 283 l 1
 260 388 314 461 398 461 c 0
 445 461 475 434 475 387 c 0x7a
 475 368 464 327 445 265 c 1
 387 86 l 2
 384 78 384 78 384 75 c 0
 384 67 394 59 401 59 c 0
 415 59 434 81 476 142 c 1
 498 127 l 1
 432 23 393 -9 331 -9 c 0
 291 -9 265 15 265 48 c 0xbc
EndSplineSet
Validated: 1
Layer: 2
SplineSet
265 48 m 0,0,1
 265 100 265 100 309 227.5 c 128,-1,2
 353 355 353 355 353 369 c 0,3,4
 353 377 353 377 346.5 383.5 c 128,-1,5
 340 390 340 390 331 390 c 0,6,7
 293 390 293 390 230 300 c 0,8,9
 193 247 193 247 170 191 c 128,-1,10
 147 135 147 135 108 0 c 1,11,-1
 -13 0 l 1,12,-1
 141 567 l 2,13,14
 149 597 149 597 149 609 c 0,15,16
 149 643 149 643 108 643 c 0,17,18
 94 643 94 643 86 642 c 1,19,-1
 86 669 l 1,20,21
 196 680 196 680 294 699 c 1,22,-1
 187 283 l 1,23,24
 253 378 253 378 297 419.5 c 128,-1,25
 341 461 341 461 398 461 c 0,26,27
 434 461 434 461 454.5 441.5 c 128,-1,28
 475 422 475 422 475 387 c 0,29,30
 475 363 475 363 445 265 c 2,31,-1
 387 86 l 2,32,33
 384 78 384 78 384 75 c 0,34,35
 384 69 384 69 390 64 c 128,-1,36
 396 59 396 59 401 59 c 0,37,38
 419 59 419 59 476 142 c 1,39,-1
 498 127 l 1,40,41
 448 49 448 49 412.5 20 c 128,-1,42
 377 -9 377 -9 331 -9 c 0,43,44
 301 -9 301 -9 283 7 c 128,-1,45
 265 23 265 23 265 48 c 0,0,1
EndSplineSet
EndChar

StartChar: i
Encoding: 105 105 74
Width: 276
Flags: W
HStem: -9 71<49.5 139.37> 407 27<21 74.7084> 441 20G<195.5 217.551> 549 137<146.5 242.75>
VStem: 1 122<30.472 148.875> 127 137<569.5 665>
DStem2: -21.1111 -9 94.7946 -9 0.263873 0.964557<120.306 399.904>
LayerCount: 3
Fore
SplineSet
215 141 m 1
 237 127 l 1
 168 22 130 -9 70 -9 c 0
 29 -9 1 18 1 54 c 0
 1 67 7 95 15 123 c 2
 73 338 l 2
 78 354 81 371 81 378 c 0
 81 398 64 407 21 407 c 1
 21 434 l 1
 100 439 168 450 223 461 c 1
 132 127 l 2
 129 116 123 82 123 76 c 0
 123 67 130 62 138 62 c 0
 152 62 176 82 202 122 c 1
 215 141 l 1
193 686 m 0
 231 686 264 653 264 617 c 0
 264 580 231 549 193 549 c 0
 157 549 127 580 127 620 c 0
 127 653 160 686 193 686 c 0
EndSplineSet
Validated: 1
Layer: 2
SplineSet
215 141 m 1,0,-1
 237 127 l 1,1,2
 185 48 185 48 150 19.5 c 128,-1,3
 115 -9 115 -9 70 -9 c 0,4,5
 40 -9 40 -9 20.5 9 c 128,-1,6
 1 27 1 27 1 54 c 0,7,8
 1 74 1 74 15 123 c 2,9,-1
 73 338 l 2,10,11
 81 364 81 364 81 378 c 0,12,13
 81 407 81 407 21 407 c 1,14,-1
 21 434 l 1,15,16
 119 440 119 440 223 461 c 1,17,-1
 132 127 l 2,18,19
 123 94 123 94 123 76 c 0,20,21
 123 62 123 62 138 62 c 0,22,23
 163 62 163 62 202 122 c 2,24,-1
 215 141 l 1,0,-1
193 686 m 0,25,26
 221 686 221 686 242.5 665 c 128,-1,27
 264 644 264 644 264 617 c 0,28,29
 264 589 264 589 243 569 c 128,-1,30
 222 549 222 549 193 549 c 0,31,32
 166 549 166 549 146.5 569.5 c 128,-1,33
 127 590 127 590 127 620 c 0,34,35
 127 645 127 645 147.5 665.5 c 128,-1,36
 168 686 168 686 193 686 c 0,25,26
EndSplineSet
EndChar

StartChar: j
Encoding: 106 106 75
Width: 276
Flags: W
HStem: -207 31<-103.957 -55.0426> 407 27<31 87.1006> 441 20G<209.5 233.795> 549 137<163 258.125>
VStem: -189 84<-175.263 -107.003> 144 134<567.979 666.182>
DStem2: -56.3182 -207 62.0791 -207 0.263873 0.964557<109.746 600.965>
LayerCount: 3
Fore
SplineSet
-91 -126 m 0
 -91 -152 -105 -150 -105 -164 c 0
 -105 -168 -92 -176 -82 -176 c 0
 -54 -176 -37 -145 -12 -45 c 1
 81 311 l 2
 88 338 92 365 92 376 c 0
 92 401 81 407 31 407 c 1
 31 434 l 1
 144 444 180 450 239 461 c 1
 125 23 l 2
 85 -130 16 -207 -83 -207 c 0
 -146 -207 -189 -176 -189 -130 c 0
 -189 -101 -166 -78 -141 -78 c 0
 -113 -78 -91 -100 -91 -126 c 0
209 686 m 0
 248 686 278 653 278 617 c 0
 278 580 248 549 209 549 c 0
 173 549 144 580 144 620 c 0
 144 653 174 686 209 686 c 0
EndSplineSet
Validated: 1
Layer: 2
SplineSet
-91 -126 m 0,0,1
 -91 -140 -91 -140 -98 -149 c 128,-1,2
 -105 -158 -105 -158 -105 -164 c 0,3,4
 -105 -167 -105 -167 -97 -171.5 c 128,-1,5
 -89 -176 -89 -176 -82 -176 c 0,6,7
 -61 -176 -61 -176 -46 -148 c 128,-1,8
 -31 -120 -31 -120 -12 -45 c 2,9,-1
 81 311 l 2,10,11
 92 353 92 353 92 376 c 0,12,13
 92 395 92 395 80 401 c 128,-1,14
 68 407 68 407 31 407 c 1,15,-1
 31 434 l 1,16,17
 151 445 151 445 239 461 c 1,18,-1
 125 23 l 2,19,20
 65 -207 65 -207 -83 -207 c 0,21,22
 -130 -207 -130 -207 -159.5 -185.5 c 128,-1,23
 -189 -164 -189 -164 -189 -130 c 0,24,25
 -189 -109 -189 -109 -174.5 -93.5 c 128,-1,26
 -160 -78 -160 -78 -141 -78 c 0,27,28
 -120 -78 -120 -78 -105.5 -92 c 128,-1,29
 -91 -106 -91 -106 -91 -126 c 0,0,1
209 686 m 0,30,31
 238 686 238 686 258 665.5 c 128,-1,32
 278 645 278 645 278 617 c 128,-1,33
 278 589 278 589 258 569 c 128,-1,34
 238 549 238 549 209 549 c 0,35,36
 182 549 182 549 163 569.5 c 128,-1,37
 144 590 144 590 144 620 c 0,38,39
 144 645 144 645 163.5 665.5 c 128,-1,40
 183 686 183 686 209 686 c 0,30,31
EndSplineSet
EndChar

StartChar: k
Encoding: 107 107 76
Width: 499
Flags: W
HStem: -7 70<280 371.128> 0 21G<-23 105.241> 423 27<275 325.11 432.799 483> 642 27<78 99.7627> 679 20G<247.5 280.652>
DStem2: -24.915 -7 98.085 -7 0.263873 0.964557<39.7136 233.016 286.867 637.581>
LayerCount: 3
Fore
SplineSet
149 187 m 1xb8
 100 0 l 1
 -23 0 l 1x78
 133 567 l 2
 138 586 141 601 141 609 c 0
 141 631 127 643 100 643 c 0
 95 643 86 643 78 642 c 1
 78 669 l 1
 157 677 209 686 286 699 c 1
 163 239 l 1
 289 338 327 375 327 401 c 0
 327 417 315 422 275 423 c 1
 275 450 l 1
 483 450 l 1
 483 423 l 1
 437 417 416 406 349 349 c 1
 286 293 l 1
 324 98 335 63 363 63 c 0
 382 63 398 81 425 127 c 1
 447 116 l 1
 397 25 360 -7 311 -7 c 0
 249 -7 220 45 187 215 c 1
 149 187 l 1xb8
EndSplineSet
Validated: 1
Layer: 2
SplineSet
149 187 m 1,0,-1
 100 0 l 1,1,-1
 -23 0 l 1,2,-1
 133 567 l 2,3,4
 141 597 141 597 141 609 c 0,5,6
 141 643 141 643 100 643 c 0,7,8
 86 643 86 643 78 642 c 1,9,-1
 78 669 l 1,10,11
 154 677 154 677 286 699 c 1,12,-1
 163 239 l 1,13,14
 258 314 258 314 292.5 348 c 128,-1,15
 327 382 327 382 327 401 c 0,16,17
 327 413 327 413 316 417.5 c 128,-1,18
 305 422 305 422 275 423 c 1,19,-1
 275 450 l 1,20,-1
 483 450 l 1,21,-1
 483 423 l 1,22,23
 448 418 448 418 423.5 404.5 c 128,-1,24
 399 391 399 391 349 349 c 2,25,-1
 286 293 l 1,26,27
 315 146 315 146 328.5 104.5 c 128,-1,28
 342 63 342 63 363 63 c 0,29,30
 377 63 377 63 390.5 77.5 c 128,-1,31
 404 92 404 92 425 127 c 1,32,-1
 447 116 l 1,33,34
 410 48 410 48 379 20.5 c 128,-1,35
 348 -7 348 -7 311 -7 c 0,36,37
 265 -7 265 -7 238.5 40 c 128,-1,38
 212 87 212 87 187 215 c 1,39,-1
 149 187 l 1,0,-1
EndSplineSet
EndChar

StartChar: l
Encoding: 108 108 77
Width: 276
Flags: W
HStem: -9 71<49 139.209> 642 27<81 102.765> 679 20G<247 284.455>
VStem: 1 122<28.2922 158.164>
DStem2: -22.6381 -9 94.3897 -9 0.263873 0.964557<121.023 645.231>
LayerCount: 3
Fore
SplineSet
215 141 m 1
 237 127 l 1
 168 22 130 -9 69 -9 c 0
 29 -9 1 15 1 51 c 0
 1 75 15 133 37 209 c 2
 110 473 l 1
 130 541 144 602 144 615 c 0
 144 633 129 643 103 643 c 0
 98 643 92 643 81 642 c 1
 81 669 l 1
 157 677 204 683 290 699 c 1
 145 176 l 2
 130 125 123 89 123 76 c 0
 123 67 130 62 138 62 c 0
 155 62 176 82 215 141 c 1
EndSplineSet
Validated: 1
Layer: 2
SplineSet
215 141 m 1,0,-1
 237 127 l 1,1,2
 185 48 185 48 150 19.5 c 128,-1,3
 115 -9 115 -9 69 -9 c 0,4,5
 39 -9 39 -9 20 7.5 c 128,-1,6
 1 24 1 24 1 51 c 0,7,8
 1 85 1 85 37 209 c 2,9,-1
 110 473 l 2,10,11
 144 589 144 589 144 615 c 0,12,13
 144 643 144 643 103 643 c 0,14,15
 92 643 92 643 81 642 c 1,16,-1
 81 669 l 1,17,18
 191 681 191 681 290 699 c 1,19,-1
 145 176 l 2,20,21
 123 101 123 101 123 76 c 0,22,23
 123 62 123 62 138 62 c 0,24,25
 163 62 163 62 215 141 c 1,0,-1
EndSplineSet
EndChar

StartChar: m
Encoding: 109 109 78
Width: 777
Flags: W
HStem: -9 68<540.5 632.731> 0 21G<-15 133.5 227 376.5> 390 71<318.426 383.948 554.256 626.996> 407 27<34 81.5441>
VStem: 337 119<303.782 420.341> 495 120<28.6908 152.548> 583 122<294.499 411>
DStem2: -17.4621 -9 104.538 -9 0.263873 0.964557<41.5232 403.401> 532 207 636 151 0.320498 0.947249<-99.8927 168.583>
LayerCount: 3
Fore
SplineSet
631 59 m 0xac
 655 59 693 126 700 135 c 1
 722 122 l 1
 664 23 624 -9 562 -9 c 0
 519 -9 495 13 495 54 c 0xac
 495 82 508 144 532 207 c 1
 576 338 l 2
 580 352 583 362 583 368 c 0
 583 379 573 390 560 390 c 0
 530 390 491 347 448 272 c 0
 412 209 406 192 347 0 c 1
 227 0 l 1
 291 207 l 1
 325 309 337 352 337 366 c 0
 337 379 328 390 318 390 c 0x6a
 305 390 275 368 253 343 c 1
 198 275 160 190 107 0 c 1
 -15 0 l 1
 53 237 l 2
 81 333 88 368 88 381 c 0
 88 398 75 407 42 407 c 2
 34 407 l 1
 34 434 l 1x5a
 149 442 170 445 234 461 c 1
 170 262 l 1
 237 367 301 461 388 461 c 0
 431 461 456 437 456 394 c 0
 456 366 448 340 429 290 c 1
 513 422 560 461 627 461 c 0
 671 461 705 431 705 391 c 0x2a
 705 365 696 327 681 284 c 2
 636 151 l 1
 615 83 615 83 615 73 c 0
 615 66 623 59 631 59 c 0xac
EndSplineSet
Validated: 1
Layer: 2
SplineSet
631 59 m 0,0,1
 639 59 639 59 651 70 c 128,-1,2
 663 81 663 81 671.5 93.5 c 128,-1,3
 680 106 680 106 689.5 120 c 128,-1,4
 699 134 699 134 700 135 c 2,5,-1
 722 122 l 1,6,7
 679 48 679 48 644 19.5 c 128,-1,8
 609 -9 609 -9 562 -9 c 0,9,10
 495 -9 495 -9 495 54 c 0,11,12
 495 110 495 110 532 207 c 1,13,-1
 576 338 l 2,14,15
 583 362 583 362 583 368 c 0,16,17
 583 376 583 376 576.5 383 c 128,-1,18
 570 390 570 390 560 390 c 0,19,20
 516 390 516 390 448 272 c 0,21,22
 421 225 421 225 406.5 185 c 128,-1,23
 392 145 392 145 347 0 c 1,24,-1
 227 0 l 1,25,-1
 291 207 l 2,26,27
 337 345 337 345 337 366 c 0,28,29
 337 376 337 376 331.5 383 c 128,-1,30
 326 390 326 390 318 390 c 0,31,32
 308 390 308 390 289 376 c 128,-1,33
 270 362 270 362 253 343 c 0,34,35
 211 291 211 291 178.5 215.5 c 128,-1,36
 146 140 146 140 107 0 c 1,37,-1
 -15 0 l 1,38,-1
 53 237 l 2,39,40
 88 357 88 357 88 381 c 0,41,42
 88 407 88 407 42 407 c 2,43,-1
 34 407 l 1,44,-1
 34 434 l 1,45,46
 120 440 120 440 153 444.5 c 128,-1,47
 186 449 186 449 234 461 c 1,48,-1
 170 262 l 1,49,50
 201 310 201 310 221.5 338.5 c 128,-1,51
 242 367 242 367 270.5 399 c 128,-1,52
 299 431 299 431 328 446 c 128,-1,53
 357 461 357 461 388 461 c 0,54,55
 420 461 420 461 438 443.5 c 128,-1,56
 456 426 456 426 456 394 c 0,57,58
 456 361 456 361 429 290 c 1,59,60
 492 388 492 388 534 424.5 c 128,-1,61
 576 461 576 461 627 461 c 0,62,63
 660 461 660 461 682.5 441 c 128,-1,64
 705 421 705 421 705 391 c 0,65,66
 705 353 705 353 681 284 c 2,67,-1
 636 151 l 2,68,69
 615 83 615 83 615 73 c 0,70,71
 615 68 615 68 620 63.5 c 128,-1,72
 625 59 625 59 631 59 c 0,0,1
EndSplineSet
EndChar

StartChar: n
Encoding: 110 110 79
Width: 555
Flags: W
HStem: -9 68<312.5 402.492> 0 21G<-6 139.5> 390 71<326.065 424.5> 407 27<42 94.1719>
VStem: 267 120<27.3882 152.376> 354 121<298.53 389.554>
DStem2: -8.46212 -9 113.538 -9 0.263873 0.964557<41.5232 404.445> 294 182 412 163 0.312813 0.949815<-71.1335 196.246>
LayerCount: 3
Fore
SplineSet
179 264 m 1x24
 262 387 312 461 401 461 c 0
 448 461 475 435 475 387 c 0x24
 475 363 464 318 448 272 c 2
 412 163 l 2
 394 108 387 86 387 76 c 0
 387 66 393 59 401 59 c 0
 417 59 431 73 472 135 c 1
 494 122 l 1
 435 25 393 -9 334 -9 c 0
 291 -9 267 15 267 51 c 0xa8
 267 78 278 133 294 182 c 2
 349 349 l 2
 352 357 354 366 354 369 c 0
 354 379 341 390 330 390 c 0xa4
 311 390 280 368 261 341 c 1
 198 261 163 173 116 0 c 1
 -6 0 l 1
 4 37 12 62 23 108 c 1
 50 204 l 2
 83 324 97 371 97 382 c 0
 97 401 83 406 42 407 c 1
 42 434 l 1x54
 98 437 179 447 242 461 c 1
 179 264 l 1x24
EndSplineSet
Validated: 1
Layer: 2
SplineSet
179 264 m 1,0,1
 218 322 218 322 237.5 348.5 c 128,-1,2
 257 375 257 375 286 406.5 c 128,-1,3
 315 438 315 438 342 449.5 c 128,-1,4
 369 461 369 461 401 461 c 0,5,6
 436 461 436 461 455.5 442 c 128,-1,7
 475 423 475 423 475 387 c 0,8,9
 475 350 475 350 448 272 c 2,10,-1
 412 163 l 2,11,12
 387 87 387 87 387 76 c 0,13,14
 387 59 387 59 401 59 c 0,15,16
 413 59 413 59 427.5 74 c 128,-1,17
 442 89 442 89 472 135 c 1,18,-1
 494 122 l 1,19,20
 450 49 450 49 414 20 c 128,-1,21
 378 -9 378 -9 334 -9 c 0,22,23
 302 -9 302 -9 284.5 7.5 c 128,-1,24
 267 24 267 24 267 51 c 0,25,26
 267 99 267 99 294 182 c 2,27,-1
 349 349 l 2,28,29
 354 362 354 362 354 369 c 128,-1,30
 354 376 354 376 346 383 c 128,-1,31
 338 390 338 390 330 390 c 0,32,33
 316 390 316 390 295.5 375.5 c 128,-1,34
 275 361 275 361 261 341 c 0,35,36
 215 282 215 282 183.5 207.5 c 128,-1,37
 152 133 152 133 116 0 c 1,38,-1
 -6 0 l 1,39,40
 22 102 22 102 23 108 c 2,41,-1
 50 204 l 2,42,43
 97 375 97 375 97 382 c 0,44,45
 97 396 97 396 85 401 c 128,-1,46
 73 406 73 406 42 407 c 1,47,-1
 42 434 l 1,48,49
 145 440 145 440 242 461 c 1,50,-1
 179 264 l 1,0,1
EndSplineSet
EndChar

StartChar: o
Encoding: 111 111 80
Width: 499
Flags: W
HStem: -13 29<131.733 203.479> 434 27<236.088 306.126>
VStem: -3 119<59.025 220.475> 322 119<234.474 390.163>
LayerCount: 3
Fore
SplineSet
284 461 m 0
 375 461 441 398 441 311 c 0
 441 142 305 -13 157 -13 c 0
 64 -13 -3 50 -3 135 c 0
 -3 303 138 461 284 461 c 0
166 16 m 0
 268 16 322 299 322 375 c 0
 322 412 305 434 275 434 c 0
 162 434 116 147 116 78 c 0
 116 40 135 16 166 16 c 0
EndSplineSet
Validated: 1
Layer: 2
SplineSet
284 461 m 0,0,1
 352 461 352 461 396.5 418.5 c 128,-1,2
 441 376 441 376 441 311 c 0,3,4
 441 184 441 184 354.5 85.5 c 128,-1,5
 268 -13 268 -13 157 -13 c 0,6,7
 87 -13 87 -13 42 29 c 128,-1,8
 -3 71 -3 71 -3 135 c 0,9,10
 -3 261 -3 261 85.5 361 c 128,-1,11
 174 461 174 461 284 461 c 0,0,1
166 16 m 0,12,13
 202 16 202 16 233 61 c 128,-1,14
 264 106 264 106 282.5 168 c 128,-1,15
 301 230 301 230 311.5 286.5 c 128,-1,16
 322 343 322 343 322 375 c 0,17,18
 322 434 322 434 275 434 c 0,19,20
 236 434 236 434 203 389 c 128,-1,21
 170 344 170 344 152.5 281 c 128,-1,22
 135 218 135 218 125.5 163.5 c 128,-1,23
 116 109 116 109 116 78 c 0,24,25
 116 49 116 49 129.5 32.5 c 128,-1,26
 143 16 143 16 166 16 c 0,12,13
EndSplineSet
EndChar

StartChar: p
Encoding: 112 112 81
Width: 499
Flags: W
HStem: -205 26<-120 -72.4113 73.3557 129> -13 35<119.385 195.407> 391 70<265.423 371> 407 27<23 75.063>
VStem: 321 124<230.111 385.677>
DStem2: -72.6305 -205 43.0126 -205 0.263873 0.964557<95.1707 252.232>
LayerCount: 3
Fore
SplineSet
23 407 m 1xd8
 23 434 l 1xd8
 75 439 114 445 215 461 c 1
 179 347 l 1
 237 431 281 461 338 461 c 0xe8
 404 461 445 415 445 341 c 0
 445 168 305 -13 168 -13 c 0
 148 -13 136 -9 101 9 c 1
 98 -4 l 1
 98 -4 64 -119 64 -145 c 0
 64 -168 81 -177 129 -179 c 1
 129 -205 l 1
 -120 -205 l 1
 -120 -179 l 1
 -114 -179 l 2
 -73 -179 -62 -166 -45 -104 c 2
 56 284 l 1
 67 333 78 374 78 382 c 0
 78 401 67 404 23 407 c 1xd8
321 342 m 0
 321 371 305 391 280 391 c 0xe8
 254 391 222 367 198 330 c 0
 164 276 113 73 113 59 c 0
 113 38 130 22 152 22 c 0
 254 22 321 276 321 342 c 0
EndSplineSet
Validated: 1
Layer: 2
SplineSet
23 407 m 1,0,-1
 23 434 l 1,1,2
 78 439 78 439 215 461 c 1,3,-1
 179 347 l 1,4,5
 222 409 222 409 258.5 435 c 128,-1,6
 295 461 295 461 338 461 c 0,7,8
 387 461 387 461 416 429 c 128,-1,9
 445 397 445 397 445 341 c 0,10,11
 445 211 445 211 357.5 99 c 128,-1,12
 270 -13 270 -13 168 -13 c 0,13,14
 144 -13 144 -13 101 9 c 1,15,-1
 98 -4 l 1,16,17
 64 -119 64 -119 64 -145 c 0,18,19
 64 -162 64 -162 78.5 -170 c 128,-1,20
 93 -178 93 -178 129 -179 c 1,21,-1
 129 -205 l 1,22,-1
 -120 -205 l 1,23,-1
 -120 -179 l 1,24,-1
 -114 -179 l 2,25,26
 -83 -179 -83 -179 -70.5 -165 c 128,-1,27
 -58 -151 -58 -151 -45 -104 c 2,28,-1
 56 284 l 1,29,-1
 78 382 l 2,30,31
 78 396 78 396 67.5 400.5 c 128,-1,32
 57 405 57 405 23 407 c 1,0,-1
321 342 m 0,33,34
 321 364 321 364 310 377.5 c 128,-1,35
 299 391 299 391 280 391 c 0,36,37
 238 391 238 391 198 330 c 0,38,39
 176 295 176 295 144.5 185.5 c 128,-1,40
 113 76 113 76 113 59 c 0,41,42
 113 43 113 43 124 32.5 c 128,-1,43
 135 22 135 22 152 22 c 0,44,45
 188 22 188 22 221 62.5 c 128,-1,46
 254 103 254 103 275 158 c 128,-1,47
 296 213 296 213 308.5 264 c 128,-1,48
 321 315 321 315 321 342 c 0,33,34
EndSplineSet
EndChar

StartChar: q
Encoding: 113 113 82
Width: 499
Flags: W
HStem: -205 26<104 163.337 311.561 371> -13 72<73 179.403> 419 42<244.486 319.582> 430 20G<357 472>
VStem: 1 125<62.9796 222.709>
LayerCount: 3
Fore
SplineSet
472 450 m 1xd8
 347 -3 306 -121 306 -149 c 0
 306 -170 321 -179 357 -179 c 2
 371 -179 l 1
 371 -205 l 1
 104 -205 l 1
 104 -179 l 1
 166 -174 177 -167 193 -116 c 2
 256 98 l 1
 205 16 166 -13 105 -13 c 0
 41 -13 1 37 1 117 c 0
 1 267 145 461 275 461 c 0xe8
 335 461 340 423 347 390 c 1
 362 450 l 1
 472 450 l 1xd8
325 371 m 0
 325 408 303 419 289 419 c 0
 210 419 126 206 126 116 c 0
 126 78 139 59 166 59 c 0
 260 59 325 309 325 371 c 0
EndSplineSet
Validated: 1
Layer: 2
SplineSet
472 450 m 1,0,1
 439 329 439 329 407.5 218.5 c 128,-1,2
 376 108 376 108 359 50 c 128,-1,3
 342 -8 342 -8 329 -54.5 c 128,-1,4
 316 -101 316 -101 311 -121 c 128,-1,5
 306 -141 306 -141 306 -149 c 0,6,7
 306 -179 306 -179 357 -179 c 2,8,-1
 371 -179 l 1,9,-1
 371 -205 l 1,10,-1
 104 -205 l 1,11,-1
 104 -179 l 1,12,13
 151 -175 151 -175 166 -164.5 c 128,-1,14
 181 -154 181 -154 193 -116 c 2,15,-1
 256 98 l 1,16,17
 218 36 218 36 184.5 11.5 c 128,-1,18
 151 -13 151 -13 105 -13 c 0,19,20
 57 -13 57 -13 29 22 c 128,-1,21
 1 57 1 57 1 117 c 0,22,23
 1 191 1 191 42 271.5 c 128,-1,24
 83 352 83 352 147.5 406.5 c 128,-1,25
 212 461 212 461 275 461 c 0,26,27
 296 461 296 461 310 455.5 c 128,-1,28
 324 450 324 450 331.5 436.5 c 128,-1,29
 339 423 339 423 341 416 c 128,-1,30
 343 409 343 409 347 390 c 1,31,-1
 362 450 l 1,32,-1
 472 450 l 1,0,1
325 371 m 0,33,34
 325 396 325 396 313.5 407.5 c 128,-1,35
 302 419 302 419 289 419 c 0,36,37
 252 419 252 419 212.5 361.5 c 128,-1,38
 173 304 173 304 149.5 233 c 128,-1,39
 126 162 126 162 126 116 c 0,40,41
 126 59 126 59 166 59 c 0,42,43
 209 59 209 59 248 125.5 c 128,-1,44
 287 192 287 192 306 263 c 128,-1,45
 325 334 325 334 325 371 c 0,33,34
EndSplineSet
EndChar

StartChar: r
Encoding: 114 114 83
Width: 388
Flags: W
HStem: 0 21G<-21 118> 360 101<263 355.237> 407 27<26 76.1929>
LayerCount: 3
Fore
SplineSet
330 324 m 0xc0
 294 324 285 360 270 360 c 0xc0
 256 360 234 335 209 291 c 1
 156 203 136 101 100 0 c 1
 -21 0 l 1
 47 229 81 357 81 382 c 0
 81 401 72 404 26 407 c 1
 26 434 l 1xa0
 148 444 167 447 227 461 c 1
 161 253 l 1
 240 412 281 461 333 461 c 0
 366 461 390 437 390 395 c 0
 390 354 365 324 330 324 c 0xc0
EndSplineSet
Validated: 1
Layer: 2
SplineSet
330 324 m 0,0,1
 309 324 309 324 292 342 c 128,-1,2
 275 360 275 360 270 360 c 0,3,4
 248 360 248 360 209 291 c 0,5,6
 185 252 185 252 167.5 205.5 c 128,-1,7
 150 159 150 159 130.5 94.5 c 128,-1,8
 111 30 111 30 100 0 c 1,9,-1
 -21 0 l 1,10,11
 81 343 81 343 81 382 c 0,12,13
 81 396 81 396 71 400.5 c 128,-1,14
 61 405 61 405 26 407 c 1,15,-1
 26 434 l 1,16,17
 157 445 157 445 227 461 c 1,18,-1
 161 253 l 1,19,20
 220 372 220 372 257 416.5 c 128,-1,21
 294 461 294 461 333 461 c 0,22,23
 358 461 358 461 374 443.5 c 128,-1,24
 390 426 390 426 390 395 c 128,-1,25
 390 364 390 364 373 344 c 128,-1,26
 356 324 356 324 330 324 c 0,0,1
EndSplineSet
EndChar

StartChar: s
Encoding: 115 115 84
Width: 388
Flags: W
HStem: -13 31<80.9317 165.47> 429 32<155.489 239.246>
VStem: 3 26<99.5 149> 47 95<324.901 409.009> 183 95<49.0502 128.794> 283 28<311 356.682>
LayerCount: 3
Fore
SplineSet
182 461 m 0
 230 461 252 439 275 439 c 0
 290 439 293 442 305 461 c 1
 333 461 l 1
 311 308 l 1
 283 311 l 1
 267 393 242 429 195 429 c 0
 163 429 142 409 142 376 c 0
 142 314 278 223 278 119 c 0
 278 44 215 -13 130 -13 c 0
 88 -13 56 7 37 7 c 0
 23 7 12 -1 7 -13 c 1
 -19 -13 l 1
 3 152 l 1
 29 149 l 1
 34 118 48 18 126 18 c 0
 158 18 183 41 183 70 c 0
 183 97 166 130 127 174 c 1
 62 253 47 283 47 335 c 0
 47 412 100 461 182 461 c 0
EndSplineSet
Validated: 1
Layer: 2
SplineSet
182 461 m 0,0,1
 209 461 209 461 238 450 c 128,-1,2
 267 439 267 439 275 439 c 0,3,4
 286 439 286 439 291 442.5 c 128,-1,5
 296 446 296 446 305 461 c 1,6,-1
 333 461 l 1,7,-1
 311 308 l 1,8,-1
 283 311 l 1,9,10
 271 373 271 373 250.5 401 c 128,-1,11
 230 429 230 429 195 429 c 0,12,13
 171 429 171 429 156.5 415 c 128,-1,14
 142 401 142 401 142 376 c 0,15,16
 142 356 142 356 163 324.5 c 128,-1,17
 184 293 184 293 210 263.5 c 128,-1,18
 236 234 236 234 257 194 c 128,-1,19
 278 154 278 154 278 119 c 0,20,21
 278 63 278 63 236 25 c 128,-1,22
 194 -13 194 -13 130 -13 c 0,23,24
 106 -13 106 -13 75 -3 c 128,-1,25
 44 7 44 7 37 7 c 0,26,27
 15 7 15 7 7 -13 c 1,28,-1
 -19 -13 l 1,29,-1
 3 152 l 1,30,-1
 29 149 l 1,31,32
 50 18 50 18 126 18 c 0,33,34
 150 18 150 18 166.5 33 c 128,-1,35
 183 48 183 48 183 70 c 0,36,37
 183 111 183 111 127 174 c 0,38,39
 78 233 78 233 62.5 264.5 c 128,-1,40
 47 296 47 296 47 335 c 0,41,42
 47 393 47 393 83.5 427 c 128,-1,43
 120 461 120 461 182 461 c 0,0,1
EndSplineSet
EndChar

StartChar: t
Encoding: 116 116 85
Width: 276
Flags: W
HStem: -9 71<38.5 128.635> 407 43<209 281> 407 35<29 67.4786> 575 20G<186 248>
VStem: -12 123<32.0929 156.879> 212 36<569.526 595>
DStem2: -35.4217 -9 84.1953 -9 0.263873 0.964557<184.146 431.976>
LayerCount: 3
Fore
SplineSet
198 407 m 1xbc
 160 261 111 110 111 76 c 0
 111 69 119 62 127 62 c 0
 144 62 168 88 204 141 c 1
 226 127 l 1
 160 23 119 -9 59 -9 c 0
 18 -9 -12 18 -12 56 c 0
 -12 73 -1 119 13 168 c 2
 81 407 l 1
 29 407 l 1
 29 442 l 1xbc
 108 472 160 513 212 595 c 1
 248 595 l 1
 209 450 l 1
 281 450 l 1
 281 407 l 1xdc
 198 407 l 1xbc
EndSplineSet
Validated: 1
Layer: 2
SplineSet
198 407 m 1,0,1
 184 353 184 353 160 269.5 c 128,-1,2
 136 186 136 186 123.5 138.5 c 128,-1,3
 111 91 111 91 111 76 c 0,4,5
 111 71 111 71 116 66.5 c 128,-1,6
 121 62 121 62 127 62 c 0,7,8
 150 62 150 62 204 141 c 1,9,-1
 226 127 l 1,10,11
 177 50 177 50 140.5 20.5 c 128,-1,12
 104 -9 104 -9 59 -9 c 0,13,14
 28 -9 28 -9 8 9.5 c 128,-1,15
 -12 28 -12 28 -12 56 c 0,16,17
 -12 80 -12 80 13 168 c 2,18,-1
 81 407 l 1,19,-1
 29 407 l 1,20,-1
 29 442 l 1,21,22
 89 465 89 465 131.5 500 c 128,-1,23
 174 535 174 535 212 595 c 1,24,-1
 248 595 l 1,25,-1
 209 450 l 1,26,-1
 281 450 l 1,27,-1
 281 407 l 1,28,-1
 198 407 l 1,0,1
EndSplineSet
EndChar

StartChar: u
Encoding: 117 117 86
Width: 555
Flags: W
HStem: -9 72<87.0466 163.632 336.002 396.206> 407 27<34 84.7919> 441 9G<232.5 236.876 342 488>
VStem: 15 118<39.5026 170.688> 267 118<26.0982 162.479>
DStem2: -12.7896 -9 104.408 -9 0.263873 0.964557<132.706 400.375> 243.493 -9 357.748 -9 0.263873 0.964557<119.773 176.247 202.844 476.377>
LayerCount: 3
Fore
SplineSet
472 133 m 1
 492 120 l 1
 439 31 391 -9 331 -9 c 0
 287 -9 267 12 267 51 c 0
 267 79 272 105 290 161 c 1
 187 18 157 -9 89 -9 c 0
 41 -9 15 16 15 64 c 0
 15 89 22 125 37 173 c 2
 76 306 l 2
 85 335 89 363 89 379 c 0
 89 398 81 404 34 407 c 1
 34 434 l 1
 149 441 222 461 243 461 c 1
 149 154 l 2
 136 111 133 103 133 88 c 0
 133 70 141 63 155 63 c 0
 174 63 196 81 229 119 c 1
 286 190 313 256 371 450 c 1
 488 450 l 1
 410 182 l 1
 385 86 385 86 385 76 c 0
 385 67 391 59 398 59 c 0
 416 59 437 81 472 133 c 1
EndSplineSet
Validated: 1
Layer: 2
SplineSet
472 133 m 1,0,-1
 492 120 l 1,1,2
 452 53 452 53 414 22 c 128,-1,3
 376 -9 376 -9 331 -9 c 0,4,5
 267 -9 267 -9 267 51 c 0,6,7
 267 89 267 89 290 161 c 1,8,9
 212 53 212 53 176 22 c 128,-1,10
 140 -9 140 -9 89 -9 c 0,11,12
 15 -9 15 -9 15 64 c 0,13,14
 15 103 15 103 37 173 c 2,15,-1
 76 306 l 2,16,17
 89 348 89 348 89 379 c 0,18,19
 89 394 89 394 78.5 399.5 c 128,-1,20
 68 405 68 405 34 407 c 1,21,-1
 34 434 l 1,22,23
 84 437 84 437 132 444 c 128,-1,24
 180 451 180 451 208 456 c 128,-1,25
 236 461 236 461 243 461 c 1,26,-1
 149 154 l 2,27,28
 133 101 133 101 133 88 c 0,29,30
 133 63 133 63 155 63 c 0,31,32
 180 63 180 63 229 119 c 0,33,34
 271 172 271 172 299 237 c 128,-1,35
 327 302 327 302 371 450 c 1,36,-1
 488 450 l 1,37,-1
 410 182 l 2,38,39
 385 86 385 86 385 76 c 0,40,41
 385 59 385 59 398 59 c 0,42,43
 422 59 422 59 472 133 c 1,0,-1
EndSplineSet
EndChar

StartChar: v
Encoding: 118 118 87
Width: 443
Flags: W
HStem: -13 21G<85 143.5> 407 27<16 60.2591> 441 20G<146.5 181.5 325.5 355.5>
VStem: 89 113<127 376.538> 328 73<310.198 413>
LayerCount: 3
Fore
SplineSet
401 395 m 0
 401 256 176 49 111 -13 c 1
 85 -13 l 1
 89 123 l 1
 89 164 l 2
 89 271 79 359 62 391 c 0
 56 404 47 407 16 407 c 1
 16 434 l 1
 100 445 122 450 171 461 c 1
 192 382 198 324 202 127 c 1
 300 240 328 281 328 316 c 0
 328 347 284 362 284 404 c 0
 284 434 311 461 340 461 c 0
 371 461 401 431 401 395 c 0
EndSplineSet
Validated: 1
Layer: 2
SplineSet
401 395 m 0,0,1
 401 262 401 262 120.708794415 -3.77149815478 c 0,2,3
 114 -10 114 -10 111 -13 c 2,4,-1
 85 -13 l 1,5,-1
 89 123 l 1,6,-1
 89 164 l 2,7,8
 89 340 89 340 62 391 c 0,9,10
 55 407 55 407 16 407 c 1,11,-1
 16 434 l 1,12,13
 99 445 99 445 171 461 c 1,14,15
 187 401 187 401 193 337 c 128,-1,16
 199 273 199 273 202 127 c 1,17,18
 276 212 276 212 302 251 c 128,-1,19
 328 290 328 290 328 316 c 0,20,21
 328 330 328 330 306 356 c 128,-1,22
 284 382 284 382 284 404 c 128,-1,23
 284 426 284 426 301 443.5 c 128,-1,24
 318 461 318 461 340 461 c 0,25,26
 364 461 364 461 382.5 441.5 c 128,-1,27
 401 422 401 422 401 395 c 0,0,1
EndSplineSet
EndChar

StartChar: w
Encoding: 119 119 88
Width: 666
Flags: W
HStem: -13 21G<95 135.256 313.316 434> 407 27<16 61.0482> 441 20G<150.5 182 348.613 388.934 538.5 569>
VStem: 95 109<187 366.116> 538 76<296 417>
DStem2: 419 130 291 272 0.0962281 -0.995359<-153.658 0>
LayerCount: 3
Fore
SplineSet
538 311 m 0
 538 341 497 366 497 401 c 0
 497 434 523 461 554 461 c 0
 584 461 614 434 614 400 c 0
 614 316 527 183 341 -13 c 1
 315 -13 l 1
 291 272 l 1
 284 255 187 84 179 73 c 2
 122 -13 l 1
 95 -13 l 1
 97 32 l 1
 97 72 l 1
 95 149 l 2
 92 289 78 381 59 398 c 0
 50 406 41 407 16 407 c 1
 16 434 l 1
 100 448 130 453 171 461 c 1
 193 376 201 312 204 187 c 1
 360 461 l 1
 387 461 l 1
 419 130 l 1
 508 234 538 281 538 311 c 0
EndSplineSet
Validated: 1
Layer: 2
SplineSet
538 311 m 0,0,1
 538 325 538 325 517.5 354 c 128,-1,2
 497 383 497 383 497 401 c 0,3,4
 497 426 497 426 514 443.5 c 128,-1,5
 531 461 531 461 554 461 c 128,-1,6
 577 461 577 461 595.5 443 c 128,-1,7
 614 425 614 425 614 400 c 0,8,9
 614 275 614 275 341 -13 c 1,10,-1
 315 -13 l 1,11,-1
 291 272 l 1,12,13
 286 260 286 260 235.5 171 c 128,-1,14
 185 82 185 82 179 73 c 2,15,-1
 122 -13 l 1,16,-1
 95 -13 l 1,17,-1
 97 32 l 1,18,-1
 97 72 l 1,19,-1
 95 149 l 2,20,21
 90 370 90 370 59 398 c 0,22,23
 49 407 49 407 16 407 c 1,24,-1
 16 434 l 1,25,26
 130 453 130 453 171 461 c 1,27,28
 200 348 200 348 204 187 c 1,29,-1
 360 461 l 1,30,-1
 387 461 l 1,31,-1
 419 130 l 1,32,33
 538 269 538 269 538 311 c 0,0,1
EndSplineSet
EndChar

StartChar: x
Encoding: 120 120 89
Width: 499
Flags: W
HStem: -13 94<-11.3018 79.1868> -13 77<236 342.5> 368 93<351.28 433.132> 412 26<41 75.581>
DStem2: 163 192 149 103 0.562578 0.826744<-143.663 -35.7114 159.762 249.743>
LayerCount: 3
Fore
SplineSet
413 349 m 0x20
 384 349 375 368 356 368 c 0
 321 368 285 307 264 272 c 1
 296 117 l 1
 305 79 313 64 333 64 c 0
 352 64 360 73 400 123 c 1
 420 108 l 1
 360 21 318 -13 270 -13 c 0x60
 202 -13 184 81 173 142 c 1
 149 103 l 2
 91 7 67 -13 18 -13 c 0
 -21 -13 -45 12 -45 45 c 0
 -45 78 -22 103 9 103 c 0
 36 103 52 81 70 81 c 0
 86 81 98 89 119 122 c 2
 163 192 l 1
 132 346 l 2
 122 395 108 413 76 413 c 0
 67 413 62 413 41 412 c 1
 41 438 l 1x90
 208 461 l 1
 227 434 234 409 253 324 c 1
 333 435 365 461 412 461 c 0
 441 461 469 434 469 400 c 0
 469 372 442 349 413 349 c 0x20
EndSplineSet
Validated: 1
Layer: 2
SplineSet
413 349 m 0,0,1
 397 349 397 349 380.5 358.5 c 128,-1,2
 364 368 364 368 356 368 c 0,3,4
 340 368 340 368 320.5 349 c 128,-1,5
 301 330 301 330 290.5 314.5 c 128,-1,6
 280 299 280 299 264 272 c 1,7,-1
 296 117 l 2,8,9
 303 87 303 87 310.5 75.5 c 128,-1,10
 318 64 318 64 333 64 c 0,11,12
 347 64 347 64 358 74 c 128,-1,13
 369 84 369 84 400 123 c 1,14,-1
 420 108 l 1,15,16
 375 43 375 43 340.5 15 c 128,-1,17
 306 -13 306 -13 270 -13 c 0,18,19
 251 -13 251 -13 235 -2 c 128,-1,20
 219 9 219 9 209.5 23 c 128,-1,21
 200 37 200 37 192 61.5 c 128,-1,22
 184 86 184 86 180.5 101.5 c 128,-1,23
 177 117 177 117 173 142 c 1,24,-1
 149 103 l 2,25,26
 106 32 106 32 80.5 9.5 c 128,-1,27
 55 -13 55 -13 18 -13 c 0,28,29
 -11 -13 -11 -13 -28 3.5 c 128,-1,30
 -45 20 -45 20 -45 45 c 128,-1,31
 -45 70 -45 70 -29.5 86.5 c 128,-1,32
 -14 103 -14 103 9 103 c 0,33,34
 24 103 24 103 43 92 c 128,-1,35
 62 81 62 81 70 81 c 0,36,37
 93 81 93 81 119 122 c 2,38,-1
 163 192 l 1,39,-1
 132 346 l 2,40,41
 124 383 124 383 112 398 c 128,-1,42
 100 413 100 413 76 413 c 0,43,44
 62 413 62 413 41 412 c 1,45,-1
 41 438 l 1,46,-1
 208 461 l 1,47,48
 222 441 222 441 230 415.5 c 128,-1,49
 238 390 238 390 253 324 c 1,50,51
 312 406 312 406 344 433.5 c 128,-1,52
 376 461 376 461 412 461 c 0,53,54
 434 461 434 461 451.5 443 c 128,-1,55
 469 425 469 425 469 400 c 0,56,57
 469 379 469 379 452 364 c 128,-1,58
 435 349 435 349 413 349 c 0,0,1
EndSplineSet
EndChar

StartChar: y
Encoding: 121 121 90
Width: 443
Flags: W
HStem: -205 80<-56.0436 65> 412 26<15 50.9681> 441 20G<139.5 172.5 315 346.5>
VStem: 328 65<299.249 415>
LayerCount: 3
Fore
SplineSet
50 -125 m 0
 80 -125 142 -63 142 -4 c 0
 142 26 125 125 92 284 c 1
 67 410 44 412 15 412 c 1
 15 438 l 1
 79 444 116 450 163 461 c 1
 182 415 207 303 229 185 c 1
 242 110 l 1
 311 243 328 286 328 315 c 0
 328 353 272 349 272 404 c 0
 272 435 300 461 330 461 c 0
 363 461 393 432 393 398 c 0
 393 297 272 60 144 -100 c 1
 88 -166 23 -205 -32 -205 c 0
 -67 -205 -94 -179 -94 -145 c 0
 -94 -116 -70 -89 -44 -89 c 0
 -3 -89 23 -125 50 -125 c 0
EndSplineSet
Validated: 1
Layer: 2
SplineSet
50 -125 m 0,0,1
 75 -125 75 -125 108.5 -85 c 128,-1,2
 142 -45 142 -45 142 -4 c 0,3,4
 142 43 142 43 92 284 c 0,5,6
 80 343 80 343 66.5 372.5 c 128,-1,7
 53 402 53 402 43 407 c 128,-1,8
 33 412 33 412 15 412 c 1,9,-1
 15 438 l 1,10,11
 98 446 98 446 163 461 c 1,12,13
 190 397 190 397 229 185 c 2,14,-1
 242 110 l 1,15,16
 328 276 328 276 328 315 c 0,17,18
 328 327 328 327 319 337 c 128,-1,19
 310 347 310 347 300 353 c 128,-1,20
 290 359 290 359 281 372 c 128,-1,21
 272 385 272 385 272 404 c 0,22,23
 272 427 272 427 289.5 444 c 128,-1,24
 307 461 307 461 330 461 c 0,25,26
 355 461 355 461 374 442 c 128,-1,27
 393 423 393 423 393 398 c 0,28,29
 393 323 393 323 317 172 c 128,-1,30
 241 21 241 21 144 -100 c 0,31,32
 55 -205 55 -205 -32 -205 c 0,33,34
 -58 -205 -58 -205 -76 -187.5 c 128,-1,35
 -94 -170 -94 -170 -94 -145 c 0,36,37
 -94 -123 -94 -123 -78.5 -106 c 128,-1,38
 -63 -89 -63 -89 -44 -89 c 0,39,40
 -22 -89 -22 -89 8 -107 c 128,-1,41
 38 -125 38 -125 50 -125 c 0,0,1
EndSplineSet
EndChar

StartChar: z
Encoding: 122 122 91
Width: 388
Flags: W
HStem: -78 30<214.268 263.085> 353 97<61.1973 249>
VStem: 13 28<293.25 319.395> 264 82<-42.1286 33.4096>
DStem2: -42 -1 86 104 0.635019 0.772497<162.395 458.254>
LayerCount: 3
Fore
SplineSet
34 4 m 0
 13 4 2 -11 -18 -23 c 1
 -42 -1 l 1
 249 353 l 1
 104 353 l 2
 75 353 59 338 41 291 c 1
 13 294 l 1
 56 450 l 1
 368 450 l 1
 368 439 l 1
 86 104 l 1
 138 82 163 59 193 -1 c 0
 211 -37 223 -48 242 -48 c 0
 253 -48 264 -42 264 -34 c 0
 264 -24 243 -7 243 13 c 0
 243 41 267 64 293 64 c 0
 321 64 346 41 346 13 c 0
 346 -38 299 -78 237 -78 c 0
 143 -78 90 4 34 4 c 0
EndSplineSet
Validated: 1
Layer: 2
SplineSet
34 4 m 0,0,1
 25 4 25 4 17 0.5 c 128,-1,2
 9 -3 9 -3 -1.5 -11 c 128,-1,3
 -12 -19 -12 -19 -18 -23 c 1,4,-1
 -42 -1 l 1,5,-1
 249 353 l 1,6,-1
 104 353 l 2,7,8
 82 353 82 353 68 339.5 c 128,-1,9
 54 326 54 326 41 291 c 1,10,-1
 13 294 l 1,11,-1
 56 450 l 1,12,-1
 368 450 l 1,13,-1
 368 439 l 1,14,-1
 86 104 l 1,15,16
 126 87 126 87 148.5 65 c 128,-1,17
 171 43 171 43 193 -1 c 0,18,19
 216 -48 216 -48 242 -48 c 0,20,21
 251 -48 251 -48 257.5 -44 c 128,-1,22
 264 -40 264 -40 264 -34 c 0,23,24
 264 -30 264 -30 253.5 -14 c 128,-1,25
 243 2 243 2 243 13 c 0,26,27
 243 34 243 34 258 49 c 128,-1,28
 273 64 273 64 293 64 c 0,29,30
 314 64 314 64 330 49 c 128,-1,31
 346 34 346 34 346 13 c 0,32,33
 346 -25 346 -25 314.5 -51.5 c 128,-1,34
 283 -78 283 -78 237 -78 c 0,35,36
 197 -78 197 -78 158 -57.5 c 128,-1,37
 119 -37 119 -37 87.5 -16.5 c 128,-1,38
 56 4 56 4 34 4 c 0,0,1
EndSplineSet
EndChar

StartChar: braceleft
Encoding: 123 123 92
Width: 347
Flags: W
HStem: -187 13<185.213 209> 674 12<408.671 434>
VStem: 28 104<-151.814 8.41075> 89 101<79.039 222.253>
DStem2: -9.01015 -187 95.1599 -187 0.263873 0.964557<517.489 859.53>
LayerCount: 3
Fore
SplineSet
28 -97 m 0xe0
 28 -16 89 116 89 179 c 0
 89 214 67 233 4 249 c 1
 94 268 122 293 142 365 c 1
 187 543 l 1
 220 653 277 686 437 686 c 1
 434 674 l 1
 352 659 315 625 294 549 c 1
 250 379 l 2
 227 294 196 268 100 249 c 1
 174 229 190 215 190 173 c 0xd0
 190 99 132 -30 132 -97 c 0
 132 -144 154 -164 212 -174 c 1
 209 -187 l 1
 100 -185 28 -175 28 -97 c 0xe0
EndSplineSet
Validated: 1
Layer: 2
SplineSet
28 -97 m 0,0,1
 28 -54 28 -54 58.5 48 c 128,-1,2
 89 150 89 150 89 179 c 0,3,4
 89 205 89 205 70 221 c 128,-1,5
 51 237 51 237 4 249 c 1,6,7
 71 263 71 263 99 287 c 128,-1,8
 127 311 127 311 142 365 c 2,9,-1
 187 543 l 2,10,11
 212 626 212 626 264.5 656 c 128,-1,12
 317 686 317 686 437 686 c 1,13,-1
 434 674 l 1,14,15
 373 663 373 663 341.5 634.5 c 128,-1,16
 310 606 310 606 294 549 c 2,17,-1
 250 379 l 2,18,19
 233 315 233 315 202.5 289 c 128,-1,20
 172 263 172 263 100 249 c 1,21,22
 155 234 155 234 172.5 219.5 c 128,-1,23
 190 205 190 205 190 173 c 0,24,25
 190 135 190 135 161 35.5 c 128,-1,26
 132 -64 132 -64 132 -97 c 0,27,28
 132 -132 132 -132 150 -149 c 128,-1,29
 168 -166 168 -166 212 -174 c 1,30,-1
 209 -187 l 1,31,32
 115 -185 115 -185 71.5 -168 c 128,-1,33
 28 -151 28 -151 28 -97 c 0,0,1
EndSplineSet
EndChar

StartChar: bar
Encoding: 124 124 93
Width: 219
Flags: W
HStem: -18 21G<66 154> 666 20G<66 154>
VStem: 66 88<-18 686>
LayerCount: 3
Fore
SplineSet
66 -18 m 1
 66 686 l 1
 154 686 l 1
 154 -18 l 1
 66 -18 l 1
EndSplineSet
Validated: 1
Layer: 2
SplineSet
66 -18 m 1,0,-1
 66 686 l 1,1,-1
 154 686 l 1,2,-1
 154 -18 l 1,3,-1
 66 -18 l 1,0,-1
EndSplineSet
EndChar

StartChar: braceright
Encoding: 125 125 94
Width: 347
Flags: W
HStem: -187 13<-126 -100.518> 674 12<97 117.827>
VStem: 116 102<277.111 419.979> 174 104<486.425 651.204>
DStem2: -25.2054 -187 80.1532 -187 0.263873 0.964557<79.0828 416.98>
LayerCount: 3
Fore
SplineSet
278 598 m 0xd0
 278 508 218 380 218 319 c 0
 218 286 240 267 302 250 c 1
 212 230 185 207 166 133 c 2
 119 -45 l 1
 88 -154 29 -187 -129 -187 c 1
 -126 -174 l 1
 -45 -160 -7 -127 12 -51 c 2
 57 120 l 1
 81 205 110 231 208 250 c 1
 133 270 116 284 116 327 c 0xe0
 116 389 174 524 174 598 c 0
 174 642 151 664 94 674 c 1
 97 686 l 1
 190 684 229 677 253 655 c 1
 271 640 278 621 278 598 c 0xd0
EndSplineSet
Validated: 1
Layer: 2
SplineSet
278 598 m 0,0,1
 278 549 278 549 248 447.5 c 128,-1,2
 218 346 218 346 218 319 c 0,3,4
 218 294 218 294 237 278.5 c 128,-1,5
 256 263 256 263 302 250 c 1,6,7
 234 235 234 235 207 211.5 c 128,-1,8
 180 188 180 188 166 133 c 2,9,-1
 119 -45 l 2,10,11
 96 -127 96 -127 43 -157 c 128,-1,12
 -10 -187 -10 -187 -129 -187 c 1,13,-1
 -126 -174 l 1,14,15
 -65 -163 -65 -163 -33.5 -135.5 c 128,-1,16
 -2 -108 -2 -108 12 -51 c 2,17,-1
 57 120 l 2,18,19
 75 184 75 184 105 210 c 128,-1,20
 135 236 135 236 208 250 c 1,21,22
 152 265 152 265 134 280 c 128,-1,23
 116 295 116 295 116 327 c 0,24,25
 116 357 116 357 145 458.5 c 128,-1,26
 174 560 174 560 174 598 c 0,27,28
 174 631 174 631 155.5 649 c 128,-1,29
 137 667 137 667 94 674 c 1,30,-1
 97 686 l 1,31,32
 168 684 168 684 201.5 677.5 c 128,-1,33
 235 671 235 671 253 655 c 0,34,35
 278 634 278 634 278 598 c 0,0,1
EndSplineSet
EndChar

StartChar: asciitilde
Encoding: 126 126 95
Width: 569
Flags: W
HStem: 174 90<321.513 441.589> 243 88<124.086 262.322>
LayerCount: 3
Fore
SplineSet
174 331 m 0x40
 258 331 337 264 393 264 c 0
 416 264 437 275 461 308 c 1
 516 261 l 1
 470 196 439 174 393 174 c 0x80
 312 174 266 243 176 243 c 0
 146 243 130 233 107 201 c 1
 54 248 l 1
 86 305 125 331 174 331 c 0x40
EndSplineSet
Validated: 1
Layer: 2
SplineSet
174 331 m 0,0,1
 220 331 220 331 294 297.5 c 128,-1,2
 368 264 368 264 393 264 c 0,3,4
 429 264 429 264 461 308 c 1,5,-1
 516 261 l 1,6,7
 481 212 481 212 454 193 c 128,-1,8
 427 174 427 174 393 174 c 0,9,10
 354 174 354 174 288 208.5 c 128,-1,11
 222 243 222 243 176 243 c 0,12,13
 154 243 154 243 139 234 c 128,-1,14
 124 225 124 225 107 201 c 1,15,-1
 54 248 l 1,16,17
 101 331 101 331 174 331 c 0,0,1
EndSplineSet
EndChar

StartChar: uni0E10.descless
Encoding: 63232 63232 96
Width: 484
Flags: W
HStem: -5 50<274.651 321.432> 315 43<164.451 245.959> 489 76<404.93 534.337> 528 70<259.761 384.648>
VStem: 113 43<219.313 306.141> 183 91<45.5638 99.1698> 256 74<217.797 305.77> 399 100<273.234 372.63>
DStem2: 215 478 139 445 0.957187 -0.289472<0 212.445> 303.388 -5 400.634 -5 0.263873 0.964557<58.7375 369.349>
LayerCount: 3
Fore
SplineSet
588 585 m 3xed
 588 574 571 546 554 528 c 0xdd
 529 502 499 489 467 489 c 3xed
 444 489 423 493 376 509 c 0
 333 524 315 528 295 528 c 3
 261 528 236 512 215 478 c 1
 454 407 l 2
 491 394 499 385 499 359 c 3
 499 351 498 343 495 335 c 2
 431 106 l 2
 411 33 359 -5 278 -5 c 3
 220 -5 183 26 183 75 c 3xdd
 183 86 184 96 187 106 c 2
 204 166 l 1
 147 170 113 209 113 269 c 3
 113 318 157 358 211 358 c 3
 282 358 330 326 330 278 c 3xdb
 330 272 329 265 327 258 c 2
 276 75 l 2
 274 69 274 66 274 63 c 3
 274 52 280 45 291 45 c 3
 306 45 320 56 325 74 c 2
 396 333 l 2
 398 341 399 347 399 352 c 3
 399 363 395 368 387 370 c 2
 139 445 l 1
 204 552 266 598 346 598 c 3xdd
 362 598 377 595 417 583 c 0
 463 569 484 565 505 565 c 3
 529 565 543 570 560 584 c 0
 569 592 574 594 580 594 c 3
 586 594 588 591 588 585 c 3xed
207 210 m 3
 236 210 256 231 256 262 c 3xcb
 256 293 235 315 206 315 c 3
 176 315 156 294 156 263 c 3
 156 232 177 210 207 210 c 3
EndSplineSet
Layer: 2
SplineSet
588 585 m 4,0,1
 588 564 588 564 554 528 c 0,2,3
 516 489 516 489 467 489 c 0,4,5
 435 489 435 489 376 509 c 0,6,7
 322 528 322 528 295 528 c 0,8,9
 246 528 246 528 215 478 c 1,10,-1
 454 407 l 2,11,12
 482 397 482 397 490.5 388 c 128,-1,13
 499 379 499 379 499 359 c 0,14,15
 499 346 499 346 495 335 c 2,16,-1
 431 106 l 2,17,18
 401 -5 401 -5 278 -5 c 0,19,20
 234 -5 234 -5 208.5 16.5 c 128,-1,21
 183 38 183 38 183 75 c 0,22,23
 183 93 183 93 187 106 c 2,24,-1
 204 166 l 1,25,26
 161 169 161 169 137 196.5 c 128,-1,27
 113 224 113 224 113 269 c 0,28,29
 113 306 113 306 142 332 c 128,-1,30
 171 358 171 358 211 358 c 0,31,32
 264 358 264 358 297 336 c 128,-1,33
 330 314 330 314 330 278 c 0,34,35
 330 268 330 268 327 258 c 2,36,-1
 276 75 l 2,37,38
 274 69 274 69 274 63 c 0,39,40
 274 45 274 45 291 45 c 0,41,42
 317 45 317 45 325 74 c 2,43,-1
 396 333 l 2,44,45
 399 345 399 345 399 352 c 0,46,47
 399 367 399 367 387 370 c 2,48,-1
 139 445 l 1,49,50
 188 525 188 525 237 561.5 c 128,-1,51
 286 598 286 598 346 598 c 0,52,53
 367 598 367 598 417 583 c 0,54,55
 476 565 476 565 505 565 c 0,56,57
 537 565 537 565 560 584 c 0,58,59
 571 594 571 594 580 594 c 0,60,61
 588 594 588 594 588 585 c 4,0,1
207 210 m 132,-1,63
 229 210 229 210 242.5 224.5 c 128,-1,64
 256 239 256 239 256 262 c 128,-1,65
 256 285 256 285 242 300 c 128,-1,66
 228 315 228 315 206 315 c 128,-1,67
 184 315 184 315 170 300.5 c 128,-1,68
 156 286 156 286 156 263 c 128,-1,69
 156 240 156 240 170.5 225 c 128,-1,62
 185 210 185 210 207 210 c 132,-1,63
EndSplineSet
EndChar

StartChar: uni0E34.left
Encoding: 63233 63233 97
Width: 0
Flags: W
HStem: 726 45<-387.948 -214.704> 839 55<-312.964 -153.396>
LayerCount: 3
Back
SplineSet
-46 636 m 0
 -46 636 l 0
 -159 694 -248 726 -350 726 c 0
 -388 726 -427 722 -470 713 c 1
 -408 833 -295 894 -200 894 c 0
 -87 894 2 808 -46 636 c 0
-83 708 m 1
 -88 788 -148 839 -222 839 c 0
 -270 839 -325 818 -374 768 c 1
 -355 770 -337 771 -318 771 c 0
 -236 771 -151 750 -83 708 c 1
EndSplineSet
Fore
Refer: 180 3636 N 1 0 0 1 -156 0 2
Layer: 2
Refer: 180 3636 N 1 0 0 1 -156 0 2
EndChar

StartChar: uni0E35.left
Encoding: 63234 63234 98
Width: 0
Flags: W
HStem: 726 45<-387.728 -215.287> 839 55<-312.964 -152.043>
LayerCount: 3
Back
SplineSet
-46 636 m 1
 -159 694 -247 726 -350 726 c 0
 -387 726 -427 722 -470 713 c 1
 -410 829 -306 882 -215 882 c 0
 -174 882 -134 870 -104 849 c 1
 -76 948 l 1
 17 948 l 1
 -38 751 l 1
 -31 739 -31 690 -46 636 c 1
-85 710 m 1
 -88 781 -154 827 -231 827 c 0
 -279 827 -331 809 -374 768 c 1
 -355 770 -335 772 -315 772 c 0
 -235 772 -153 752 -85 710 c 1
EndSplineSet
Fore
Refer: 181 3637 N 1 0 0 1 -156 0 2
Layer: 2
Refer: 181 3637 N 1 0 0 1 -156 0 2
EndChar

StartChar: uni0E36.left
Encoding: 63235 63235 99
Width: 0
Flags: W
HStem: 726 45<-388.531 -214.662> 839 55<-313.611 -151.992> 906 48<-94.8167 -16.0879>
VStem: -8 47<814.682 898.466>
LayerCount: 3
Back
SplineSet
-46 636 m 1
 -159 694 -247 726 -350 726 c 0
 -387 726 -427 722 -470 713 c 1
 -408 832 -303 881 -218 881 c 0
 -196 881 -175 878 -157 872 c 1
 -154 909 -125 953 -66 953 c 0
 -12 953 20 907 19 863 c 0
 20 828 -1 794 -47 786 c 1
 -27 764 -31 688 -46 636 c 1
-68 819 m 0
 -68 819 l 0
 -35 819 -18 843 -19 866 c 0
 -18 890 -35 914 -68 914 c 0
 -101 914 -117 890 -118 866 c 0
 -117 843 -101 819 -68 819 c 0
-85 710 m 1
 -88 781 -154 827 -231 827 c 0
 -279 827 -331 809 -374 768 c 1
 -355 770 -335 772 -315 772 c 0
 -235 772 -153 752 -85 710 c 1
EndSplineSet
Fore
Refer: 182 3638 N 1 0 0 1 -156 0 2
Layer: 2
Refer: 182 3638 N 1 0 0 1 -156 0 2
EndChar

StartChar: uni0E37.left
Encoding: 63236 63236 100
Width: 0
Flags: W
HStem: 726 45<-387.728 -215.287> 839 55<-309.827 -207>
VStem: -59 73<876 949>
DStem2: -146.27 636 -70.2811 636 0.263873 0.964557<220.827 324.935>
LayerCount: 3
Back
SplineSet
-85 710 m 1
 -88 781 -155 827 -232 827 c 0
 -279 827 -331 809 -374 768 c 1
 -354 770 -335 772 -315 772 c 0
 -235 772 -152 752 -85 710 c 1
-40 743 m 1
 -32 733 -32 684 -46 636 c 1
 -159 694 -248 726 -350 726 c 0
 -388 726 -427 722 -470 713 c 1
 -409 831 -301 883 -209 882 c 1
 -190 948 l 1
 -120 948 l 1
 -141 869 l 1
 -129 866 -100 851 -89 839 c 1
 -57 948 l 1
 15 948 l 1
 -40 743 l 1
EndSplineSet
Fore
Refer: 183 3639 N 1 0 0 1 -156 0 2
Layer: 2
Refer: 183 3639 N 1 0 0 1 -156 0 2
EndChar

StartChar: ellipsis
Encoding: 8230 8230 101
Width: 951
Flags: W
HStem: -14 140<142.384 207.997 458.94 525.61 776.418 842.191>
VStem: 106 138<21.2133 89.9639> 423 139<22.4324 90.3936> 741 137<21.2133 90.7867>
LayerCount: 3
Fore
SplineSet
878 74 m 0
 878 32 834 -14 789 -14 c 0
 759 -14 741 9 741 38 c 0
 741 83 789 126 828 126 c 0
 857 126 878 103 878 74 c 0
562 74 m 0
 562 30 513 -14 472 -14 c 0
 442 -14 423 9 423 38 c 0
 423 86 476 126 511 126 c 0
 541 126 562 103 562 74 c 0
244 74 m 0
 244 32 200 -14 154 -14 c 0
 125 -14 106 9 106 38 c 0
 106 85 158 126 193 126 c 0
 223 126 244 103 244 74 c 0
EndSplineSet
Validated: 1
Layer: 2
SplineSet
878 74 m 0,0,1
 878 42 878 42 850 14 c 128,-1,2
 822 -14 822 -14 789 -14 c 0,3,4
 767 -14 767 -14 754 1 c 128,-1,5
 741 16 741 16 741 38 c 0,6,7
 741 71 741 71 769.5 98.5 c 128,-1,8
 798 126 798 126 828 126 c 0,9,10
 850 126 850 126 864 111 c 128,-1,11
 878 96 878 96 878 74 c 0,0,1
562 74 m 0,12,13
 562 42 562 42 532.5 14 c 128,-1,14
 503 -14 503 -14 472 -14 c 0,15,16
 450 -14 450 -14 436.5 1 c 128,-1,17
 423 16 423 16 423 38 c 0,18,19
 423 72 423 72 453 99 c 128,-1,20
 483 126 483 126 511 126 c 0,21,22
 533 126 533 126 547.5 111 c 128,-1,23
 562 96 562 96 562 74 c 0,12,13
244 74 m 0,24,25
 244 42 244 42 216 14 c 128,-1,26
 188 -14 188 -14 154 -14 c 0,27,28
 133 -14 133 -14 119.5 1 c 128,-1,29
 106 16 106 16 106 38 c 0,30,31
 106 71 106 71 135.5 98.5 c 128,-1,32
 165 126 165 126 193 126 c 0,33,34
 215 126 215 126 229.5 111 c 128,-1,35
 244 96 244 96 244 74 c 0,24,25
EndSplineSet
EndChar

StartChar: uni0E48.low_left
Encoding: 63237 63237 102
Width: 0
Flags: W
HStem: 688 238<-83 -56>
VStem: -149 93<688 781> -83 93<833 926>
DStem2: -149 688 -56 688 0.263873 0.964557<24.5402 246.98>
LayerCount: 3
Back
SplineSet
0 926 m 1
 -66 688 l 1
 -159 688 l 5
 -93 926 l 1
 0 926 l 1
EndSplineSet
Fore
Refer: 107 63242 N 1 0 0 1 -156 0 2
Validated: 1
Layer: 2
Refer: 107 63242 N 1 0 0 1 -156 0 2
EndChar

StartChar: uni0E49.low_left
Encoding: 63238 63238 103
Width: 0
Flags: W
HStem: 677 50<-399 -349.027> 925 53<-329.057 -249.192>
VStem: -388 51<830.062 917.632> -241 56<832.872 916.85> -20 103<928.368 972>
LayerCount: 3
Back
SplineSet
43 940 m 1
 43 940 l 0
 -80 627 -360 665 -409 670 c 1
 -398 710 l 1
 -352 716 -329 736 -315 757 c 1
 -314 760 l 1
 -314 760 -324 762 -339 768 c 0
 -369 781 -387 814 -387 849 c 0
 -387 894 -357 940 -289 940 c 0
 -207 940 -186 847 -211 808 c 0
 -259 736 -278 725 -278 725 c 1
 -279 722 l 1
 -279 722 -107 737 -54 940 c 1
 43 940 l 1
-295 800 m 0
 -266 800 -252 823 -252 845 c 0
 -252 869 -267 892 -296 892 c 0
 -325 892 -339 869 -339 847 c 0
 -339 823 -324 800 -295 800 c 0
EndSplineSet
Fore
Refer: 108 63243 N 1 0 0 1 -241 0 2
Layer: 2
Refer: 108 63243 N 1 0 0 1 -241 0 2
EndChar

StartChar: uni0E4A.low_left
Encoding: 63239 63239 104
Width: 0
Flags: W
HStem: 671 40<-348.981 -281.851> 794 39<-346.187 -283.035>
VStem: -416 61<715.61 822.868> -277 41<714.797 789.192> -125 70<790.158 892.593> 11 87<894.754 954>
LayerCount: 3
Back
SplineSet
28 917 m 17
 3 790 -105 677 -238 677 c 1
 -228 713 l 1
 -191 731 -170 763 -161 793 c 0
 -152 827 -159 858 -178 866 c 1
 -240 828 l 1
 -289 869 l 1
 -321 863 -340 826 -343 814 c 1
 -341 812 l 1
 -341 812 -333 816 -314 816 c 0
 -275 816 -248 788 -249 748 c 0
 -249 704 -282 676 -321 676 c 0
 -383 676 -417 734 -397 806 c 0
 -385 851 -330 919 -269 923 c 1
 -228 874 l 1
 -159 923 l 1
 -100 904 -90 858 -102 814 c 0
 -109 789 -124 764 -140 746 c 1
 -137 745 l 1
 -90 771 -46 833 -42 917 c 1
 28 917 l 17
-318 708 m 0
 -293 708 -280 727 -281 746 c 0
 -281 766 -293 785 -318 785 c 0
 -342 785 -354 766 -354 746 c 0
 -354 727 -342 708 -318 708 c 0
EndSplineSet
Fore
Refer: 109 63244 N 1 0 0 1 -186 0 2
Layer: 2
Refer: 109 63244 N 1 0 0 1 -186 0 2
EndChar

StartChar: uni0E4B.low_left
Encoding: 63240 63240 105
Width: 0
Flags: W
HStem: 677 21G<-231 -140.505> 770 81<-283 -208 -96 -22>
VStem: -231 85<677 762>
DStem2: -231 677 -146 677 0.263873 0.964557<22.4292 93.8438 204.42 273.551>
LayerCount: 3
Back
SplineSet
-26 774 m 1
 -117 773 l 1
 -141 691 l 1
 -210 691 l 1
 -190 773 l 1
 -279 774 l 1
 -259 848 l 1
 -169 849 l 1
 -147 931 l 1
 -72 931 l 1
 -96 849 l 1
 -6 848 l 1
 -26 774 l 1
EndSplineSet
Fore
Refer: 110 63245 N 1 0 0 1 -241 0 2
Validated: 1
Layer: 2
Refer: 110 63245 N 1 0 0 1 -241 0 2
EndChar

StartChar: uni0E4C.low_left
Encoding: 63241 63241 106
Width: 0
Flags: W
HStem: 671 48<-171.335 -98.7327>
VStem: -226 49<724.428 803.15> -92 49<725.006 803.893>
LayerCount: 3
Back
SplineSet
38 954 m 17
 -14 857 -131 834 -162 826 c 1
 -163 823 l 1
 -144 816 -123 803 -123 760 c 0
 -123 715 -158 679 -210 679 c 0
 -260 679 -290 727 -290 764 c 0
 -290 815 -234 859 -142 876 c 0
 -96 885 -56 919 -31 975 c 1
 38 954 l 17
-203 722 m 0
 -178 722 -165 742 -165 763 c 0
 -166 784 -178 805 -204 805 c 0
 -231 805 -244 785 -244 764 c 0
 -244 743 -230 722 -203 722 c 0
EndSplineSet
Fore
Refer: 111 63246 N 1 0 0 1 -176 0 2
Layer: 2
Refer: 111 63246 N 1 0 0 1 -176 0 2
EndChar

StartChar: uni0E48.low
Encoding: 63242 63242 107
Width: 0
Flags: W
HStem: 688 238<73 100>
VStem: 7 93<688 781> 73 93<833 926>
DStem2: 7 688 100 688 0.263873 0.964557<24.5402 246.98>
AnchorPoint: "AboveMark" 131 968 basemark 0
AnchorPoint: "AboveBase" 85 630 mark 0
LayerCount: 3
Fore
SplineSet
166 926 m 1xa0
 100 688 l 1
 7 688 l 1xc0
 73 926 l 1
 166 926 l 1xa0
EndSplineSet
Validated: 1
Layer: 2
SplineSet
166 926 m 1,0,-1
 100 688 l 1,1,-1
 7 688 l 1,2,-1
 73 926 l 1,3,-1
 166 926 l 1,0,-1
EndSplineSet
Substitution2: "Thai Phinthu Mai Ek Reordering" uni0E3A
EndChar

StartChar: uni0E49.low
Encoding: 63243 63243 108
Width: 0
Flags: MW
HStem: 677 50<-158 -108.027> 925 53<-88.057 -8.19166>
VStem: -147 51<830.062 917.632> 0 56<832.872 916.85> 221 103<928.368 972>
AnchorPoint: "AboveMark" 98 968 basemark 0
AnchorPoint: "AboveBase" 170 630 mark 0
LayerCount: 3
Fore
SplineSet
-69 779 m 1
 -115 786 -147 827 -147 879 c 3
 -147 939 -104 978 -39 978 c 3
 12 978 56 931 56 878 c 3
 56 838 11 768 -36 736 c 1
 -35 733 l 1
 87 751 193 850 221 972 c 1
 324 972 l 17
 252 779 99 673 -107 673 c 3
 -129 673 -145 674 -172 677 c 1
 -158 727 l 1
 -118 731 -77 755 -69 779 c 1
-51 823 m 3
 -22 823 -1 844 0 875 c 3
 0 905 -20 925 -50 925 c 3
 -77 925 -96 903 -96 873 c 3
 -96 844 -77 823 -51 823 c 3
EndSplineSet
Layer: 2
SplineSet
-69 779 m 1,0,1
 -104 784 -104 784 -125.5 812 c 128,-1,2
 -147 840 -147 840 -147 879 c 0,3,4
 -147 924 -147 924 -117.5 951 c 128,-1,5
 -88 978 -88 978 -39 978 c 0,6,7
 -1 978 -1 978 27.5 948 c 128,-1,8
 56 918 56 918 56 878 c 0,9,10
 56 848 56 848 27.5 804 c 128,-1,11
 -1 760 -1 760 -36 736 c 1,12,-1
 -35 733 l 1,13,14
 56 746 56 746 128 813 c 128,-1,15
 200 880 200 880 221 972 c 1,16,-1
 324 972 l 1,17,18
 270 827 270 827 159 750 c 128,-1,19
 48 673 48 673 -107 673 c 0,20,21
 -136 673 -136 673 -172 677 c 1,22,-1
 -158 727 l 1,23,24
 -128 730 -128 730 -101.5 745.5 c 128,-1,25
 -75 761 -75 761 -69 779 c 1,0,1
-51 823 m 0,26,27
 -29 823 -29 823 -15 837.5 c 128,-1,28
 -1 852 -1 852 0 875 c 0,29,30
 0 898 0 898 -14 911.5 c 128,-1,31
 -28 925 -28 925 -50 925 c 0,32,33
 -70 925 -70 925 -83 910.5 c 128,-1,34
 -96 896 -96 896 -96 873 c 0,35,36
 -96 851 -96 851 -83.5 837 c 128,-1,37
 -71 823 -71 823 -51 823 c 0,26,27
EndSplineSet
Substitution2: "Thai Phinthu Mai Tho Reordering" uni0E3A
EndChar

StartChar: uni0E4A.low
Encoding: 63244 63244 109
Width: 0
Flags: W
HStem: 671 40<-162.981 -95.8507> 794 39<-160.187 -97.0346>
VStem: -230 61<715.61 822.868> -91 41<714.797 789.192> 61 70<790.158 892.593> 197 87<894.754 954>
AnchorPoint: "AboveMark" -8 968 basemark 0
AnchorPoint: "AboveBase" 115 630 mark 0
LayerCount: 3
Fore
SplineSet
131 870 m 3
 131 827 114 787 81 753 c 1
 83 750 l 1
 147 786 192 865 197 954 c 1
 284 954 l 17
 244 790 110 671 -36 671 c 1
 -24 713 l 1
 26 737 61 791 61 844 c 3
 61 870 52 888 37 894 c 1
 -41 848 l 1
 -96 899 l 1
 -122 894 -155 860 -162 833 c 1
 -159 826 l 1
 -154 830 -140 833 -127 833 c 3
 -81 833 -50 799 -50 749 c 3
 -50 705 -86 671 -132 671 c 3
 -190 671 -230 714 -230 777 c 3
 -230 861 -151 954 -73 963 c 1
 -25 906 l 1
 59 963 l 1
 106 948 131 915 131 870 c 3
-128 711 m 3
 -106 711 -91 728 -91 752 c 3
 -91 776 -107 794 -129 794 c 3
 -153 794 -169 777 -169 753 c 3
 -169 729 -152 711 -128 711 c 3
EndSplineSet
Layer: 2
SplineSet
131 870 m 0,0,1
 131 805 131 805 81 753 c 1,2,-1
 83 750 l 1,3,4
 131 777 131 777 162 832.5 c 128,-1,5
 193 888 193 888 197 954 c 1,6,-1
 284 954 l 1,7,8
 254 831 254 831 163.5 751 c 128,-1,9
 73 671 73 671 -36 671 c 1,10,-1
 -24 713 l 1,11,12
 13 731 13 731 37 767.5 c 128,-1,13
 61 804 61 804 61 844 c 128,-1,14
 61 884 61 884 37 894 c 1,15,-1
 -41 848 l 1,16,-1
 -96 899 l 1,17,18
 -115 895 -115 895 -136 874 c 128,-1,19
 -157 853 -157 853 -162 833 c 1,20,-1
 -159 826 l 1,21,22
 -150 833 -150 833 -127 833 c 0,23,24
 -93 833 -93 833 -71.5 810 c 128,-1,25
 -50 787 -50 787 -50 749 c 0,26,27
 -50 716 -50 716 -73.5 693.5 c 128,-1,28
 -97 671 -97 671 -132 671 c 0,29,30
 -176 671 -176 671 -203 700.5 c 128,-1,31
 -230 730 -230 730 -230 777 c 0,32,33
 -230 840 -230 840 -181 898 c 128,-1,34
 -132 956 -132 956 -73 963 c 1,35,-1
 -25 906 l 1,36,-1
 59 963 l 1,37,38
 131 940 131 940 131 870 c 0,0,1
-128 711 m 0,39,40
 -112 711 -112 711 -101.5 722.5 c 128,-1,41
 -91 734 -91 734 -91 752 c 128,-1,42
 -91 770 -91 770 -102 782 c 128,-1,43
 -113 794 -113 794 -129 794 c 0,44,45
 -147 794 -147 794 -158 782.5 c 128,-1,46
 -169 771 -169 771 -169 753 c 128,-1,47
 -169 735 -169 735 -157.5 723 c 128,-1,48
 -146 711 -146 711 -128 711 c 0,39,40
EndSplineSet
Substitution2: "Thai Phinthu Mai Tri Reordering" uni0E3A
EndChar

StartChar: uni0E4B.low
Encoding: 63245 63245 110
Width: 0
Flags: W
HStem: 677 21G<10 100.495> 770 81<-42 33 145 219>
VStem: 10 85<677 762>
DStem2: 10 677 95 677 0.263873 0.964557<22.4292 93.8438 204.42 273.551>
AnchorPoint: "AboveMark" 132 968 basemark 0
AnchorPoint: "AboveBase" 170 630 mark 0
LayerCount: 3
Fore
SplineSet
219 770 m 1
 120 768 l 1
 95 677 l 1
 10 677 l 1
 33 768 l 1
 -64 770 l 1
 -42 851 l 1
 55 852 l 1
 78 942 l 1
 171 942 l 1
 145 852 l 1
 241 851 l 1
 219 770 l 1
EndSplineSet
Validated: 1
Layer: 2
SplineSet
219 770 m 1,0,-1
 120 768 l 1,1,-1
 95 677 l 1,2,-1
 10 677 l 1,3,-1
 33 768 l 1,4,-1
 -64 770 l 1,5,-1
 -42 851 l 1,6,-1
 55 852 l 1,7,-1
 78 942 l 1,8,-1
 171 942 l 1,9,-1
 145 852 l 1,10,-1
 241 851 l 1,11,-1
 219 770 l 1,0,-1
EndSplineSet
Substitution2: "Thai Phinthu Mai Chattawa Reordering" uni0E3A
EndChar

StartChar: uni0E4C.low
Encoding: 63246 63246 111
Width: 0
Flags: W
HStem: 671 48<4.66452 77.2673>
VStem: -50 49<724.428 803.15> 84 49<725.006 803.893>
AnchorPoint: "AboveMark" 155 968 basemark 0
AnchorPoint: "AboveBase" 105 630 mark 0
LayerCount: 3
Fore
SplineSet
308 974 m 17
 269 902 191 852 90 834 c 1
 121 818 133 797 133 760 c 3
 133 707 94 671 38 671 c 3
 -12 671 -50 712 -50 768 c 3
 -50 818 14 866 111 889 c 0
 166 902 210 941 234 998 c 1
 308 974 l 17
41 719 m 3
 66 719 84 738 84 765 c 3
 84 791 67 809 42 809 c 3
 17 809 -1 790 -1 763 c 3
 -1 737 16 719 41 719 c 3
EndSplineSet
Layer: 2
SplineSet
308 974 m 17,0,1
 247 862 247 862 90 834 c 1,2,3
 133 812 133 812 133 760 c 0,4,5
 133 720 133 720 106.5 695.5 c 128,-1,6
 80 671 80 671 38 671 c 0,7,8
 0 671 0 671 -25 698.5 c 128,-1,9
 -50 726 -50 726 -50 768 c 0,10,11
 -50 805 -50 805 -6 838.5 c 128,-1,12
 38 872 38 872 111 889 c 0,13,14
 197 909 197 909 234 998 c 1,15,-1
 308 974 l 17,0,1
41 719 m 128,-1,17
 60 719 60 719 72 732 c 128,-1,18
 84 745 84 745 84 765 c 128,-1,19
 84 785 84 785 72.5 797 c 128,-1,20
 61 809 61 809 42 809 c 128,-1,21
 23 809 23 809 11 796 c 128,-1,22
 -1 783 -1 783 -1 763 c 128,-1,23
 -1 743 -1 743 10.5 731 c 128,-1,16
 22 719 22 719 41 719 c 128,-1,17
EndSplineSet
Substitution2: "Thai Phinthu Thanthakhat Reordering" uni0E3A
EndChar

StartChar: uni0E0D.descless
Encoding: 63247 63247 112
Width: 762
Flags: W
HStem: -6 44<186.424 269.848 491.781 577.271> 143 44<229 268.406> 378 44<201 217 281.449 368> 545 53<318.931 446.745>
VStem: 110 66<47.6993 133.358> 279 43<47.5299 133.694> 391 95<45.9056 171.461> 479 99<349.25 514.363> 741 98<498 596>
DStem2: 76.8889 -8 175.654 -8 0.263873 0.964557<228.227 398.109> 358.889 -8 458.181 -8 0.263873 0.964557<121.719 471.818> 574.455 -8 671.804 -8 0.263873 0.964557<86.9806 626.54>
LayerCount: 3
Fore
SplineSet
322 92 m 3xfd80
 322 34 280 -6 218 -6 c 3
 154 -6 110 37 110 101 c 3
 110 109 111 117 113 124 c 2
 166 315 l 2
 174 342 200 374 217 378 c 1
 137 378 l 1
 176 505 297 598 424 598 c 3
 518 598 578 543 578 455 c 3xfd80
 578 441 576 426 571 401 c 1
 488 101 l 2
 486 96 486 92 486 83 c 0
 486 57 502 41 528 41 c 3
 562 41 594 65 604 100 c 2
 741 596 l 1
 839 596 l 1
 706 117 l 2
 689 52 597 -8 515 -8 c 3
 443 -8 391 35 391 95 c 3xfe80
 391 105 392 115 395 124 c 2
 472 401 l 2
 477 418 479 434 479 449 c 3
 479 508 442 545 382 545 c 3
 313 545 243 497 201 422 c 1
 380 422 l 1
 368 378 l 1
 321 378 l 2
 296 378 276 358 267 326 c 2
 229 187 l 1
 283 186 322 146 322 92 c 3xfd80
228 38 m 3
 258 38 279 60 279 90 c 3
 279 121 257 143 227 143 c 3
 198 143 176 121 176 91 c 3
 176 61 198 38 228 38 c 3
EndSplineSet
Layer: 2
SplineSet
322 92 m 0,0,1
 322 48 322 48 293 21 c 128,-1,2
 264 -6 264 -6 218 -6 c 0,3,4
 170 -6 170 -6 140 23.5 c 128,-1,5
 110 53 110 53 110 101 c 0,6,7
 110 113 110 113 113 124 c 2,8,-1
 166 315 l 2,9,10
 172 335 172 335 188 355 c 128,-1,11
 204 375 204 375 217 378 c 1,12,-1
 137 378 l 1,13,14
 166 473 166 473 247.5 535.5 c 128,-1,15
 329 598 329 598 424 598 c 0,16,17
 495 598 495 598 536.5 559.5 c 128,-1,18
 578 521 578 521 578 455 c 0,19,20
 578 436 578 436 571 401 c 2,21,-1
 488 101 l 2,22,23
 486 96 486 96 486 83 c 0,24,25
 486 64 486 64 497 52.5 c 128,-1,26
 508 41 508 41 528 41 c 0,27,28
 554 41 554 41 575.5 57.5 c 128,-1,29
 597 74 597 74 604 100 c 2,30,-1
 741 596 l 1,31,-1
 839 596 l 1,32,-1
 706 117 l 2,33,34
 693 68 693 68 635 30 c 128,-1,35
 577 -8 577 -8 515 -8 c 0,36,37
 461 -8 461 -8 426 21 c 128,-1,38
 391 50 391 50 391 95 c 0,39,40
 391 112 391 112 395 124 c 2,41,-1
 472 401 l 2,42,43
 479 425 479 425 479 449 c 0,44,45
 479 493 479 493 453 519 c 128,-1,46
 427 545 427 545 382 545 c 0,47,48
 330 545 330 545 281.5 511.5 c 128,-1,49
 233 478 233 478 201 422 c 1,50,-1
 380 422 l 1,51,-1
 368 378 l 1,52,-1
 321 378 l 2,53,54
 282 378 282 378 267 326 c 2,55,-1
 229 187 l 1,56,57
 269 186 269 186 295.5 159.5 c 128,-1,58
 322 133 322 133 322 92 c 0,0,1
228 38 m 128,-1,60
 250 38 250 38 264.5 52.5 c 128,-1,61
 279 67 279 67 279 90 c 128,-1,62
 279 113 279 113 264.5 128 c 128,-1,63
 250 143 250 143 227 143 c 0,64,65
 205 143 205 143 190.5 128 c 128,-1,66
 176 113 176 113 176 91 c 0,67,68
 176 68 176 68 191 53 c 128,-1,59
 206 38 206 38 228 38 c 128,-1,60
EndSplineSet
EndChar

StartChar: quoteleft
Encoding: 8216 8216 113
Width: 317
Flags: W
HStem: 452 129<267.393 342.363>
VStem: 233 65<494.5 592.283>
LayerCount: 3
Fore
SplineSet
384 544 m 0
 384 514 358 452 292 452 c 0
 248 452 233 477 233 512 c 0
 233 614 340 711 410 731 c 1
 414 703 l 1
 351 677 298 606 298 583 c 0
 298 581 298 581 299 581 c 0
 303 581 306 588 336 588 c 0
 364 588 384 572 384 544 c 0
EndSplineSet
Validated: 1
Layer: 2
SplineSet
384 544 m 0,0,1
 384 514 384 514 360 483 c 128,-1,2
 336 452 336 452 292 452 c 0,3,4
 233 452 233 452 233 512 c 0,5,6
 233 583 233 583 292 648.5 c 128,-1,7
 351 714 351 714 410 731 c 1,8,-1
 414 703 l 1,9,10
 371 685 371 685 334.5 644 c 128,-1,11
 298 603 298 603 298 583 c 0,12,13
 298 581 298 581 299 581 c 128,-1,14
 300 581 300 581 303 582.5 c 128,-1,15
 306 584 306 584 314.5 586 c 128,-1,16
 323 588 323 588 336 588 c 0,17,18
 357 588 357 588 370.5 576.5 c 128,-1,19
 384 565 384 565 384 544 c 0,0,1
EndSplineSet
EndChar

StartChar: quoteright
Encoding: 8217 8217 114
Width: 317
Flags: W
HStem: 452 21G<230.556 270.5> 602 129<301.903 377.607>
VStem: 346 66<590.285 688.5>
LayerCount: 3
Fore
SplineSet
260 640 m 0
 260 677 293 731 353 731 c 0
 397 731 412 706 412 671 c 0
 412 569 306 473 235 452 c 1
 229 479 l 1
 294 505 346 577 346 601 c 0
 346 602 346 602 345 602 c 0
 343 602 334 594 309 594 c 0
 281 594 260 611 260 640 c 0
EndSplineSet
Validated: 1
Layer: 2
SplineSet
260 640 m 0,0,1
 260 672 260 672 285.5 701.5 c 128,-1,2
 311 731 311 731 353 731 c 0,3,4
 412 731 412 731 412 671 c 0,5,6
 412 600 412 600 353.5 535 c 128,-1,7
 295 470 295 470 235 452 c 1,8,-1
 229 479 l 1,9,10
 274 497 274 497 310 538.5 c 128,-1,11
 346 580 346 580 346 601 c 0,12,13
 346 602 346 602 345 602 c 2,14,-1
 341 600 l 2,15,16
 337 598 337 598 328.5 596 c 128,-1,17
 320 594 320 594 309 594 c 0,18,19
 287 594 287 594 273.5 606.5 c 128,-1,20
 260 619 260 619 260 640 c 0,0,1
EndSplineSet
EndChar

StartChar: bullet
Encoding: 8226 8226 117
Width: 367
Flags: W
HStem: 177 285<235.172 308.743>
VStem: 132 281<282.883 360.867>
LayerCount: 3
Fore
SplineSet
413 360 m 0
 413 273 328 177 232 177 c 0
 172 177 132 221 132 280 c 0
 132 376 225 462 311 462 c 0
 374 462 413 419 413 360 c 0
EndSplineSet
Validated: 1
Layer: 2
SplineSet
413 360 m 0,0,1
 413 293 413 293 357.5 235 c 128,-1,2
 302 177 302 177 232 177 c 0,3,4
 187 177 187 177 159.5 206 c 128,-1,5
 132 235 132 235 132 280 c 0,6,7
 132 351 132 351 188.5 406.5 c 128,-1,8
 245 462 245 462 311 462 c 0,9,10
 358 462 358 462 385.5 433.5 c 128,-1,11
 413 405 413 405 413 360 c 0,0,1
EndSplineSet
EndChar

StartChar: endash
Encoding: 8211 8211 118
Width: 732
Flags: W
HStem: 201 72<97 767>
LayerCount: 3
Fore
SplineSet
767 201 m 1
 77 201 l 1
 97 273 l 1
 787 273 l 1
 767 201 l 1
EndSplineSet
Validated: 1
Layer: 2
SplineSet
767 201 m 1,0,-1
 77 201 l 1,1,-1
 97 273 l 1,2,-1
 787 273 l 1,3,-1
 767 201 l 1,0,-1
EndSplineSet
EndChar

StartChar: emdash
Encoding: 8212 8212 119
Width: 1464
Flags: W
HStem: 201 72<85 1512>
LayerCount: 3
Fore
SplineSet
1512 201 m 1
 65 201 l 1
 85 273 l 1
 1532 273 l 1
 1512 201 l 1
EndSplineSet
Validated: 1
Layer: 2
SplineSet
1512 201 m 1,0,-1
 65 201 l 1,1,-1
 85 273 l 1,2,-1
 1532 273 l 1,3,-1
 1512 201 l 1,0,-1
EndSplineSet
EndChar

StartChar: uni0E31.left
Encoding: 63248 63248 120
Width: 0
Flags: HW
HStem: 676 49<-149.678 -2.267> 880 49<-224.753 -141.974>
VStem: -287 52<785.588 871.052> -134 50<784.44 872.079>
LayerCount: 3
Back
SplineSet
344 923 m 17
 256 737 59 676 -81 676 c 0
 -194 676 -256 733 -256 823 c 0
 -256 882 -206 930 -149 930 c 0
 -107 930 -52 894 -52 826 c 0
 -52 790 -75 750 -119 733 c 1
 -102 728 -82 726 -61 726 c 0
 38 726 174 777 247 923 c 1
 344 923 l 17
-154 776 m 0
 -121 776 -105 802 -104 829 c 0
 -104 854 -120 880 -153 880 c 0
 -187 880 -204 854 -205 827 c 0
 -205 802 -188 776 -154 776 c 0
EndSplineSet
Fore
Refer: 177 3633 N 1 0 0 1 -156 0 2
Layer: 2
Refer: 177 3633 N 1 0 0 1 -156 0 2
EndChar

StartChar: uni0E4D.left
Encoding: 63249 63249 121
Width: 0
Flags: HW
HStem: 673 54<-180.232 -95.673> 831 57<-181.602 -96.837>
VStem: -241 51<736.276 822.862> -87 50<735.476 822.053>
LayerCount: 3
Back
SplineSet
-103 673 m 0
 -172 673 -207 727 -207 781 c 0
 -207 835 -174 888 -104 888 c 0
 -37 888 -2 834 -3 780 c 0
 -3 726 -35 673 -103 673 c 0
-103 727 m 0
 -70 727 -54 753 -54 778 c 0
 -54 805 -71 831 -104 831 c 0
 -138 831 -155 805 -155 780 c 0
 -154 753 -137 727 -103 727 c 0
EndSplineSet
Fore
Refer: 203 3661 N 1 0 0 1 -229 0 2
Layer: 2
Refer: 203 3661 N 1 0 0 1 -229 0 2
EndChar

StartChar: uni0E47.left
Encoding: 63250 63250 122
Width: 0
Flags: W
HStem: 656 49<-116.898 -43.1277> 736 56<-282.632 -210.261> 796 47<-116.543 -43.9123> 888 50<-208.215 -29.3581> 895 54<-262.715 -82.9455>
VStem: -383 75<715.095 849.876> -163 40<749.74 788.774> -38 46<710.373 790.096> 2 91<972.424 1025>
LayerCount: 3
Back
SplineSet
72 1008 m 17
 39 897 -42 872 -110 876 c 0
 -142 877 -199 886 -236 888 c 0
 -274 891 -308 860 -320 816 c 0
 -326 796 -326 773 -321 748 c 1
 -276 813 -208 777 -185 742 c 1
 -185 742 -171 732 -171 746 c 0
 -171 802 -131 830 -91 830 c 0
 -50 830 -10 802 -10 743 c 0
 -10 682 -58 655 -101 655 c 0
 -178 655 -218 733 -270 733 c 0
 -310 733 -317 687 -299 656 c 1
 -364 657 l 1
 -397 698 -403 754 -388 806 c 0
 -367 882 -301 949 -218 940 c 0
 -188 937 -132 931 -104 928 c 0
 -82 925 -29 928 -15 1008 c 1
 72 1008 l 17
-51 743 m 0
 -51 772 -72 787 -93 787 c 0
 -114 787 -134 772 -134 743 c 0
 -134 714 -113 700 -92 700 c 0
 -72 700 -51 714 -51 743 c 0
EndSplineSet
Fore
Refer: 197 3655 N 1 0 0 1 -123 0 2
Layer: 2
Refer: 197 3655 N 1 0 0 1 -123 0 2
EndChar

StartChar: uni0E48.left
Encoding: 63251 63251 123
Width: 0
Flags: W
HStem: 1021 206<1 37>
VStem: -56 93<1021 1114> 1 93<1134 1227>
DStem2: -56 1021 37 1021 0.263873 0.964557<24.5402 213.74>
LayerCount: 3
Back
SplineSet
108 1227 m 1
 51 1021 l 1
 -42 1021 l 5
 15 1227 l 1
 108 1227 l 1
EndSplineSet
Fore
Refer: 198 3656 N 1 0 0 1 -156 0 2
Validated: 1
Layer: 2
Refer: 198 3656 N 1 0 0 1 -156 0 2
EndChar

StartChar: uni0E49.left
Encoding: 63252 63252 124
Width: 0
Flags: W
HStem: 991 118<-154.5 -93.1563> 994 35<-197 -147.869> 1187 43<-141.894 -74.0255>
VStem: -186 40<1114.17 1182.89> -70 45<1112.71 1182.45>
LayerCount: 3
Back
SplineSet
289 1229 m 17
 183 957 -66 991 -109 994 c 1
 -100 1029 l 1
 -60 1034 -44 1050 -27 1069 c 1
 -26 1072 l 1
 -26 1072 -34 1073 -45 1078 c 0
 -74 1089 -90 1120 -90 1151 c 0
 -90 1190 -64 1230 -7 1230 c 0
 56 1230 97 1157 55 1098 c 0
 25 1058 5 1043 5 1043 c 1
 4 1040 l 1
 4 1040 160 1054 205 1229 c 1
 289 1229 l 17
-12 1109 m 0
 15 1109 27 1128 27 1147 c 0
 28 1167 14 1187 -13 1187 c 0
 -38 1187 -50 1168 -50 1149 c 0
 -50 1129 -37 1109 -12 1109 c 0
EndSplineSet
Fore
Refer: 199 3657 N 1 0 0 1 -249 0 2
Layer: 2
Refer: 199 3657 N 1 0 0 1 -249 0 2
EndChar

StartChar: uni0E4A.left
Encoding: 63253 63253 125
Width: 0
Flags: W
HStem: 984 37<-96.2982 -38.9699> 1089 35<-94.582 -38.9058>
VStem: -155 55<1022.55 1118.45> -35 33<1026.07 1084.68> 91 60<1082.83 1174.72> 206 71<1158.72 1226>
LayerCount: 3
Back
SplineSet
285 1226 m 17
 258 1098 150 986 16 986 c 1
 26 1021 l 1
 64 1039 86 1071 94 1102 c 0
 103 1136 97 1167 78 1175 c 1
 15 1137 l 1
 -33 1178 l 1
 -65 1172 -82 1136 -89 1122 c 1
 -87 1118 l 1
 -87 1118 -76 1124 -58 1124 c 0
 -20 1124 5 1094 6 1057 c 0
 6 1012 -24 984 -63 984 c 0
 -125 984 -162 1043 -142 1115 c 0
 -129 1160 -75 1227 -14 1232 c 1
 28 1183 l 1
 97 1232 l 1
 156 1213 165 1167 153 1123 c 0
 146 1098 132 1073 116 1055 c 1
 117 1054 l 1
 166 1080 209 1141 214 1226 c 1
 285 1226 l 17
-61 1021 m 0
 -39 1021 -27 1038 -27 1056 c 0
 -28 1072 -38 1089 -60 1089 c 0
 -82 1089 -93 1072 -93 1054 c 0
 -93 1038 -82 1021 -61 1021 c 0
EndSplineSet
Fore
Refer: 200 3658 N 1 0 0 1 -126 0 2
Layer: 2
Refer: 200 3658 N 1 0 0 1 -126 0 2
EndChar

StartChar: uni0E4B.left
Encoding: 63254 63254 126
Width: 0
Flags: W
HStem: 1072 74<-100 -32 63 131>
VStem: -53 71<992 1063> 9 77<1149 1226>
DStem2: -53 992 18 992 0.263873 0.964557<18.735 81.7414 180.116 242.067>
LayerCount: 3
Back
SplineSet
142 1075 m 1
 52 1074 l 1
 28 995 l 1
 -42 995 l 1
 -21 1074 l 1
 -111 1075 l 1
 -90 1149 l 1
 0 1150 l 1
 21 1229 l 1
 96 1229 l 1
 73 1150 l 1
 163 1149 l 1
 142 1075 l 1
EndSplineSet
Fore
Refer: 201 3659 N 1 0 0 1 -156 0 2
Validated: 1
Layer: 2
Refer: 201 3659 N 1 0 0 1 -156 0 2
EndChar

StartChar: uni0E4C.left
Encoding: 63255 63255 127
Width: 0
Flags: W
HStem: 895 42<-31.6117 35.944>
VStem: -83 46<941.71 1015.79> 41 44<940.367 1016.26>
LayerCount: 3
Back
SplineSet
226 1201 m 17
 174 1104 61 1084 28 1078 c 1
 27 1074 l 1
 48 1066 66 1046 66 1007 c 0
 66 959 30 926 -19 926 c 0
 -58 926 -101 962 -101 1010 c 0
 -101 1062 -45 1106 46 1123 c 0
 93 1132 132 1166 158 1223 c 1
 226 1201 l 17
-15 968 m 0
 9 968 22 988 22 1009 c 0
 22 1030 9 1051 -16 1051 c 0
 -43 1051 -56 1031 -56 1010 c 0
 -56 989 -43 968 -15 968 c 0
EndSplineSet
Fore
Refer: 202 3660 N 1 0 0 1 -115 0 2
Layer: 2
Refer: 202 3660 N 1 0 0 1 -115 0 2
EndChar

StartChar: uni0E01
Encoding: 3585 3585 129
Width: 574
Flags: W
HStem: 0 21G<79 183.521 391 492.545> 378 44<202 217 282.66 368> 544 54<329.101 468.601>
VStem: 79 99<0 99> 391 96<0 96> 508 97<348.156 507.885>
DStem2: 79 0 178 0 0.263873 0.964557<26.1234 389.718> 391 0 487 0 0.263873 0.964557<25.3318 457.583>
LayerCount: 3
Fore
SplineSet
487 0 m 1
 391 0 l 1
 502 399 l 2
 506 415 508 430 508 443 c 3
 508 505 464 544 396 544 c 3
 320 544 241 495 202 422 c 1
 380 422 l 1
 368 378 l 1
 321 378 l 2
 298 378 277 357 268 326 c 2
 178 0 l 1
 79 0 l 1
 166 315 l 2
 174 342 200 374 217 378 c 1
 137 378 l 1
 177 505 305 598 440 598 c 3
 541 598 605 543 605 455 c 3
 605 439 603 422 599 404 c 2
 487 0 l 1
EndSplineSet
Layer: 2
SplineSet
487 0 m 1,0,-1
 391 0 l 1,1,-1
 502 399 l 2,2,3
 508 423 508 423 508 443 c 0,4,5
 508 489 508 489 477.5 516.5 c 128,-1,6
 447 544 447 544 396 544 c 0,7,8
 339 544 339 544 285 510.5 c 128,-1,9
 231 477 231 477 202 422 c 1,10,-1
 380 422 l 1,11,-1
 368 378 l 1,12,-1
 321 378 l 2,13,14
 304 378 304 378 289.5 363.5 c 128,-1,15
 275 349 275 349 268 326 c 2,16,-1
 178 0 l 1,17,-1
 79 0 l 1,18,-1
 166 315 l 2,19,20
 172 335 172 335 188 355 c 128,-1,21
 204 375 204 375 217 378 c 1,22,-1
 137 378 l 1,23,24
 167 473 167 473 253 535.5 c 128,-1,25
 339 598 339 598 440 598 c 0,26,27
 516 598 516 598 560.5 559.5 c 128,-1,28
 605 521 605 521 605 455 c 0,29,30
 605 431 605 431 599 404 c 2,31,-1
 487 0 l 1,0,-1
EndSplineSet
EndChar

StartChar: uni0E02
Encoding: 3586 3586 130
Width: 557
Flags: W
HStem: -8 46<330.976 387.675> 328 35<193.042 266.132> 462 34<198.547 265.129> 542 56<243.86 338.742>
VStem: 133 49<371.236 453.668> 242 88<38.5828 141.836> 276 36<372.716 452.044> 348 93<406.477 531.624> 539 98<498 596>
DStem2: 212.53 -8 309.935 -8 0.263873 0.964557<98.6956 517.753> 372.209 -8 470.53 -8 0.263873 0.964557<71.7717 626.604>
LayerCount: 3
Fore
SplineSet
133 414 m 3xfb80
 133 507 230 598 328 598 c 3
 399 598 441 558 441 490 c 3
 441 474 438 456 433 436 c 2
 331 69 l 2
 330 68 330 66 330 62 c 3
 330 48 340 38 353 38 c 3
 369 38 389 53 393 68 c 2
 539 596 l 1
 637 596 l 1
 505 118 l 2
 484 41 419 -8 340 -8 c 3
 281 -8 242 28 242 82 c 3xfd80
 242 97 244 108 247 118 c 2
 345 472 l 2
 347 479 348 486 348 492 c 3
 348 522 325 542 292 542 c 3
 254 542 222 522 198 485 c 1
 207 493 218 496 232 496 c 3
 281 496 311 464 312 410 c 3
 312 362 276 328 226 328 c 3
 168 328 133 360 133 414 c 3xfb80
230 363 m 3
 257 363 276 383 276 412 c 3xfb80
 276 442 257 462 229 462 c 3
 202 462 182 441 182 412 c 3
 182 384 202 363 230 363 c 3
EndSplineSet
Layer: 2
SplineSet
133 414 m 0,0,1
 133 484 133 484 193.5 541 c 128,-1,2
 254 598 254 598 328 598 c 0,3,4
 381 598 381 598 411 569.5 c 128,-1,5
 441 541 441 541 441 490 c 0,6,7
 441 468 441 468 433 436 c 2,8,-1
 331 69 l 2,9,10
 330 68 330 68 330 62 c 0,11,12
 330 52 330 52 336.5 45 c 128,-1,13
 343 38 343 38 353 38 c 0,14,15
 365 38 365 38 377.5 47.5 c 128,-1,16
 390 57 390 57 393 68 c 2,17,-1
 539 596 l 1,18,-1
 637 596 l 1,19,-1
 505 118 l 2,20,21
 489 60 489 60 444 26 c 128,-1,22
 399 -8 399 -8 340 -8 c 0,23,24
 296 -8 296 -8 269 16.5 c 128,-1,25
 242 41 242 41 242 82 c 0,26,27
 242 101 242 101 247 118 c 2,28,-1
 345 472 l 2,29,30
 348 483 348 483 348 492 c 0,31,32
 348 514 348 514 332.5 528 c 128,-1,33
 317 542 317 542 292 542 c 0,34,35
 235 542 235 542 198 485 c 1,36,37
 210 496 210 496 232 496 c 0,38,39
 269 496 269 496 290 473 c 128,-1,40
 311 450 311 450 312 410 c 0,41,42
 312 374 312 374 288 351 c 128,-1,43
 264 328 264 328 226 328 c 0,44,45
 182 328 182 328 157.5 351 c 128,-1,46
 133 374 133 374 133 414 c 0,0,1
230 363 m 0,47,48
 250 363 250 363 263 376.5 c 128,-1,49
 276 390 276 390 276 412 c 128,-1,50
 276 434 276 434 263 448 c 128,-1,51
 250 462 250 462 229 462 c 0,52,53
 209 462 209 462 195.5 448 c 128,-1,54
 182 434 182 434 182 412 c 0,55,56
 182 391 182 391 195.5 377 c 128,-1,57
 209 363 209 363 230 363 c 0,47,48
EndSplineSet
EndChar

StartChar: uni0E03
Encoding: 3587 3587 131
Width: 607
Flags: W
HStem: -8 46<379.36 436.234> 284 38<190.14 265.673> 420 36<190.343 264.605> 459 21G<291.532 328.242> 579 20G<234.5 290.162 387.216 439 581.47 685>
VStem: 132 49<329.682 448.028> 275 38<330.99 410.014> 288 90<39.0588 94.0185> 398 97<420.367 548.178> 587 98<498 596>
DStem2: 260.13 -8 357.935 -8 0.263873 0.964557<97.8365 529.962> 420.209 -8 518.53 -8 0.263873 0.964557<71.8611 626.604>
LayerCount: 3
Fore
SplineSet
553 118 m 2xfdc0
 532 41 468 -8 389 -8 c 3
 329 -8 288 30 288 85 c 3xfdc0
 288 95 290 106 293 118 c 2
 395 485 l 2
 397 492 398 498 398 504 c 3
 398 515 393 522 384 525 c 1
 304 459 l 1
 256 536 l 1
 221 515 195 483 184 444 c 1
 197 454 205 456 229 456 c 3
 278 456 313 421 313 372 c 3xfec0
 313 321 277 284 227 284 c 3
 169 284 132 328 132 396 c 3
 132 478 191 561 278 599 c 1
 323 525 l 1
 411 599 l 1
 467 592 495 562 495 511 c 3
 495 496 492 479 486 455 c 2
 379 69 l 2
 378 67 378 65 378 61 c 3
 378 47 388 38 402 38 c 3
 419 38 436 52 441 68 c 2
 587 596 l 1
 685 596 l 1
 553 118 l 2xfdc0
228 322 m 3
 255 322 275 342 275 370 c 3xfec0
 275 399 255 420 227 420 c 3
 200 420 181 400 181 372 c 3
 181 342 200 322 228 322 c 3
EndSplineSet
Layer: 2
SplineSet
553 118 m 2,0,1
 537 60 537 60 492.5 26 c 128,-1,2
 448 -8 448 -8 389 -8 c 0,3,4
 344 -8 344 -8 316 18 c 128,-1,5
 288 44 288 44 288 85 c 0,6,7
 288 98 288 98 293 118 c 2,8,-1
 395 485 l 2,9,10
 398 495 398 495 398 504 c 0,11,12
 398 520 398 520 384 525 c 1,13,-1
 304 459 l 1,14,-1
 256 536 l 1,15,16
 201 503 201 503 184 444 c 1,17,18
 200 456 200 456 229 456 c 0,19,20
 266 456 266 456 289.5 432.5 c 128,-1,21
 313 409 313 409 313 372 c 0,22,23
 313 334 313 334 288.5 309 c 128,-1,24
 264 284 264 284 227 284 c 0,25,26
 184 284 184 284 158 314.5 c 128,-1,27
 132 345 132 345 132 396 c 0,28,29
 132 458 132 458 172.5 514.5 c 128,-1,30
 213 571 213 571 278 599 c 1,31,-1
 323 525 l 1,32,-1
 411 599 l 1,33,34
 495 588 495 588 495 511 c 0,35,36
 495 491 495 491 486 455 c 2,37,-1
 379 69 l 2,38,39
 378 67 378 67 378 61 c 0,40,41
 378 38 378 38 402 38 c 0,42,43
 415 38 415 38 426 47 c 128,-1,44
 437 56 437 56 441 68 c 2,45,-1
 587 596 l 1,46,-1
 685 596 l 1,47,-1
 553 118 l 2,0,1
228 322 m 0,48,49
 248 322 248 322 261.5 335.5 c 128,-1,50
 275 349 275 349 275 370 c 0,51,52
 275 392 275 392 261.5 406 c 128,-1,53
 248 420 248 420 227 420 c 0,54,55
 207 420 207 420 194 406.5 c 128,-1,56
 181 393 181 393 181 372 c 0,57,58
 181 350 181 350 194 336 c 128,-1,59
 207 322 207 322 228 322 c 0,48,49
EndSplineSet
EndChar

StartChar: uni0E04
Encoding: 3588 3588 132
Width: 561
Flags: W
HStem: 0 21G<85 188.534 381 483.545> 248 45<301.933 384.39> 398 46<301.259 383.924> 547 52<296.628 463.938>
VStem: 85 98<0 98> 127 51<319.794 439.211> 381 97<0 97> 394 45<301.955 388.409> 498 102<365.406 514.669>
DStem2: 85 0 183 0 0.263873 0.964557<25.8596 253.86> 381 0 478 0 0.263873 0.964557<25.5957 463.144>
LayerCount: 3
Fore
SplineSet
127 349 m 3xf480
 127 482 256 599 402 599 c 3
 531 599 600 553 600 466 c 3
 600 450 597 430 590 404 c 2
 478 0 l 1
 381 0 l 1
 489 389 l 2
 495 411 498 431 498 449 c 3
 498 513 460 547 389 547 c 3
 279 547 178 465 178 375 c 3xf680
 178 356 183 340 197 319 c 1
 200 319 l 1
 253 414 288 444 346 444 c 3
 401 444 439 404 439 347 c 3
 439 289 399 248 342 248 c 3
 318 248 288 262 274 280 c 1
 263 272 253 250 240 206 c 2
 183 0 l 1
 85 0 l 1xf980
 150 233 l 2
 152 239 152 242 152 245 c 3
 152 254 150 262 142 281 c 0
 130 310 127 327 127 349 c 3xf480
344 293 m 3
 373 293 393 314 394 345 c 3xf180
 394 375 372 398 343 398 c 3
 313 398 293 377 293 346 c 3
 293 315 314 293 344 293 c 3
EndSplineSet
Layer: 2
SplineSet
127 349 m 0,0,1
 127 449 127 449 209.5 524 c 128,-1,2
 292 599 292 599 402 599 c 0,3,4
 499 599 499 599 549.5 565 c 128,-1,5
 600 531 600 531 600 466 c 0,6,7
 600 441 600 441 590 404 c 2,8,-1
 478 0 l 1,9,-1
 381 0 l 1,10,-1
 489 389 l 2,11,12
 498 422 498 422 498 449 c 0,13,14
 498 547 498 547 389 547 c 0,15,16
 306 547 306 547 242 494.5 c 128,-1,17
 178 442 178 442 178 375 c 0,18,19
 178 348 178 348 197 319 c 1,20,-1
 200 319 l 1,21,22
 240 390 240 390 271.5 417 c 128,-1,23
 303 444 303 444 346 444 c 0,24,25
 387 444 387 444 413 417 c 128,-1,26
 439 390 439 390 439 347 c 0,27,28
 439 303 439 303 412 275.5 c 128,-1,29
 385 248 385 248 342 248 c 0,30,31
 324 248 324 248 304 257.5 c 128,-1,32
 284 267 284 267 274 280 c 1,33,34
 259 269 259 269 240 206 c 2,35,-1
 183 0 l 1,36,-1
 85 0 l 1,37,-1
 150 233 l 2,38,39
 152 239 152 239 152 245 c 0,40,41
 152 257 152 257 142 281 c 0,42,43
 127 317 127 317 127 349 c 0,0,1
344 293 m 128,-1,45
 366 293 366 293 379.5 307.5 c 128,-1,46
 393 322 393 322 394 345 c 0,47,48
 394 368 394 368 379.5 383 c 128,-1,49
 365 398 365 398 343 398 c 128,-1,50
 321 398 321 398 307 383.5 c 128,-1,51
 293 369 293 369 293 346 c 128,-1,52
 293 323 293 323 307.5 308 c 128,-1,44
 322 293 322 293 344 293 c 128,-1,45
EndSplineSet
EndChar

StartChar: uni0E05
Encoding: 3589 3589 133
Width: 563
Flags: W
HStem: 0 21G<85 188.591 380 481.53> 218 45<293.69 378.325> 367 45<294.585 378.899> 459 21G<355.421 399.895> 578 20G<270.5 346.805 463.067 527>
VStem: 85 98<0 98> 127 51<296.182 439.381> 380 96<0 96> 388 42<272.754 357.704> 505 91<374.906 529.768>
DStem2: 85 0 183 0 0.263873 0.964557<25.8596 246.492> 380 0 476 0 0.263873 0.964557<25.3318 492.084> 389 521 372 459 0.812696 0.582688<0 83.9057>
LayerCount: 3
Fore
SplineSet
309 535 m 1xfb40
 247 520 178 433 178 369 c 3xfb40
 178 346 185 322 199 295 c 1
 202 295 l 1
 256 388 285 412 340 412 c 3
 392 412 430 370 430 314 c 3
 430 257 390 218 332 218 c 3
 307 218 275 233 266 248 c 1
 256 241 243 215 235 186 c 2
 183 0 l 1
 85 0 l 1xfcc0
 149 229 l 2
 150 231 150 233 150 238 c 3
 150 246 149 253 142 272 c 0
 131 304 127 322 127 345 c 3
 127 455 209 557 332 598 c 1
 389 521 l 1
 490 596 l 1
 564 575 596 537 596 469 c 3
 596 445 592 418 583 387 c 2
 476 0 l 1
 380 0 l 1
 487 387 l 2
 501 435 505 455 505 477 c 3
 505 503 496 522 478 535 c 1
 372 459 l 1
 309 535 l 1xfb40
336 263 m 3
 366 263 387 284 388 316 c 3xf8c0
 388 346 367 367 337 367 c 3
 307 367 286 346 285 314 c 3
 285 284 306 263 336 263 c 3
EndSplineSet
Layer: 2
SplineSet
309 535 m 1,0,1
 262 524 262 524 220 470.5 c 128,-1,2
 178 417 178 417 178 369 c 0,3,4
 178 336 178 336 199 295 c 1,5,-1
 202 295 l 1,6,7
 242 365 242 365 270.5 388.5 c 128,-1,8
 299 412 299 412 340 412 c 0,9,10
 379 412 379 412 404.5 384 c 128,-1,11
 430 356 430 356 430 314 c 0,12,13
 430 271 430 271 403 244.5 c 128,-1,14
 376 218 376 218 332 218 c 0,15,16
 313 218 313 218 293 227.5 c 128,-1,17
 273 237 273 237 266 248 c 1,18,19
 249 236 249 236 235 186 c 2,20,-1
 183 0 l 1,21,-1
 85 0 l 1,22,-1
 149 229 l 2,23,24
 150 231 150 231 150 238 c 0,25,26
 150 250 150 250 142 272 c 0,27,28
 127 316 127 316 127 345 c 0,29,30
 127 428 127 428 183.5 497.5 c 128,-1,31
 240 567 240 567 332 598 c 1,32,-1
 389 521 l 1,33,-1
 490 596 l 1,34,35
 546 580 546 580 571 550 c 128,-1,36
 596 520 596 520 596 469 c 0,37,38
 596 432 596 432 583 387 c 2,39,-1
 476 0 l 1,40,-1
 380 0 l 1,41,-1
 487 387 l 2,42,43
 505 449 505 449 505 477 c 0,44,45
 505 516 505 516 478 535 c 1,46,-1
 372 459 l 1,47,-1
 309 535 l 1,0,1
336 263 m 0,48,49
 359 263 359 263 373 277.5 c 128,-1,50
 387 292 387 292 388 316 c 0,51,52
 388 338 388 338 374 352.5 c 128,-1,53
 360 367 360 367 337 367 c 128,-1,54
 314 367 314 367 300 352.5 c 128,-1,55
 286 338 286 338 285 314 c 0,56,57
 285 292 285 292 299.5 277.5 c 128,-1,58
 314 263 314 263 336 263 c 0,48,49
EndSplineSet
EndChar

StartChar: uni0E06
Encoding: 3590 3590 134
Width: 721
Flags: W
HStem: -8 66<237.215 281.366> 0 21G<539.5 636.537> 254 38<182.879 256.949> 390 36<182.343 255.292> 459 21G<291.532 328.242> 579 20G<232.5 290.162 387.216 439 694.454 796>
VStem: 125 48<298.709 424.288> 187 49<58.9403 142.019> 266 39<300.661 381.635> 398 97<418.422 548.178> 700 96<500 596>
DStem2: 258.21 -8 359.22 -8 0.263873 0.964557<65.5437 188.688 255.903 530.469> 532.983 -8 628.811 -8 0.263873 0.964557<132.703 626.664>
LayerCount: 3
Fore
SplineSet
125 369 m 3xbfe0
 125 465 187 559 278 599 c 1
 323 525 l 1
 411 599 l 1
 467 592 495 562 495 511 c 3
 495 496 492 479 486 455 c 2
 419 214 l 1
 489 194 538 163 568 120 c 1
 700 596 l 1
 796 596 l 1
 631 0 l 25
 549 0 l 17x7fe0
 530 83 483 136 406 163 c 1
 374 36 338 -8 268 -8 c 3
 217 -8 187 20 187 68 c 3
 187 142 252 217 322 223 c 1
 395 485 l 2
 397 492 398 498 398 504 c 3
 398 515 393 522 384 525 c 1
 304 459 l 1
 256 536 l 1
 214 512 188 472 176 414 c 1
 189 424 197 426 221 426 c 3
 270 426 304 392 305 342 c 3
 305 291 268 254 218 254 c 3
 160 254 125 297 125 369 c 3xbfe0
220 292 m 3
 247 292 266 312 266 340 c 3
 266 370 247 390 219 390 c 3
 192 390 173 370 173 342 c 3
 173 312 192 292 220 292 c 3
308 174 m 1
 272 170 236 126 236 88 c 3
 236 69 247 58 265 58 c 3xbfe0
 272 58 278 65 282 80 c 2
 308 174 l 1
EndSplineSet
Layer: 2
SplineSet
125 369 m 0,0,1
 125 441 125 441 167.5 505 c 128,-1,2
 210 569 210 569 278 599 c 1,3,-1
 323 525 l 1,4,-1
 411 599 l 1,5,6
 495 588 495 588 495 511 c 0,7,8
 495 491 495 491 486 455 c 2,9,-1
 419 214 l 1,10,11
 523 184 523 184 568 120 c 1,12,-1
 700 596 l 1,13,-1
 796 596 l 1,14,-1
 631 0 l 1,15,-1
 549 0 l 1,16,17
 521 123 521 123 406 163 c 1,18,19
 382 68 382 68 351.5 30 c 128,-1,20
 321 -8 321 -8 268 -8 c 0,21,22
 230 -8 230 -8 208.5 12 c 128,-1,23
 187 32 187 32 187 68 c 0,24,25
 187 124 187 124 228.5 171.5 c 128,-1,26
 270 219 270 219 322 223 c 1,27,-1
 395 485 l 2,28,29
 398 495 398 495 398 504 c 0,30,31
 398 520 398 520 384 525 c 1,32,-1
 304 459 l 1,33,-1
 256 536 l 1,34,35
 194 501 194 501 176 414 c 1,36,37
 192 426 192 426 221 426 c 0,38,39
 258 426 258 426 281 403 c 128,-1,40
 304 380 304 380 305 342 c 0,41,42
 305 304 305 304 280.5 279 c 128,-1,43
 256 254 256 254 218 254 c 0,44,45
 174 254 174 254 149.5 284.5 c 128,-1,46
 125 315 125 315 125 369 c 0,0,1
220 292 m 0,47,48
 240 292 240 292 253 305.5 c 128,-1,49
 266 319 266 319 266 340 c 0,50,51
 266 362 266 362 253 376 c 128,-1,52
 240 390 240 390 219 390 c 0,53,54
 199 390 199 390 186 376.5 c 128,-1,55
 173 363 173 363 173 342 c 0,56,57
 173 320 173 320 186 306 c 128,-1,58
 199 292 199 292 220 292 c 0,47,48
308 174 m 1,59,60
 281 171 281 171 258.5 144 c 128,-1,61
 236 117 236 117 236 88 c 0,62,63
 236 58 236 58 265 58 c 0,64,65
 276 58 276 58 282 80 c 2,66,-1
 308 174 l 1,59,60
EndSplineSet
EndChar

StartChar: uni0E07
Encoding: 3591 3591 135
Width: 416
Flags: W
HStem: 0 21G<230.491 337.546> 395 46<296.417 342.528> 545 48<296.267 379.366>
VStem: 246 41<450.34 534.458> 389 76<451.992 536.861>
DStem2: 232.992 0 332 0 0.263873 0.964557<121.299 410.028>
LayerCount: 3
Fore
SplineSet
336 395 m 2
 285 395 246 438 246 494 c 3
 246 552 286 593 341 593 c 3
 418 593 465 553 465 489 c 3
 465 480 465 478 464 476 c 2
 332 0 l 1
 237 0 l 1
 127 338 l 1
 145 395 l 1
 265 117 l 1
 343 395 l 1
 336 395 l 2
337 441 m 3
 367 441 389 463 389 494 c 3
 389 524 368 545 338 545 c 3
 308 545 287 523 287 492 c 3
 287 463 308 441 337 441 c 3
EndSplineSet
Layer: 2
SplineSet
336 395 m 2,0,1
 298 395 298 395 272 423.5 c 128,-1,2
 246 452 246 452 246 494 c 0,3,4
 246 537 246 537 273 565 c 128,-1,5
 300 593 300 593 341 593 c 0,6,7
 399 593 399 593 432 565 c 128,-1,8
 465 537 465 537 465 489 c 0,9,10
 465 478 465 478 464 476 c 2,11,-1
 332 0 l 1,12,-1
 237 0 l 1,13,-1
 127 338 l 1,14,-1
 145 395 l 1,15,-1
 265 117 l 1,16,-1
 343 395 l 1,17,-1
 336 395 l 2,0,1
337 441 m 0,18,19
 360 441 360 441 374.5 456 c 128,-1,20
 389 471 389 471 389 494 c 0,21,22
 389 516 389 516 374.5 530.5 c 128,-1,23
 360 545 360 545 338 545 c 128,-1,24
 316 545 316 545 301.5 530 c 128,-1,25
 287 515 287 515 287 492 c 0,26,27
 287 470 287 470 301 455.5 c 128,-1,28
 315 441 315 441 337 441 c 0,18,19
EndSplineSet
EndChar

StartChar: uni0E08
Encoding: 3592 3592 136
Width: 538
Flags: W
HStem: -5 50<312.617 370.731> 386 46<218.905 301.342> 540 57<303.992 444.747>
VStem: 168 43<290.41 377.295> 224 88<45.541 149.781> 474 101<362.266 510.116>
DStem2: 193.07 -5 291.114 -5 0.263873 0.964557<100.291 249.856> 352.388 -5 452.53 -5 0.263873 0.964557<72.5826 474.278>
LayerCount: 3
Fore
SplineSet
259 236 m 1
 206 243 168 284 168 334 c 3
 168 389 211 432 266 432 c 3
 337 432 386 398 386 348 c 3
 386 341 385 334 383 327 c 2
 313 75 l 2
 312 73 312 71 312 66 c 3
 312 53 321 45 334 45 c 3
 352 45 369 58 374 74 c 2
 468 415 l 2
 472 429 474 442 474 454 c 3
 474 507 435 540 374 540 c 3
 303 540 225 496 177 430 c 1
 147 450 l 1
 213 542 311 597 409 597 c 3
 507 597 575 541 575 460 c 3
 575 444 573 429 568 413 c 2
 487 121 l 2
 466 45 400 -5 321 -5 c 3
 265 -5 224 36 224 90 c 3
 224 101 225 111 228 121 c 2
 259 236 l 1
262 281 m 3
 291 281 311 302 311 333 c 3
 311 364 290 386 261 386 c 3
 231 386 211 365 211 334 c 3
 211 303 232 281 262 281 c 3
EndSplineSet
Layer: 2
SplineSet
259 236 m 1,0,1
 219 241 219 241 193.5 268.5 c 128,-1,2
 168 296 168 296 168 334 c 0,3,4
 168 375 168 375 196.5 403.5 c 128,-1,5
 225 432 225 432 266 432 c 0,6,7
 319 432 319 432 352.5 408.5 c 128,-1,8
 386 385 386 385 386 348 c 0,9,10
 386 337.5 386 337.5 383 327 c 2,11,-1
 313 75 l 2,12,13
 312 73 312 73 312 66 c 0,14,15
 312 45 312 45 334 45 c 0,16,17
 347 45 347 45 358.5 53.5 c 128,-1,18
 370 62 370 62 374 74 c 2,19,-1
 468 415 l 2,20,21
 474 436 474 436 474 454 c 0,22,23
 474 494 474 494 447 517 c 128,-1,24
 420 540 420 540 374 540 c 0,25,26
 321 540 321 540 267 510 c 128,-1,27
 213 480 213 480 177 430 c 1,28,-1
 147 450 l 1,29,30
 197 519 197 519 266.5 558 c 128,-1,31
 336 597 336 597 409 597 c 0,32,33
 483 597 483 597 529 559 c 128,-1,34
 575 521 575 521 575 460 c 0,35,36
 575 435 575 435 568 413 c 2,37,-1
 487 121 l 2,38,39
 471 64 471 64 425.5 29.5 c 128,-1,40
 380 -5 380 -5 321 -5 c 0,41,42
 279 -5 279 -5 251.5 22 c 128,-1,43
 224 49 224 49 224 90 c 0,44,45
 224 108 224 108 228 121 c 2,46,-1
 259 236 l 1,0,1
262 281 m 128,-1,48
 284 281 284 281 297.5 295.5 c 128,-1,49
 311 310 311 310 311 333 c 128,-1,50
 311 356 311 356 297 371 c 128,-1,51
 283 386 283 386 261 386 c 128,-1,52
 239 386 239 386 225 371.5 c 128,-1,53
 211 357 211 357 211 334 c 128,-1,54
 211 311 211 311 225.5 296 c 128,-1,47
 240 281 240 281 262 281 c 128,-1,48
EndSplineSet
EndChar

StartChar: uni0E09
Encoding: 3593 3593 137
Width: 586
Flags: W
HStem: -8 43<431.077 512.131> 0 21G<156 245.5> 194 46<171.289 210> 344 45<170.139 252.125> 542 57<323.333 484.081>
VStem: 120 41<250.053 334.296> 262 74<248.709 335.631> 378 43<43.9992 115.777> 521 98<358.727 507.596> 521 46<42.9321 130.871>
DStem2: 398.748 -8 496.994 -8 0.263873 0.964557<210.149 475.458>
LayerCount: 3
Fore
SplineSet
210 194 m 1x7f40
 161 194 120 241 120 296 c 3
 120 348 161 389 213 389 c 3
 285 389 336 355 336 306 c 0
 336 299 335 293 333 286 c 2
 297 154 l 2
 293 141 285 122 279 109 c 1
 323 150 387 177 451 183 c 1
 517 421 l 2
 520 431 521 441 521 452 c 3
 521 506 475 542 404 542 c 3
 325 542 242 499 190 430 c 1
 158 450 l 1
 222 542 330 599 440 599 c 3
 547 599 619 543 619 461 c 3x7f80
 619 444 617 428 612 412 c 2
 558 215 l 2
 553 196 542 179 532 173 c 1
 531 170 l 1
 553 153 567 122 567 90 c 3
 567 31 528 -8 470 -8 c 3xbf40
 418 -8 378 33 378 85 c 3
 378 97 379 107 382 116 c 1
 326 95 255 39 236 0 c 1
 156 0 l 1
 210 194 l 1x7f40
212 240 m 3
 241 240 262 262 262 292 c 3
 262 322 241 344 212 344 c 3
 182 344 161 322 161 292 c 3
 161 262 182 240 212 240 c 3
471 35 m 3xbf40
 501 35 521 56 521 87 c 3
 521 118 500 140 470 140 c 3
 441 140 421 119 421 88 c 3
 421 57 442 35 471 35 c 3xbf40
EndSplineSet
Layer: 2
SplineSet
210 194 m 1,0,1
 173 194 173 194 146.5 224.5 c 128,-1,2
 120 255 120 255 120 296 c 0,3,4
 120 335 120 335 147 362 c 128,-1,5
 174 389 174 389 213 389 c 0,6,7
 267 389 267 389 301.5 366 c 128,-1,8
 336 343 336 343 336 306 c 0,9,10
 336 296 336 296 333 286 c 2,11,-1
 297 154 l 2,12,13
 291 136 291 136 279 109 c 1,14,15
 348 173 348 173 451 183 c 1,16,-1
 517 421 l 2,17,18
 521 434 521 434 521 452 c 0,19,20
 521 493 521 493 489 517.5 c 128,-1,21
 457 542 457 542 404 542 c 0,22,23
 345 542 345 542 287 512 c 128,-1,24
 229 482 229 482 190 430 c 1,25,-1
 158 450 l 1,26,27
 206 519 206 519 281.5 559 c 128,-1,28
 357 599 357 599 440 599 c 0,29,30
 520 599 520 599 569.5 561 c 128,-1,31
 619 523 619 523 619 461 c 0,32,33
 619 434 619 434 612 412 c 2,34,-1
 558 215 l 2,35,36
 550 184 550 184 532 173 c 1,37,-1
 531 170 l 1,38,39
 567 142 567 142 567 90 c 0,40,41
 567 46 567 46 540.5 19 c 128,-1,42
 514 -8 514 -8 470 -8 c 0,43,44
 431 -8 431 -8 404.5 19 c 128,-1,45
 378 46 378 46 378 85 c 0,46,47
 378 104 378 104 382 116 c 1,48,49
 340 100 340 100 295 64.5 c 128,-1,50
 250 29 250 29 236 0 c 1,51,-1
 156 0 l 1,52,-1
 210 194 l 1,0,1
212 240 m 128,-1,54
 234 240 234 240 248 254.5 c 128,-1,55
 262 269 262 269 262 292 c 128,-1,56
 262 315 262 315 248 329.5 c 128,-1,57
 234 344 234 344 212 344 c 128,-1,58
 190 344 190 344 175.5 329.5 c 128,-1,59
 161 315 161 315 161 292 c 128,-1,60
 161 269 161 269 175.5 254.5 c 128,-1,53
 190 240 190 240 212 240 c 128,-1,54
471 35 m 128,-1,62
 493 35 493 35 507 49.5 c 128,-1,63
 521 64 521 64 521 87 c 128,-1,64
 521 110 521 110 506.5 125 c 128,-1,65
 492 140 492 140 470 140 c 128,-1,66
 448 140 448 140 434.5 125.5 c 128,-1,67
 421 111 421 111 421 88 c 128,-1,68
 421 65 421 65 435 50 c 128,-1,61
 449 35 449 35 471 35 c 128,-1,62
EndSplineSet
EndChar

StartChar: uni0E0A
Encoding: 3594 3594 138
Width: 556
Flags: W
HStem: 0 45<162 226 323 415.513> 328 35<193.042 266.132> 462 34<198.684 265.129> 542 56<242.669 338.926>
VStem: 133 49<371.236 453.823> 276 36<372.716 452.044> 348 93<406.391 533.606> 511 98<279.75 409.369>
DStem2: 213.689 0 310.689 0 0.263873 0.964557<72.2492 509.731> 412.992 0 510.275 0 0.263873 0.964557<57.8202 380.365 489.531 616.488>
LayerCount: 3
Fore
SplineSet
133 414 m 0
 133 508 228 598 328 598 c 3
 398 598 441 558 441 491 c 3
 441 478 439 465 434 445 c 2
 323 45 l 1
 361 45 l 2
 401 45 433 73 445 117 c 2
 505 333 l 2
 509 346 511 358 511 368 c 3
 511 396 496 412 460 422 c 1
 468 450 l 1
 525 463 546 482 560 531 c 2
 578 594 l 1
 675 594 l 1
 644 472 621 440 561 436 c 1
 593 433 609 414 609 379 c 3
 609 364 606 346 599 321 c 2
 539 105 l 2
 522 43 469 0 410 0 c 2
 150 0 l 1
 162 45 l 1
 226 45 l 1
 345 472 l 2
 347 479 348 486 348 492 c 3
 348 523 327 542 292 542 c 3
 254 542 222 522 198 485 c 1
 213 494 219 496 232 496 c 3
 281 496 311 464 312 410 c 3
 312 362 276 328 226 328 c 3
 168 328 133 360 133 414 c 0
230 363 m 3
 257 363 276 383 276 412 c 3
 276 442 257 462 229 462 c 3
 202 462 182 441 182 412 c 3
 182 384 202 363 230 363 c 3
EndSplineSet
Layer: 2
SplineSet
133 414 m 0,0,1
 133 485 133 485 193 541.5 c 128,-1,2
 253 598 253 598 328 598 c 0,3,4
 381 598 381 598 411 569.5 c 128,-1,5
 441 541 441 541 441 491 c 0,6,7
 441 473 441 473 434 445 c 2,8,-1
 323 45 l 1,9,-1
 361 45 l 2,10,11
 391 45 391 45 413.5 64.5 c 128,-1,12
 436 84 436 84 445 117 c 2,13,-1
 505 333 l 2,14,15
 511 352 511 352 511 368 c 0,16,17
 511 408 511 408 460 422 c 1,18,-1
 468 450 l 1,19,20
 511 460 511 460 530 477 c 128,-1,21
 549 494 549 494 560 531 c 2,22,-1
 578 594 l 1,23,-1
 675 594 l 1,24,25
 652 502 652 502 629 470.5 c 128,-1,26
 606 439 606 439 561 436 c 1,27,28
 609 431.5 609 431.5 609 379 c 0,29,30
 609 357 609 357 599 321 c 2,31,-1
 539 105 l 2,32,33
 526 59 526 59 490 29.5 c 128,-1,34
 454 0 454 0 410 0 c 2,35,-1
 150 0 l 1,36,-1
 162 45 l 1,37,-1
 226 45 l 1,38,-1
 345 472 l 2,39,40
 348 483 348 483 348 492 c 0,41,42
 348 515 348 515 333 528.5 c 128,-1,43
 318 542 318 542 292 542 c 0,44,45
 235 542 235 542 198 485 c 1,46,47
 216 496 216 496 232 496 c 0,48,49
 269 496 269 496 290 473 c 128,-1,50
 311 450 311 450 312 410 c 0,51,52
 312 374 312 374 288 351 c 128,-1,53
 264 328 264 328 226 328 c 0,54,55
 182 328 182 328 157.5 351 c 128,-1,56
 133 374 133 374 133 414 c 0,0,1
230 363 m 0,57,58
 250 363 250 363 263 376.5 c 128,-1,59
 276 390 276 390 276 412 c 128,-1,60
 276 434 276 434 263 448 c 128,-1,61
 250 462 250 462 229 462 c 0,62,63
 209 462 209 462 195.5 448 c 128,-1,64
 182 434 182 434 182 412 c 0,65,66
 182 391 182 391 195.5 377 c 128,-1,67
 209 363 209 363 230 363 c 0,57,58
EndSplineSet
EndChar

